<svg width="56" height="12" viewBox="0 0 56 12" fill="none" xmlns="http://www.w3.org/2000/svg">
<path d="M0.32 6.09026L0.339996 5.53026L7.23 4.21026L7.25 5.43026H12.67C12.91 4.70026 13.6 4.19026 14.39 4.19026C15.18 4.19026 15.87 4.70026 16.11 5.43026H18.55C18.42 4.61026 18.04 3.85026 17.43 3.22026C16.61 2.37026 15.47 1.86026 14.24 1.80026L13.96 1.78026L14.01 0.640259L14.3 0.660259C15.82 0.740259 17.23 1.37026 18.25 2.43026C19.07 3.28026 19.57 4.31026 19.71 5.43026H56V6.58026H19.71C19.41 9.38026 16.8 11.5203 13.71 11.3503L13.42 11.3303L13.48 10.1903L13.76 10.2103C16.18 10.3403 18.24 8.73026 18.54 6.59026H16.09C15.85 7.32026 15.16 7.83026 14.37 7.83026C13.58 7.83026 12.89 7.32026 12.65 6.59026H7.24L7.25 7.83026L0.32 6.09026Z" fill="#AA8453"/>
</svg>
