<svg width="56" height="12" viewBox="0 0 56 12" fill="none" xmlns="http://www.w3.org/2000/svg">
<path d="M55.68 6.09026L55.66 5.53026L48.77 4.21026L48.75 5.43026H43.33C43.09 4.70026 42.4 4.19026 41.61 4.19026C40.82 4.19026 40.13 4.70026 39.89 5.43026H37.45C37.58 4.61026 37.96 3.85026 38.57 3.22026C39.39 2.37026 40.53 1.86026 41.76 1.80026L42.04 1.78026L41.99 0.640259L41.7 0.660259C40.18 0.740259 38.77 1.37026 37.75 2.43026C36.93 3.28026 36.43 4.31026 36.29 5.43026H0V6.58026H36.29C36.59 9.38026 39.2 11.5203 42.29 11.3503L42.58 11.3303L42.52 10.1903L42.24 10.2103C39.82 10.3403 37.76 8.73026 37.46 6.59026H39.91C40.15 7.32026 40.84 7.83026 41.63 7.83026C42.42 7.83026 43.11 7.32026 43.35 6.59026H48.76L48.75 7.83026L55.68 6.09026Z" fill="#AA8453"/>
</svg>
