<svg width="48" height="48" viewBox="0 0 48 48" fill="none" xmlns="http://www.w3.org/2000/svg">
<path d="M20.9905 37.4791C21.3221 37.4875 21.6538 37.4847 21.9854 37.4847C22.7942 37.4819 22.7942 37.4819 22.7825 36.7276C22.7825 36.6375 22.7738 18.9563 22.7709 18.8015C22.768 18.5284 22.6749 18.4412 22.4131 18.6213C22.0349 18.8831 21.6567 19.1476 21.2581 19.3756C20.8276 19.6177 20.6938 19.947 20.6938 20.4227C20.7083 25.0104 20.7432 36.19 20.6618 37.1892C20.6443 37.4228 20.8014 37.4762 20.9905 37.4791Z" fill="#AA8453"/>
<path d="M18.157 31.9371C18.157 31.5121 18.1541 31.09 18.157 30.6649C18.1599 30.4342 18.0727 30.3019 17.8108 30.3047C17.3337 30.3131 16.8537 30.3103 16.3766 30.3103C16.141 30.3103 15.9984 30.406 15.9984 30.6509C15.9984 31.5121 15.9984 32.3734 15.9955 33.2347C15.9955 33.4598 16.109 33.5583 16.3388 33.5583C16.8043 33.5583 17.2697 33.5527 17.7323 33.5724C18.0377 33.5837 18.1687 33.4683 18.1628 33.1699C18.1512 32.759 18.1599 32.3481 18.1599 31.9371C18.1599 31.9371 18.1599 31.9371 18.157 31.9371Z" fill="#AA8453"/>
<path d="M17.8021 22.9276C17.325 22.9333 16.845 22.9333 16.3679 22.9305C16.1206 22.9276 16.0014 23.043 16.0014 23.2795C15.9955 24.1154 15.9897 24.9485 15.9839 25.7844C15.981 26.0575 16.1206 26.1785 16.3999 26.1729C16.8508 26.1672 17.3017 26.17 17.7527 26.1757C18.0377 26.1813 18.1628 26.0546 18.1599 25.7788C18.1541 25.3679 18.157 24.957 18.157 24.546C18.157 24.121 18.1512 23.6988 18.157 23.2738C18.1628 23.0346 18.0552 22.9248 17.8021 22.9276Z" fill="#AA8453"/>
<path d="M9.93583 47.803C9.9911 47.803 10.0464 47.803 10.0987 47.803C10.0464 47.6904 9.9911 47.6904 9.93583 47.803Z" fill="#AA8453"/>
<path d="M26.7448 19.3756C26.3433 19.1505 25.968 18.8831 25.5898 18.6213C25.328 18.4412 25.2349 18.5284 25.232 18.8015C25.2291 18.9563 25.2204 36.6375 25.2204 36.7276C25.2117 37.4819 25.2117 37.4847 26.0175 37.4847C26.3491 37.4847 26.6808 37.4875 27.0124 37.4791C27.1986 37.4734 27.3586 37.42 27.3382 37.1892C27.2568 36.19 27.2917 25.0104 27.3062 20.4227C27.3091 19.9442 27.1724 19.6177 26.7448 19.3756Z" fill="#AA8453"/>
<path d="M30.2677 33.5752C30.7332 33.5583 31.1986 33.5612 31.6612 33.5612C31.891 33.5612 32.0045 33.4626 32.0045 33.2375C32.0016 32.3762 32.0016 31.515 32.0016 30.6537C32.0016 30.406 31.859 30.3131 31.6234 30.3131C31.1463 30.3131 30.6663 30.3159 30.1892 30.3075C29.9244 30.3019 29.8401 30.437 29.843 30.6678C29.8459 31.0928 29.843 31.515 29.843 31.94C29.8401 31.94 29.8401 31.94 29.8372 31.94C29.8372 32.3509 29.8459 32.7618 29.8343 33.1727C29.8313 33.4711 29.9593 33.5865 30.2677 33.5752Z" fill="#AA8453"/>
<path d="M30.2503 26.1785C30.7012 26.1729 31.1521 26.17 31.603 26.1757C31.8852 26.1785 32.0219 26.0603 32.019 25.7873C32.0132 24.9513 32.0074 24.1182 32.0016 23.2823C31.9986 23.0459 31.8823 22.9305 31.635 22.9305C31.1579 22.9333 30.6779 22.9361 30.2008 22.9276C29.9477 22.9248 29.8401 23.0346 29.843 23.2767C29.8488 23.7017 29.8459 24.1238 29.843 24.5488C29.843 24.9598 29.8488 25.3707 29.8401 25.7816C29.8372 26.0575 29.9652 26.1813 30.2503 26.1785Z" fill="#AA8453"/>
<path d="M37.9013 47.803C37.9565 47.803 38.0118 47.803 38.0642 47.803C38.0118 47.6904 37.9565 47.6904 37.9013 47.803Z" fill="#AA8453"/>
<path d="M24.0015 7.81893C23.6669 8.95321 22.9629 9.76099 21.7382 10.0593C22.2967 10.217 22.7971 10.3858 23.184 10.763C23.5767 11.143 23.7775 11.6496 24.0015 12.1534C24.2225 11.6496 24.4262 11.143 24.8189 10.763C25.2087 10.3858 25.7062 10.2198 26.2648 10.0593C25.04 9.76099 24.336 8.95039 24.0015 7.81893ZM24.0015 7.90899C24.0073 7.94558 24.0131 7.98217 24.0015 8.01876C23.9898 7.98217 23.9956 7.94558 24.0015 7.90899ZM24.0015 12.0521C23.9956 12.0099 23.9898 11.9676 24.0015 11.9282C24.0131 11.9704 24.0073 12.0099 24.0015 12.0521Z" fill="#AA8453"/>
<path d="M45.1275 35.5201C42.8526 38.1461 39.4896 39.3536 38.4511 39.2438C37.6598 39.1594 10.3431 39.1594 9.55182 39.2438C8.51327 39.3536 5.15322 38.1461 2.87538 35.5201C2.81429 35.4469 2.7561 35.34 2.59901 35.3963C2.61065 35.4413 2.61647 35.4892 2.63392 35.5342C3.17502 36.8345 3.94885 37.9998 4.86231 39.0778C6.4827 40.9804 8.41726 42.5312 10.5933 43.8063C11.3438 44.2453 12.106 44.6929 12.8828 45.1207C16.2632 46.9952 20.0916 47.9747 23.9869 48H24.016C27.9113 47.9747 31.7397 46.9924 35.1201 45.1207C35.894 44.6929 36.6562 44.2453 37.4096 43.8063C39.5856 42.5312 41.5231 40.9804 43.1406 39.0778C44.057 38.0026 44.8279 36.8345 45.369 35.5342C45.3864 35.492 45.3923 35.4441 45.4039 35.3963C45.2468 35.3428 45.1886 35.4497 45.1275 35.5201ZM25.4182 45.0475C24.944 45.0728 23.0618 45.0728 22.5847 45.0475C18.8756 44.8477 15.3846 43.8738 12.2631 41.8586C12.2689 41.822 12.2777 41.7882 12.2835 41.7516C16.1846 41.7516 31.8183 41.7516 35.7194 41.7516C35.7252 41.7882 35.734 41.822 35.7398 41.8586C32.6183 43.8738 29.1244 44.8477 25.4182 45.0475Z" fill="#AA8453"/>
<path d="M47.6177 25.4664C48.1908 23.9803 48.0512 22.4886 47.6468 20.9968C47.5916 20.7914 47.577 20.6084 47.6439 20.3973C48.3247 18.2442 47.7807 16.3471 46.3319 14.6443C46.265 14.5655 46.1894 14.4923 46.1166 14.4191C46.0905 14.3938 46.0526 14.3769 45.945 14.3094C45.9654 14.8301 46.0875 15.2748 46.1079 15.7336C46.2039 18.0218 45.3981 19.9639 43.7631 21.5992C42.5559 22.8066 41.142 23.6876 39.4518 24.1154C38.8787 24.2618 38.294 24.3772 37.7093 24.4729C37.1711 24.5601 37.046 24.4363 37.046 23.9127C37.046 21.7399 37.046 19.567 37.0431 17.3942C37.0431 17.2534 37.0431 17.1099 37.0256 16.972C37.014 16.8706 36.9936 16.7975 36.8278 16.8087C35.5158 16.8988 34.2009 16.8369 32.8859 16.8425C32.4757 16.8453 32.0801 16.7158 31.7106 16.5245C31.0823 16.2008 29.4677 15.3902 29.3106 15.2044C30.0903 15.0975 34.6954 15.0806 36.2605 15.1172C36.4962 15.1228 36.502 15.0046 36.4962 14.8244C36.4641 13.693 36.4351 12.5587 36.7143 11.4497C37.0634 10.0565 37.7296 8.83218 38.8787 7.88648C39.0707 7.72886 39.2744 7.58532 39.5129 7.50932C39.5711 7.53747 39.5566 7.57406 39.5362 7.60783C39.0707 8.42688 39.1144 8.9898 39.6962 9.62027C40.1791 10.1438 41.1129 10.3239 41.8315 10.0312C42.7246 9.66811 43.3297 8.61264 43.2221 7.6782C43.0097 5.8262 41.4446 4.7651 39.5129 4.9396C37.4416 5.12537 36.1267 6.40037 35.1201 8.08631C34.9572 8.35933 34.838 8.65205 34.7158 8.94195C34.6227 9.16712 34.4889 9.20934 34.2474 9.18119C32.0365 8.90817 30.0844 8.07224 28.403 6.66213C27.6873 6.06262 27.0764 5.37023 26.6255 4.554C26.5324 4.38513 26.5469 4.30069 26.7099 4.17404C27.8124 3.3184 27.5739 1.76475 26.2648 1.24405C26.0698 1.16524 25.8691 1.08643 25.6626 1.04703C25.1971 0.954146 24.6618 0.475666 24.3302 0.1351C24.1556 -0.0450334 23.8589 -0.0450334 23.6844 0.1351C23.3498 0.475666 22.8145 0.954146 22.352 1.04703C22.1454 1.08925 21.9447 1.16805 21.7498 1.24405C20.4436 1.76475 20.2021 3.3184 21.3047 4.17404C21.4676 4.30069 21.4822 4.38513 21.3891 4.554C20.9381 5.37023 20.3272 6.06262 19.6116 6.66213C17.9301 8.07224 15.9781 8.90817 13.7671 9.18119C13.5257 9.21215 13.3948 9.16712 13.2988 8.94195C13.1766 8.65205 13.0573 8.35933 12.8944 8.08631C11.8879 6.40037 10.5729 5.12537 8.50163 4.9396C6.56997 4.76791 5.00777 5.82901 4.79249 7.6782C4.68485 8.61546 5.28995 9.66811 6.18306 10.0312C6.90161 10.3239 7.83253 10.1466 8.31835 9.62027C8.89727 8.9898 8.94382 8.42688 8.47836 7.60783C8.45799 7.57406 8.44345 7.54028 8.50163 7.50932C8.74018 7.58532 8.94382 7.72886 9.13582 7.88648C10.2849 8.83218 10.9482 10.0565 11.3002 11.4497C11.5795 12.5587 11.5504 13.693 11.5184 14.8244C11.5126 15.0074 11.5155 15.1228 11.754 15.1172C13.3191 15.0778 17.9272 15.0946 18.7039 15.2044C18.5468 15.3902 16.9323 16.2008 16.3039 16.5245C15.9344 16.713 15.5388 16.8453 15.1286 16.8425C13.8137 16.8369 12.4988 16.8988 11.1868 16.8087C11.0209 16.7975 11.0006 16.8735 10.9889 16.972C10.9715 17.1127 10.9715 17.2534 10.9715 17.3942C10.9715 19.567 10.9686 21.7399 10.9686 23.9127C10.9686 24.4334 10.8435 24.5601 10.3053 24.4729C9.72055 24.3772 9.13582 24.2618 8.56272 24.1154C6.87252 23.6876 5.45868 22.8066 4.2514 21.5992C2.61647 19.9639 1.81064 18.0218 1.90664 15.7336C1.91537 15.2748 2.03755 14.8301 2.05791 14.3094C1.95028 14.3769 1.91246 14.3938 1.88628 14.4191C1.81064 14.4923 1.73791 14.5655 1.671 14.6443C0.219347 16.3471 -0.32466 18.2442 0.356076 20.3973C0.422985 20.6084 0.40844 20.7914 0.353166 20.9968C-0.0512021 22.4886 -0.19084 23.9803 0.382258 25.4664C0.460804 25.6662 0.437531 25.8633 0.382258 26.0603C0.216438 26.6457 0.0738903 27.2424 0.0506173 27.8504C-0.0162926 29.7784 0.649897 31.4671 1.82228 32.9757C2.00846 33.215 6.24415 36.9781 8.0769 37.3214C9.9911 37.6789 10.9249 37.1638 12.8566 37.3186C13.133 37.3411 13.2348 37.2258 13.2348 36.9612C13.2348 36.0239 13.2348 22.041 13.2842 19.6655C13.2901 19.3587 13.4675 19.2236 13.7613 19.218C14.6224 19.2068 15.4864 19.2011 16.3475 19.1955C16.5337 19.1955 16.717 19.1842 16.8886 19.0998C18.1832 18.4778 22.6574 16.046 23.6116 15.4746C23.7396 15.3958 23.8589 15.3705 23.9811 15.3817V15.3845C23.9869 15.3845 23.9898 15.3845 23.9956 15.3845C24.0015 15.3845 24.0044 15.3845 24.0102 15.3845V15.3817C24.1295 15.3705 24.2487 15.3986 24.3796 15.4746C25.3338 16.046 29.811 18.4778 31.1026 19.0998C31.2772 19.1842 31.4575 19.1955 31.6437 19.1955C32.5048 19.2011 33.3688 19.2068 34.2299 19.218C34.5238 19.2208 34.7012 19.3559 34.707 19.6655C34.7565 22.041 34.7565 36.0239 34.7565 36.9612C34.7565 37.2258 34.8583 37.3383 35.1347 37.3186C37.0634 37.1638 38.0002 37.6789 39.9144 37.3214C41.7471 36.9781 45.9828 33.215 46.169 32.9757C47.3414 31.4671 48.0076 29.7812 47.9407 27.8504C47.9203 27.2424 47.7748 26.6485 47.609 26.0603C47.5625 25.8633 47.5421 25.6662 47.6177 25.4664ZM10.186 34.4393C8.94672 34.3042 7.75107 33.9918 6.65142 33.4345C5.2405 32.7196 3.98376 31.7908 3.10811 30.4764C2.63683 29.7671 2.17428 29.0325 2.023 28.1628C2.15973 28.1628 2.20628 28.2557 2.24701 28.3232C2.77356 29.2182 3.71321 29.6404 4.53358 30.1837C6.25287 31.3207 8.19908 31.7767 10.2558 31.8499C10.9511 31.8752 10.9569 31.8724 10.9569 32.5563C10.9569 33.1727 10.9569 33.7891 10.9569 34.4027C10.8347 34.4506 10.3635 34.459 10.186 34.4393ZM10.9598 27.5661C10.9424 27.7828 10.9569 28.0023 10.9569 28.2219C10.9569 28.2219 10.9569 28.2219 10.954 28.2219C10.954 28.3232 10.954 28.4273 10.954 28.5287C10.9482 29.2745 10.9511 29.2633 10.1947 29.1704C9.098 29.0381 8.00708 28.8664 6.99761 28.4189C3.07029 26.8174 2.04919 23.6031 2.23537 23.5046C6.15687 27.0707 9.70892 27.0566 10.5409 27.1129C10.8755 27.1326 10.9831 27.2649 10.9598 27.5661ZM13.8544 12.6854C13.5751 12.6994 13.4501 12.6009 13.4384 12.3138C13.4035 11.5032 13.3948 11.5342 14.221 11.4638C17.5316 11.1852 20.2778 9.84825 22.3694 7.32919C22.928 6.6565 23.3789 5.91345 23.7193 5.11129C23.7745 4.98464 23.8356 4.85798 23.9869 4.77636C23.9869 4.80169 23.9869 4.81858 23.9869 4.81858C23.9927 4.80732 23.9956 4.79887 24.0015 4.78762C24.0073 4.79887 24.0102 4.80732 24.016 4.81858C24.016 4.81858 24.016 4.80169 24.016 4.77636C24.1673 4.86079 24.2284 4.98464 24.2836 5.11129C24.624 5.91345 25.0749 6.6565 25.6335 7.32919C27.7251 9.85106 30.4714 11.188 33.7819 11.4638C34.611 11.5342 34.6023 11.5032 34.5645 12.3138C34.5529 12.6037 34.4278 12.7022 34.1485 12.6854C33.7383 12.6628 14.2646 12.6628 13.8544 12.6854ZM37.462 27.1101C38.294 27.0566 41.846 27.0679 45.7675 23.5018C45.9537 23.6031 44.9297 26.8146 41.0053 28.4189C39.9958 28.8636 38.9049 29.0381 37.8082 29.1704C37.0518 29.2633 37.0518 29.2745 37.0489 28.5287C37.0489 28.4273 37.0489 28.3232 37.0489 28.2219C37.0489 28.2219 37.0489 28.2219 37.046 28.2219C37.046 28.0023 37.0576 27.7856 37.0431 27.5661C37.0198 27.2649 37.1274 27.1326 37.462 27.1101ZM44.8948 30.4764C44.0192 31.7908 42.7624 32.7196 41.3515 33.4345C40.2518 33.9918 39.0533 34.3042 37.8169 34.4393C37.6394 34.459 37.1682 34.4506 37.046 34.4055C37.046 33.792 37.046 33.1756 37.046 32.5592C37.046 31.8752 37.0518 31.8752 37.7471 31.8527C39.8038 31.7823 41.75 31.3264 43.4693 30.1865C44.2926 29.6432 45.2323 29.2182 45.7559 28.326C45.7966 28.2585 45.8461 28.1656 45.9799 28.1656C45.8286 29.0325 45.369 29.7671 44.8948 30.4764Z" fill="#AA8453"/>
</svg>
