<svg width="70" height="16" viewBox="0 0 70 16" fill="none" xmlns="http://www.w3.org/2000/svg">
<path fill-rule="evenodd" clip-rule="evenodd" d="M70 8.80647H47.9858C41.1152 9.06201 31.0085 9.28916 25.303 7.31107C18.4524 4.93547 16.1223 -0.951486 8.86345 1.52823C7.18066 2.10557 5.84637 3.94169 5.33855 5.56013C3.51637 11.4187 11.8009 11.7594 11.7411 7.48143C11.7112 6.14693 10.9545 5.69263 10.0683 5.5412C9.14226 6.68641 8.39546 6.99874 6.79233 6.29836C7.94738 3.31703 12.936 4.09312 12.936 7.67072C12.936 11.3524 7.74823 13.3116 5.02988 10.6426C3.06829 8.71183 3.93458 5.03958 5.81651 2.54094C-0.446648 6.36462 1.62447 14.2297 8.79375 14.684C13.2745 14.9774 14.0213 5.7021 22.027 11.9771C15.9232 11.8257 13.7923 16.2361 9.07256 15.9901C-1.36272 15.4506 -3.9118 4.21616 7.36985 0.695347C15.7838 -1.9358 22.5747 3.56311 30.0825 6.16586C35.6487 8.09663 41.9417 7.44358 47.9659 7.53822H70V8.80647Z" fill="#AA8453"/>
</svg>
