<svg width="70" height="16" viewBox="0 0 70 16" fill="none" xmlns="http://www.w3.org/2000/svg">
<path fill-rule="evenodd" clip-rule="evenodd" d="M0 8.80647H22.0142C28.8848 9.06201 38.9915 9.28916 44.697 7.31107C51.5476 4.93547 53.8777 -0.951486 61.1366 1.52823C62.8193 2.10557 64.1536 3.94169 64.6614 5.56013C66.4836 11.4187 58.1991 11.7594 58.2589 7.48143C58.2888 6.14693 59.0455 5.69263 59.9317 5.5412C60.8577 6.68641 61.6045 6.99874 63.2077 6.29836C62.0526 3.31703 57.064 4.09312 57.064 7.67072C57.064 11.3524 62.2518 13.3116 64.9701 10.6426C66.9317 8.71183 66.0654 5.03958 64.1835 2.54094C70.4466 6.36462 68.3755 14.2297 61.2063 14.684C56.7255 14.9774 55.9787 5.7021 47.973 11.9771C54.0768 11.8257 56.2077 16.2361 60.9274 15.9901C71.3627 15.4506 73.9118 4.21616 62.6301 0.695347C54.2162 -1.9358 47.4253 3.56311 39.9175 6.16586C34.3513 8.09663 28.0583 7.44358 22.0341 7.53822H0V8.80647Z" fill="#AA8453"/>
</svg>
