<svg width="164" height="48" viewBox="0 0 164 48" fill="none" xmlns="http://www.w3.org/2000/svg">
<path d="M20.9905 37.4791C21.3221 37.4875 21.6538 37.4847 21.9854 37.4847C22.7942 37.4819 22.7942 37.4819 22.7825 36.7276C22.7825 36.6375 22.7738 18.9563 22.7709 18.8015C22.768 18.5284 22.6749 18.4412 22.4131 18.6213C22.0349 18.8831 21.6567 19.1476 21.2581 19.3756C20.8276 19.6177 20.6938 19.947 20.6938 20.4227C20.7083 25.0104 20.7432 36.19 20.6618 37.1892C20.6443 37.4228 20.8014 37.4762 20.9905 37.4791Z" fill="#AA8453"/>
<path d="M18.157 31.9371C18.157 31.5121 18.1541 31.09 18.157 30.6649C18.1599 30.4342 18.0727 30.3019 17.8108 30.3047C17.3337 30.3131 16.8537 30.3103 16.3766 30.3103C16.141 30.3103 15.9984 30.406 15.9984 30.6509C15.9984 31.5121 15.9984 32.3734 15.9955 33.2347C15.9955 33.4598 16.109 33.5583 16.3388 33.5583C16.8043 33.5583 17.2697 33.5527 17.7323 33.5724C18.0377 33.5837 18.1687 33.4683 18.1628 33.1699C18.1512 32.759 18.1599 32.3481 18.1599 31.9371C18.1599 31.9371 18.1599 31.9371 18.157 31.9371Z" fill="#AA8453"/>
<path d="M17.8021 22.9276C17.325 22.9333 16.845 22.9333 16.3679 22.9305C16.1206 22.9276 16.0014 23.043 16.0014 23.2795C15.9955 24.1154 15.9897 24.9485 15.9839 25.7844C15.981 26.0575 16.1206 26.1785 16.3999 26.1729C16.8508 26.1672 17.3017 26.17 17.7527 26.1757C18.0377 26.1813 18.1628 26.0546 18.1599 25.7788C18.1541 25.3679 18.157 24.957 18.157 24.546C18.157 24.121 18.1512 23.6988 18.157 23.2738C18.1628 23.0346 18.0552 22.9248 17.8021 22.9276Z" fill="#AA8453"/>
<path d="M9.93583 47.803C9.9911 47.803 10.0464 47.803 10.0987 47.803C10.0464 47.6904 9.9911 47.6904 9.93583 47.803Z" fill="#AA8453"/>
<path d="M26.7448 19.3756C26.3433 19.1505 25.968 18.8831 25.5898 18.6213C25.328 18.4412 25.2349 18.5284 25.232 18.8015C25.2291 18.9563 25.2204 36.6375 25.2204 36.7276C25.2117 37.4819 25.2117 37.4847 26.0175 37.4847C26.3491 37.4847 26.6808 37.4875 27.0124 37.4791C27.1986 37.4734 27.3586 37.42 27.3382 37.1892C27.2568 36.19 27.2917 25.0104 27.3062 20.4227C27.3091 19.9442 27.1724 19.6177 26.7448 19.3756Z" fill="#AA8453"/>
<path d="M30.2677 33.5752C30.7332 33.5583 31.1986 33.5612 31.6612 33.5612C31.891 33.5612 32.0045 33.4626 32.0045 33.2375C32.0016 32.3762 32.0016 31.515 32.0016 30.6537C32.0016 30.406 31.859 30.3131 31.6234 30.3131C31.1463 30.3131 30.6663 30.3159 30.1892 30.3075C29.9244 30.3019 29.8401 30.437 29.843 30.6678C29.8459 31.0928 29.843 31.515 29.843 31.94C29.8401 31.94 29.8401 31.94 29.8372 31.94C29.8372 32.3509 29.8459 32.7618 29.8343 33.1727C29.8313 33.4711 29.9593 33.5865 30.2677 33.5752Z" fill="#AA8453"/>
<path d="M30.2503 26.1785C30.7012 26.1729 31.1521 26.17 31.603 26.1757C31.8852 26.1785 32.0219 26.0603 32.019 25.7873C32.0132 24.9513 32.0074 24.1182 32.0016 23.2823C31.9986 23.0459 31.8823 22.9305 31.635 22.9305C31.1579 22.9333 30.6779 22.9361 30.2008 22.9276C29.9477 22.9248 29.8401 23.0346 29.843 23.2767C29.8488 23.7017 29.8459 24.1238 29.843 24.5488C29.843 24.9598 29.8488 25.3707 29.8401 25.7816C29.8372 26.0575 29.9652 26.1813 30.2503 26.1785Z" fill="#AA8453"/>
<path d="M37.9013 47.803C37.9565 47.803 38.0118 47.803 38.0642 47.803C38.0118 47.6904 37.9565 47.6904 37.9013 47.803Z" fill="#AA8453"/>
<path d="M24.0015 7.81893C23.6669 8.95321 22.9629 9.76099 21.7382 10.0593C22.2967 10.217 22.7971 10.3858 23.184 10.763C23.5767 11.143 23.7775 11.6496 24.0015 12.1534C24.2225 11.6496 24.4262 11.143 24.8189 10.763C25.2087 10.3858 25.7062 10.2198 26.2648 10.0593C25.04 9.76099 24.336 8.95039 24.0015 7.81893ZM24.0015 7.90899C24.0073 7.94558 24.0131 7.98217 24.0015 8.01876C23.9898 7.98217 23.9956 7.94558 24.0015 7.90899ZM24.0015 12.0521C23.9956 12.0099 23.9898 11.9676 24.0015 11.9282C24.0131 11.9704 24.0073 12.0099 24.0015 12.0521Z" fill="#AA8453"/>
<path d="M45.1275 35.5201C42.8526 38.1461 39.4896 39.3536 38.4511 39.2438C37.6598 39.1594 10.3431 39.1594 9.55182 39.2438C8.51327 39.3536 5.15322 38.1461 2.87538 35.5201C2.81429 35.4469 2.7561 35.34 2.59901 35.3963C2.61065 35.4413 2.61647 35.4892 2.63392 35.5342C3.17502 36.8345 3.94885 37.9998 4.86231 39.0778C6.4827 40.9804 8.41726 42.5312 10.5933 43.8063C11.3438 44.2453 12.106 44.6929 12.8828 45.1207C16.2632 46.9952 20.0916 47.9747 23.9869 48H24.016C27.9113 47.9747 31.7397 46.9924 35.1201 45.1207C35.894 44.6929 36.6562 44.2453 37.4096 43.8063C39.5856 42.5312 41.5231 40.9804 43.1406 39.0778C44.057 38.0026 44.8279 36.8345 45.369 35.5342C45.3864 35.492 45.3923 35.4441 45.4039 35.3963C45.2468 35.3428 45.1886 35.4497 45.1275 35.5201ZM25.4182 45.0475C24.944 45.0728 23.0618 45.0728 22.5847 45.0475C18.8756 44.8477 15.3846 43.8738 12.2631 41.8586C12.2689 41.822 12.2777 41.7882 12.2835 41.7516C16.1846 41.7516 31.8183 41.7516 35.7194 41.7516C35.7252 41.7882 35.734 41.822 35.7398 41.8586C32.6183 43.8738 29.1244 44.8477 25.4182 45.0475Z" fill="#AA8453"/>
<path d="M47.6177 25.4664C48.1908 23.9803 48.0512 22.4886 47.6468 20.9968C47.5916 20.7914 47.577 20.6084 47.6439 20.3973C48.3247 18.2442 47.7807 16.3471 46.3319 14.6443C46.265 14.5655 46.1894 14.4923 46.1166 14.4191C46.0905 14.3938 46.0526 14.3769 45.945 14.3094C45.9654 14.8301 46.0875 15.2748 46.1079 15.7336C46.2039 18.0218 45.3981 19.9639 43.7631 21.5992C42.5559 22.8066 41.142 23.6876 39.4518 24.1154C38.8787 24.2618 38.294 24.3772 37.7093 24.4729C37.1711 24.5601 37.046 24.4363 37.046 23.9127C37.046 21.7399 37.046 19.567 37.0431 17.3942C37.0431 17.2534 37.0431 17.1099 37.0256 16.972C37.014 16.8706 36.9936 16.7975 36.8278 16.8087C35.5158 16.8988 34.2009 16.8369 32.8859 16.8425C32.4757 16.8453 32.0801 16.7158 31.7106 16.5245C31.0823 16.2008 29.4677 15.3902 29.3106 15.2044C30.0903 15.0975 34.6954 15.0806 36.2605 15.1172C36.4962 15.1228 36.502 15.0046 36.4962 14.8244C36.4641 13.693 36.4351 12.5587 36.7143 11.4497C37.0634 10.0565 37.7296 8.83218 38.8787 7.88648C39.0707 7.72886 39.2744 7.58532 39.5129 7.50932C39.5711 7.53747 39.5566 7.57406 39.5362 7.60783C39.0707 8.42688 39.1144 8.9898 39.6962 9.62027C40.1791 10.1438 41.1129 10.3239 41.8315 10.0312C42.7246 9.66811 43.3297 8.61264 43.2221 7.6782C43.0097 5.8262 41.4446 4.7651 39.5129 4.9396C37.4416 5.12537 36.1267 6.40037 35.1201 8.08631C34.9572 8.35933 34.838 8.65205 34.7158 8.94195C34.6227 9.16712 34.4889 9.20934 34.2474 9.18119C32.0365 8.90817 30.0844 8.07224 28.403 6.66213C27.6873 6.06262 27.0764 5.37023 26.6255 4.554C26.5324 4.38513 26.5469 4.30069 26.7099 4.17404C27.8124 3.3184 27.5739 1.76475 26.2648 1.24405C26.0698 1.16524 25.8691 1.08643 25.6626 1.04703C25.1971 0.954146 24.6618 0.475666 24.3302 0.1351C24.1556 -0.0450334 23.8589 -0.0450334 23.6844 0.1351C23.3498 0.475666 22.8145 0.954146 22.352 1.04703C22.1454 1.08925 21.9447 1.16805 21.7498 1.24405C20.4436 1.76475 20.2021 3.3184 21.3047 4.17404C21.4676 4.30069 21.4822 4.38513 21.3891 4.554C20.9381 5.37023 20.3272 6.06262 19.6116 6.66213C17.9301 8.07224 15.9781 8.90817 13.7671 9.18119C13.5257 9.21215 13.3948 9.16712 13.2988 8.94195C13.1766 8.65205 13.0573 8.35933 12.8944 8.08631C11.8879 6.40037 10.5729 5.12537 8.50163 4.9396C6.56997 4.76791 5.00777 5.82901 4.79249 7.6782C4.68485 8.61546 5.28995 9.66811 6.18306 10.0312C6.90161 10.3239 7.83253 10.1466 8.31835 9.62027C8.89727 8.9898 8.94382 8.42688 8.47836 7.60783C8.45799 7.57406 8.44345 7.54028 8.50163 7.50932C8.74018 7.58532 8.94382 7.72886 9.13582 7.88648C10.2849 8.83218 10.9482 10.0565 11.3002 11.4497C11.5795 12.5587 11.5504 13.693 11.5184 14.8244C11.5126 15.0074 11.5155 15.1228 11.754 15.1172C13.3191 15.0778 17.9272 15.0946 18.7039 15.2044C18.5468 15.3902 16.9323 16.2008 16.3039 16.5245C15.9344 16.713 15.5388 16.8453 15.1286 16.8425C13.8137 16.8369 12.4988 16.8988 11.1868 16.8087C11.0209 16.7975 11.0006 16.8735 10.9889 16.972C10.9715 17.1127 10.9715 17.2534 10.9715 17.3942C10.9715 19.567 10.9686 21.7399 10.9686 23.9127C10.9686 24.4334 10.8435 24.5601 10.3053 24.4729C9.72055 24.3772 9.13582 24.2618 8.56272 24.1154C6.87252 23.6876 5.45868 22.8066 4.2514 21.5992C2.61647 19.9639 1.81064 18.0218 1.90664 15.7336C1.91537 15.2748 2.03755 14.8301 2.05791 14.3094C1.95028 14.3769 1.91246 14.3938 1.88628 14.4191C1.81064 14.4923 1.73791 14.5655 1.671 14.6443C0.219347 16.3471 -0.32466 18.2442 0.356076 20.3973C0.422985 20.6084 0.40844 20.7914 0.353166 20.9968C-0.0512021 22.4886 -0.19084 23.9803 0.382258 25.4664C0.460804 25.6662 0.437531 25.8633 0.382258 26.0603C0.216438 26.6457 0.0738903 27.2424 0.0506173 27.8504C-0.0162926 29.7784 0.649897 31.4671 1.82228 32.9757C2.00846 33.215 6.24415 36.9781 8.0769 37.3214C9.9911 37.6789 10.9249 37.1638 12.8566 37.3186C13.133 37.3411 13.2348 37.2258 13.2348 36.9612C13.2348 36.0239 13.2348 22.041 13.2842 19.6655C13.2901 19.3587 13.4675 19.2236 13.7613 19.218C14.6224 19.2068 15.4864 19.2011 16.3475 19.1955C16.5337 19.1955 16.717 19.1842 16.8886 19.0998C18.1832 18.4778 22.6574 16.046 23.6116 15.4746C23.7396 15.3958 23.8589 15.3705 23.9811 15.3817V15.3845C23.9869 15.3845 23.9898 15.3845 23.9956 15.3845C24.0015 15.3845 24.0044 15.3845 24.0102 15.3845V15.3817C24.1295 15.3705 24.2487 15.3986 24.3796 15.4746C25.3338 16.046 29.811 18.4778 31.1026 19.0998C31.2772 19.1842 31.4575 19.1955 31.6437 19.1955C32.5048 19.2011 33.3688 19.2068 34.2299 19.218C34.5238 19.2208 34.7012 19.3559 34.707 19.6655C34.7565 22.041 34.7565 36.0239 34.7565 36.9612C34.7565 37.2258 34.8583 37.3383 35.1347 37.3186C37.0634 37.1638 38.0002 37.6789 39.9144 37.3214C41.7471 36.9781 45.9828 33.215 46.169 32.9757C47.3414 31.4671 48.0076 29.7812 47.9407 27.8504C47.9203 27.2424 47.7748 26.6485 47.609 26.0603C47.5625 25.8633 47.5421 25.6662 47.6177 25.4664ZM10.186 34.4393C8.94672 34.3042 7.75107 33.9918 6.65142 33.4345C5.2405 32.7196 3.98376 31.7908 3.10811 30.4764C2.63683 29.7671 2.17428 29.0325 2.023 28.1628C2.15973 28.1628 2.20628 28.2557 2.24701 28.3232C2.77356 29.2182 3.71321 29.6404 4.53358 30.1837C6.25287 31.3207 8.19908 31.7767 10.2558 31.8499C10.9511 31.8752 10.9569 31.8724 10.9569 32.5563C10.9569 33.1727 10.9569 33.7891 10.9569 34.4027C10.8347 34.4506 10.3635 34.459 10.186 34.4393ZM10.9598 27.5661C10.9424 27.7828 10.9569 28.0023 10.9569 28.2219C10.9569 28.2219 10.9569 28.2219 10.954 28.2219C10.954 28.3232 10.954 28.4273 10.954 28.5287C10.9482 29.2745 10.9511 29.2633 10.1947 29.1704C9.098 29.0381 8.00708 28.8664 6.99761 28.4189C3.07029 26.8174 2.04919 23.6031 2.23537 23.5046C6.15687 27.0707 9.70892 27.0566 10.5409 27.1129C10.8755 27.1326 10.9831 27.2649 10.9598 27.5661ZM13.8544 12.6854C13.5751 12.6994 13.4501 12.6009 13.4384 12.3138C13.4035 11.5032 13.3948 11.5342 14.221 11.4638C17.5316 11.1852 20.2778 9.84825 22.3694 7.32919C22.928 6.6565 23.3789 5.91345 23.7193 5.11129C23.7745 4.98464 23.8356 4.85798 23.9869 4.77636C23.9869 4.80169 23.9869 4.81858 23.9869 4.81858C23.9927 4.80732 23.9956 4.79887 24.0015 4.78762C24.0073 4.79887 24.0102 4.80732 24.016 4.81858C24.016 4.81858 24.016 4.80169 24.016 4.77636C24.1673 4.86079 24.2284 4.98464 24.2836 5.11129C24.624 5.91345 25.0749 6.6565 25.6335 7.32919C27.7251 9.85106 30.4714 11.188 33.7819 11.4638C34.611 11.5342 34.6023 11.5032 34.5645 12.3138C34.5529 12.6037 34.4278 12.7022 34.1485 12.6854C33.7383 12.6628 14.2646 12.6628 13.8544 12.6854ZM37.462 27.1101C38.294 27.0566 41.846 27.0679 45.7675 23.5018C45.9537 23.6031 44.9297 26.8146 41.0053 28.4189C39.9958 28.8636 38.9049 29.0381 37.8082 29.1704C37.0518 29.2633 37.0518 29.2745 37.0489 28.5287C37.0489 28.4273 37.0489 28.3232 37.0489 28.2219C37.0489 28.2219 37.0489 28.2219 37.046 28.2219C37.046 28.0023 37.0576 27.7856 37.0431 27.5661C37.0198 27.2649 37.1274 27.1326 37.462 27.1101ZM44.8948 30.4764C44.0192 31.7908 42.7624 32.7196 41.3515 33.4345C40.2518 33.9918 39.0533 34.3042 37.8169 34.4393C37.6394 34.459 37.1682 34.4506 37.046 34.4055C37.046 33.792 37.046 33.1756 37.046 32.5592C37.046 31.8752 37.0518 31.8752 37.7471 31.8527C39.8038 31.7823 41.75 31.3264 43.4693 30.1865C44.2926 29.6432 45.2323 29.2182 45.7559 28.326C45.7966 28.2585 45.8461 28.1656 45.9799 28.1656C45.8286 29.0325 45.369 29.7671 44.8948 30.4764Z" fill="#AA8453"/>
<mask id="path-2-outside-1_2042_807" maskUnits="userSpaceOnUse" x="57" y="6" width="105" height="32" fill="black">
<rect fill="white" x="57" y="6" width="105" height="32"/>
<path d="M79.6608 34.3104C79.6608 33.7216 79.4816 32.9024 79.1232 31.8528C78.7904 30.8032 78.2912 29.3824 77.6256 27.5904H65.9136C65.376 29.1776 64.9664 30.4832 64.6848 31.5072C64.4032 32.5312 64.2624 33.3376 64.2624 33.9264C64.2624 34.6688 64.5056 35.1296 64.992 35.3088C65.4784 35.4624 66.208 35.5392 67.1808 35.5392L67.2576 36H58.6176L58.6944 35.5392C59.36 35.5392 59.936 35.4624 60.4224 35.3088C60.9344 35.1552 61.408 34.8224 61.8432 34.3104C62.2784 33.7984 62.7392 33.0048 63.2256 31.9296C63.712 30.8544 64.2752 29.3824 64.9152 27.5136L68.3328 17.6448C68.8448 16.1856 69.2288 15.0464 69.4848 14.2272C69.7408 13.3824 69.9072 12.7296 69.984 12.2688C70.0864 11.808 70.1376 11.4112 70.1376 11.0784C70.1376 10.4896 69.9584 10.0928 69.6 9.888C69.2416 9.6576 68.5504 9.5424 67.5264 9.5424L67.4496 9.12H73.7856L80.5824 27.5136C81.2736 29.3824 81.8368 30.8544 82.272 31.9296C82.7328 33.0048 83.1552 33.7984 83.5392 34.3104C83.9232 34.8224 84.3328 35.1552 84.768 35.3088C85.2032 35.4624 85.7664 35.5392 86.4576 35.5392L86.5344 36H76.9344L77.0112 35.5392C77.9072 35.5392 78.5728 35.4752 79.008 35.3472C79.4432 35.1936 79.6608 34.848 79.6608 34.3104ZM71.6352 11.1936L66.2208 26.6688H77.3184L71.6352 11.1936ZM99.7257 17.2608C100.315 17.2608 100.865 17.4016 101.377 17.6832C101.889 17.9392 102.145 18.3232 102.145 18.8352C102.145 19.3472 101.979 19.744 101.646 20.0256C101.313 20.2816 100.967 20.4096 100.609 20.4096C100.225 20.4096 99.8921 20.3328 99.6105 20.1792C99.3545 20 99.0601 19.8336 98.7273 19.68C98.4201 19.5008 97.9721 19.4112 97.3833 19.4112C96.6921 19.4112 96.0905 19.8592 95.5785 20.7552C95.0665 21.6256 94.6697 22.7648 94.3881 24.1728C94.1321 25.5808 94.0041 27.0528 94.0041 28.5888C94.0041 30.2016 94.0297 31.4816 94.0809 32.4288C94.1577 33.376 94.2985 34.0672 94.5033 34.5024C94.7081 34.9376 95.0281 35.2192 95.4633 35.3472C95.8985 35.4752 96.5001 35.5392 97.2681 35.5392L97.3449 36H88.0137L88.0905 35.5392C88.8329 35.5392 89.4217 35.4752 89.8569 35.3472C90.2921 35.2192 90.6121 34.9376 90.8169 34.5024C91.0217 34.0672 91.1497 33.376 91.2009 32.4288C91.2777 31.4816 91.3161 30.2016 91.3161 28.5888V26.3616C91.3161 24.4928 91.2777 23.0208 91.2009 21.9456C91.1497 20.8448 90.9961 20.0384 90.7401 19.5264C90.5097 19.0144 90.1385 18.6944 89.6265 18.5664C89.1401 18.4128 88.4617 18.336 87.5913 18.336L87.5145 17.9136C87.5145 17.9136 87.8345 17.8752 88.4745 17.7984C89.1145 17.7216 89.9209 17.6448 90.8937 17.568C91.8921 17.4912 92.9289 17.4528 94.0041 17.4528V23.0976C94.2857 21.28 94.9129 19.8592 95.8857 18.8352C96.8841 17.7856 98.1641 17.2608 99.7257 17.2608ZM110.377 7.7376V29.3184C110.377 30.7264 110.403 31.8528 110.454 32.6976C110.505 33.5168 110.633 34.1312 110.838 34.5408C111.068 34.9504 111.401 35.2192 111.836 35.3472C112.272 35.4752 112.873 35.5392 113.641 35.5392L113.718 36H104.31L104.387 35.5392C105.18 35.5392 105.795 35.4752 106.23 35.3472C106.691 35.2192 107.024 34.9504 107.228 34.5408C107.433 34.1312 107.561 33.5168 107.612 32.6976C107.664 31.8528 107.689 30.7264 107.689 29.3184V14.6496C107.689 13.2672 107.664 12.1664 107.612 11.3472C107.561 10.528 107.433 9.9264 107.228 9.5424C107.024 9.1584 106.691 8.9152 106.23 8.8128C105.795 8.6848 105.18 8.6208 104.387 8.6208L104.31 8.1984C104.31 8.1984 104.592 8.16 105.155 8.0832C105.718 8.0064 106.46 7.9296 107.382 7.8528C108.329 7.776 109.328 7.7376 110.377 7.7376ZM132.69 25.824C132.69 24.2112 132.639 22.9056 132.536 21.9072C132.459 20.9088 132.293 20.1536 132.037 19.6416C131.807 19.104 131.435 18.7456 130.923 18.5664C130.411 18.3872 129.733 18.2976 128.888 18.2976L128.811 17.8752C128.811 17.8752 129.131 17.8368 129.771 17.76C130.437 17.6832 131.269 17.6192 132.267 17.568C133.266 17.4912 134.303 17.4528 135.378 17.4528V27.4752C135.378 29.2928 135.403 30.7008 135.455 31.6992C135.531 32.6976 135.685 33.4016 135.915 33.8112C136.146 34.1952 136.491 34.3872 136.952 34.3872C137.285 34.3872 137.592 34.336 137.874 34.2336C138.155 34.1056 138.424 33.9776 138.68 33.8496L138.872 34.2336C138.872 34.2336 138.603 34.4 138.066 34.7328C137.554 35.04 136.863 35.36 135.992 35.6928C135.122 36.0256 134.149 36.192 133.074 36.192C132.971 35.5264 132.882 34.8224 132.805 34.08C132.728 33.312 132.69 32.3008 132.69 31.0464C132.434 31.8656 132.063 32.6848 131.576 33.504C131.115 34.3232 130.475 35.0144 129.656 35.5776C128.863 36.1152 127.839 36.384 126.584 36.384C124.613 36.384 123.141 35.8592 122.168 34.8096C121.195 33.7344 120.709 32.2112 120.709 30.24V26.5152C120.709 24.6464 120.671 23.1616 120.594 22.0608C120.543 20.96 120.389 20.1408 120.133 19.6032C119.877 19.0656 119.493 18.72 118.981 18.5664C118.495 18.3872 117.803 18.2976 116.907 18.2976L116.831 17.8752C116.831 17.8752 117.151 17.8368 117.791 17.76C118.456 17.6832 119.288 17.6192 120.287 17.568C121.285 17.4912 122.322 17.4528 123.397 17.4528V29.856C123.397 31.4944 123.653 32.8 124.165 33.7728C124.677 34.72 125.637 35.1936 127.045 35.1936C128.12 35.1936 129.016 34.8736 129.733 34.2336C130.45 33.5936 131.026 32.7872 131.461 31.8144C131.896 30.8416 132.203 29.8176 132.383 28.7424C132.587 27.6672 132.69 26.6944 132.69 25.824ZM149.946 23.52L151.214 25.632L152.327 24.0576C153.018 23.1104 153.62 22.1888 154.132 21.2928C154.67 20.3712 154.938 19.7056 154.938 19.296C154.938 18.6304 154.286 18.2976 152.98 18.2976L152.903 17.8368H159.969L159.892 18.2976C159.124 18.2976 158.497 18.3872 158.01 18.5664C157.55 18.72 157.114 19.0272 156.705 19.488C156.295 19.9232 155.809 20.5504 155.246 21.3696C154.682 22.1888 153.94 23.2512 153.018 24.5568L151.674 26.4L154.17 30.5088C155.066 31.9936 155.822 33.0944 156.436 33.8112C157.05 34.528 157.639 35.0016 158.202 35.232C158.766 35.4368 159.393 35.5392 160.084 35.5392L160.161 36H151.098L151.175 35.5392C151.892 35.5392 152.391 35.488 152.673 35.3856C152.98 35.2832 153.134 35.0656 153.134 34.7328C153.134 34.2976 152.954 33.76 152.596 33.12C152.238 32.4544 151.764 31.648 151.175 30.7008L149.793 28.4736L148.871 29.7792C148.18 30.7264 147.566 31.6608 147.028 32.5824C146.516 33.4784 146.26 34.1312 146.26 34.5408C146.26 34.8736 146.388 35.1296 146.644 35.3088C146.9 35.4624 147.374 35.5392 148.065 35.5392L148.142 36H141.038L141.114 35.5392C141.882 35.5392 142.51 35.4624 142.996 35.3088C143.482 35.1296 143.943 34.8224 144.378 34.3872C144.814 33.9264 145.326 33.2864 145.914 32.4672C146.503 31.648 147.258 30.5856 148.18 29.28L149.332 27.6672L146.951 23.712C146.03 22.2016 145.262 21.0624 144.647 20.2944C144.058 19.5008 143.521 18.976 143.034 18.72C142.548 18.4384 141.985 18.2976 141.345 18.2976L141.268 17.8368H149.562L149.486 18.2976C148.82 18.2976 148.334 18.3488 148.026 18.4512C147.745 18.5536 147.604 18.784 147.604 19.1424C147.604 19.2704 147.719 19.5776 147.95 20.064C148.206 20.5248 148.513 21.0624 148.871 21.6768C149.255 22.2912 149.614 22.9056 149.946 23.52Z"/>
</mask>
<path d="M79.6608 34.3104C79.6608 33.7216 79.4816 32.9024 79.1232 31.8528C78.7904 30.8032 78.2912 29.3824 77.6256 27.5904H65.9136C65.376 29.1776 64.9664 30.4832 64.6848 31.5072C64.4032 32.5312 64.2624 33.3376 64.2624 33.9264C64.2624 34.6688 64.5056 35.1296 64.992 35.3088C65.4784 35.4624 66.208 35.5392 67.1808 35.5392L67.2576 36H58.6176L58.6944 35.5392C59.36 35.5392 59.936 35.4624 60.4224 35.3088C60.9344 35.1552 61.408 34.8224 61.8432 34.3104C62.2784 33.7984 62.7392 33.0048 63.2256 31.9296C63.712 30.8544 64.2752 29.3824 64.9152 27.5136L68.3328 17.6448C68.8448 16.1856 69.2288 15.0464 69.4848 14.2272C69.7408 13.3824 69.9072 12.7296 69.984 12.2688C70.0864 11.808 70.1376 11.4112 70.1376 11.0784C70.1376 10.4896 69.9584 10.0928 69.6 9.888C69.2416 9.6576 68.5504 9.5424 67.5264 9.5424L67.4496 9.12H73.7856L80.5824 27.5136C81.2736 29.3824 81.8368 30.8544 82.272 31.9296C82.7328 33.0048 83.1552 33.7984 83.5392 34.3104C83.9232 34.8224 84.3328 35.1552 84.768 35.3088C85.2032 35.4624 85.7664 35.5392 86.4576 35.5392L86.5344 36H76.9344L77.0112 35.5392C77.9072 35.5392 78.5728 35.4752 79.008 35.3472C79.4432 35.1936 79.6608 34.848 79.6608 34.3104ZM71.6352 11.1936L66.2208 26.6688H77.3184L71.6352 11.1936ZM99.7257 17.2608C100.315 17.2608 100.865 17.4016 101.377 17.6832C101.889 17.9392 102.145 18.3232 102.145 18.8352C102.145 19.3472 101.979 19.744 101.646 20.0256C101.313 20.2816 100.967 20.4096 100.609 20.4096C100.225 20.4096 99.8921 20.3328 99.6105 20.1792C99.3545 20 99.0601 19.8336 98.7273 19.68C98.4201 19.5008 97.9721 19.4112 97.3833 19.4112C96.6921 19.4112 96.0905 19.8592 95.5785 20.7552C95.0665 21.6256 94.6697 22.7648 94.3881 24.1728C94.1321 25.5808 94.0041 27.0528 94.0041 28.5888C94.0041 30.2016 94.0297 31.4816 94.0809 32.4288C94.1577 33.376 94.2985 34.0672 94.5033 34.5024C94.7081 34.9376 95.0281 35.2192 95.4633 35.3472C95.8985 35.4752 96.5001 35.5392 97.2681 35.5392L97.3449 36H88.0137L88.0905 35.5392C88.8329 35.5392 89.4217 35.4752 89.8569 35.3472C90.2921 35.2192 90.6121 34.9376 90.8169 34.5024C91.0217 34.0672 91.1497 33.376 91.2009 32.4288C91.2777 31.4816 91.3161 30.2016 91.3161 28.5888V26.3616C91.3161 24.4928 91.2777 23.0208 91.2009 21.9456C91.1497 20.8448 90.9961 20.0384 90.7401 19.5264C90.5097 19.0144 90.1385 18.6944 89.6265 18.5664C89.1401 18.4128 88.4617 18.336 87.5913 18.336L87.5145 17.9136C87.5145 17.9136 87.8345 17.8752 88.4745 17.7984C89.1145 17.7216 89.9209 17.6448 90.8937 17.568C91.8921 17.4912 92.9289 17.4528 94.0041 17.4528V23.0976C94.2857 21.28 94.9129 19.8592 95.8857 18.8352C96.8841 17.7856 98.1641 17.2608 99.7257 17.2608ZM110.377 7.7376V29.3184C110.377 30.7264 110.403 31.8528 110.454 32.6976C110.505 33.5168 110.633 34.1312 110.838 34.5408C111.068 34.9504 111.401 35.2192 111.836 35.3472C112.272 35.4752 112.873 35.5392 113.641 35.5392L113.718 36H104.31L104.387 35.5392C105.18 35.5392 105.795 35.4752 106.23 35.3472C106.691 35.2192 107.024 34.9504 107.228 34.5408C107.433 34.1312 107.561 33.5168 107.612 32.6976C107.664 31.8528 107.689 30.7264 107.689 29.3184V14.6496C107.689 13.2672 107.664 12.1664 107.612 11.3472C107.561 10.528 107.433 9.9264 107.228 9.5424C107.024 9.1584 106.691 8.9152 106.23 8.8128C105.795 8.6848 105.18 8.6208 104.387 8.6208L104.31 8.1984C104.31 8.1984 104.592 8.16 105.155 8.0832C105.718 8.0064 106.46 7.9296 107.382 7.8528C108.329 7.776 109.328 7.7376 110.377 7.7376ZM132.69 25.824C132.69 24.2112 132.639 22.9056 132.536 21.9072C132.459 20.9088 132.293 20.1536 132.037 19.6416C131.807 19.104 131.435 18.7456 130.923 18.5664C130.411 18.3872 129.733 18.2976 128.888 18.2976L128.811 17.8752C128.811 17.8752 129.131 17.8368 129.771 17.76C130.437 17.6832 131.269 17.6192 132.267 17.568C133.266 17.4912 134.303 17.4528 135.378 17.4528V27.4752C135.378 29.2928 135.403 30.7008 135.455 31.6992C135.531 32.6976 135.685 33.4016 135.915 33.8112C136.146 34.1952 136.491 34.3872 136.952 34.3872C137.285 34.3872 137.592 34.336 137.874 34.2336C138.155 34.1056 138.424 33.9776 138.68 33.8496L138.872 34.2336C138.872 34.2336 138.603 34.4 138.066 34.7328C137.554 35.04 136.863 35.36 135.992 35.6928C135.122 36.0256 134.149 36.192 133.074 36.192C132.971 35.5264 132.882 34.8224 132.805 34.08C132.728 33.312 132.69 32.3008 132.69 31.0464C132.434 31.8656 132.063 32.6848 131.576 33.504C131.115 34.3232 130.475 35.0144 129.656 35.5776C128.863 36.1152 127.839 36.384 126.584 36.384C124.613 36.384 123.141 35.8592 122.168 34.8096C121.195 33.7344 120.709 32.2112 120.709 30.24V26.5152C120.709 24.6464 120.671 23.1616 120.594 22.0608C120.543 20.96 120.389 20.1408 120.133 19.6032C119.877 19.0656 119.493 18.72 118.981 18.5664C118.495 18.3872 117.803 18.2976 116.907 18.2976L116.831 17.8752C116.831 17.8752 117.151 17.8368 117.791 17.76C118.456 17.6832 119.288 17.6192 120.287 17.568C121.285 17.4912 122.322 17.4528 123.397 17.4528V29.856C123.397 31.4944 123.653 32.8 124.165 33.7728C124.677 34.72 125.637 35.1936 127.045 35.1936C128.12 35.1936 129.016 34.8736 129.733 34.2336C130.45 33.5936 131.026 32.7872 131.461 31.8144C131.896 30.8416 132.203 29.8176 132.383 28.7424C132.587 27.6672 132.69 26.6944 132.69 25.824ZM149.946 23.52L151.214 25.632L152.327 24.0576C153.018 23.1104 153.62 22.1888 154.132 21.2928C154.67 20.3712 154.938 19.7056 154.938 19.296C154.938 18.6304 154.286 18.2976 152.98 18.2976L152.903 17.8368H159.969L159.892 18.2976C159.124 18.2976 158.497 18.3872 158.01 18.5664C157.55 18.72 157.114 19.0272 156.705 19.488C156.295 19.9232 155.809 20.5504 155.246 21.3696C154.682 22.1888 153.94 23.2512 153.018 24.5568L151.674 26.4L154.17 30.5088C155.066 31.9936 155.822 33.0944 156.436 33.8112C157.05 34.528 157.639 35.0016 158.202 35.232C158.766 35.4368 159.393 35.5392 160.084 35.5392L160.161 36H151.098L151.175 35.5392C151.892 35.5392 152.391 35.488 152.673 35.3856C152.98 35.2832 153.134 35.0656 153.134 34.7328C153.134 34.2976 152.954 33.76 152.596 33.12C152.238 32.4544 151.764 31.648 151.175 30.7008L149.793 28.4736L148.871 29.7792C148.18 30.7264 147.566 31.6608 147.028 32.5824C146.516 33.4784 146.26 34.1312 146.26 34.5408C146.26 34.8736 146.388 35.1296 146.644 35.3088C146.9 35.4624 147.374 35.5392 148.065 35.5392L148.142 36H141.038L141.114 35.5392C141.882 35.5392 142.51 35.4624 142.996 35.3088C143.482 35.1296 143.943 34.8224 144.378 34.3872C144.814 33.9264 145.326 33.2864 145.914 32.4672C146.503 31.648 147.258 30.5856 148.18 29.28L149.332 27.6672L146.951 23.712C146.03 22.2016 145.262 21.0624 144.647 20.2944C144.058 19.5008 143.521 18.976 143.034 18.72C142.548 18.4384 141.985 18.2976 141.345 18.2976L141.268 17.8368H149.562L149.486 18.2976C148.82 18.2976 148.334 18.3488 148.026 18.4512C147.745 18.5536 147.604 18.784 147.604 19.1424C147.604 19.2704 147.719 19.5776 147.95 20.064C148.206 20.5248 148.513 21.0624 148.871 21.6768C149.255 22.2912 149.614 22.9056 149.946 23.52Z" fill="#1C1C1C"/>
<path d="M79.1232 31.8528L78.2653 32.1248L78.2683 32.1343L78.2715 32.1436L79.1232 31.8528ZM77.6256 27.5904L78.4693 27.277L78.2514 26.6904H77.6256V27.5904ZM65.9136 27.5904V26.6904H65.2682L65.0612 27.3017L65.9136 27.5904ZM64.6848 31.5072L65.5526 31.7458L65.5526 31.7458L64.6848 31.5072ZM64.992 35.3088L64.6809 36.1533L64.7008 36.1606L64.721 36.167L64.992 35.3088ZM67.1808 35.5392L68.0686 35.3912L67.9432 34.6392H67.1808V35.5392ZM67.2576 36V36.9H68.32L68.1454 35.852L67.2576 36ZM58.6176 36L57.7298 35.852L57.5552 36.9H58.6176V36ZM58.6944 35.5392V34.6392H57.932L57.8066 35.3912L58.6944 35.5392ZM60.4224 35.3088L60.1638 34.4467L60.1514 34.4506L60.4224 35.3088ZM61.8432 34.3104L61.1575 33.7275L61.1575 33.7275L61.8432 34.3104ZM63.2256 31.9296L62.4056 31.5586L62.4056 31.5586L63.2256 31.9296ZM64.9152 27.5136L64.0647 27.2191L64.0637 27.222L64.9152 27.5136ZM68.3328 17.6448L67.4836 17.3468L67.4824 17.3503L68.3328 17.6448ZM69.4848 14.2272L70.3439 14.4957L70.3461 14.4882L69.4848 14.2272ZM69.984 12.2688L69.1054 12.0736L69.1002 12.0971L69.0962 12.1208L69.984 12.2688ZM69.6 9.888L69.1133 10.6451L69.1331 10.6578L69.1535 10.6694L69.6 9.888ZM67.5264 9.5424L66.6409 9.7034L66.7753 10.4424H67.5264V9.5424ZM67.4496 9.12V8.22H66.3712L66.5641 9.28099L67.4496 9.12ZM73.7856 9.12L74.6298 8.80805L74.4125 8.22H73.7856V9.12ZM80.5824 27.5136L79.7382 27.8256L79.7383 27.8258L80.5824 27.5136ZM82.272 31.9296L81.4378 32.2673L81.4412 32.2757L81.4448 32.2841L82.272 31.9296ZM83.5392 34.3104L84.2592 33.7704L84.2592 33.7704L83.5392 34.3104ZM84.768 35.3088L85.0675 34.4601L85.0675 34.4601L84.768 35.3088ZM86.4576 35.5392L87.3454 35.3912L87.22 34.6392H86.4576V35.5392ZM86.5344 36V36.9H87.5968L87.4222 35.852L86.5344 36ZM76.9344 36L76.0466 35.852L75.872 36.9H76.9344V36ZM77.0112 35.5392V34.6392H76.2488L76.1234 35.3912L77.0112 35.5392ZM79.008 35.3472L79.262 36.2106L79.2849 36.2039L79.3075 36.1959L79.008 35.3472ZM71.6352 11.1936L72.48 10.8833L71.6147 8.52701L70.7857 10.8964L71.6352 11.1936ZM66.2208 26.6688L65.3713 26.3716L64.9524 27.5688H66.2208V26.6688ZM77.3184 26.6688V27.5688H78.6077L78.1632 26.3585L77.3184 26.6688ZM79.6608 34.3104H80.5608C80.5608 33.5703 80.3423 32.6378 79.9749 31.562L79.1232 31.8528L78.2715 32.1436C78.6209 33.167 78.7608 33.8729 78.7608 34.3104H79.6608ZM79.1232 31.8528L79.9811 31.5808C79.6419 30.5108 79.1369 29.0744 78.4693 27.277L77.6256 27.5904L76.7819 27.9038C77.4455 29.6904 77.939 31.0956 78.2653 32.1248L79.1232 31.8528ZM77.6256 27.5904V26.6904H65.9136V27.5904V28.4904H77.6256V27.5904ZM65.9136 27.5904L65.0612 27.3017C64.5208 28.8972 64.1051 30.221 63.817 31.2686L64.6848 31.5072L65.5526 31.7458C65.8277 30.7454 66.2312 29.458 66.766 27.8791L65.9136 27.5904ZM64.6848 31.5072L63.817 31.2686C63.5282 32.3187 63.3624 33.2169 63.3624 33.9264H64.2624H65.1624C65.1624 33.4583 65.2782 32.7437 65.5526 31.7458L64.6848 31.5072ZM64.2624 33.9264H63.3624C63.3624 34.3857 63.4361 34.8458 63.6489 35.2489C63.8735 35.6746 64.228 35.9865 64.6809 36.1533L64.992 35.3088L65.3031 34.4643C65.278 34.455 65.269 34.4473 65.2663 34.445C65.2636 34.4426 65.2541 34.434 65.2407 34.4087C65.2103 34.351 65.1624 34.2095 65.1624 33.9264H64.2624ZM64.992 35.3088L64.721 36.167C65.342 36.3631 66.1835 36.4392 67.1808 36.4392V35.5392V34.6392C66.2325 34.6392 65.6148 34.5617 65.263 34.4506L64.992 35.3088ZM67.1808 35.5392L66.293 35.6872L66.3698 36.148L67.2576 36L68.1454 35.852L68.0686 35.3912L67.1808 35.5392ZM67.2576 36V35.1H58.6176V36V36.9H67.2576V36ZM58.6176 36L59.5054 36.148L59.5822 35.6872L58.6944 35.5392L57.8066 35.3912L57.7298 35.852L58.6176 36ZM58.6944 35.5392V36.4392C59.4256 36.4392 60.0973 36.3553 60.6934 36.167L60.4224 35.3088L60.1514 34.4506C59.7747 34.5695 59.2944 34.6392 58.6944 34.6392V35.5392ZM60.4224 35.3088L60.681 36.1708C61.3974 35.9559 62.0101 35.5037 62.5289 34.8933L61.8432 34.3104L61.1575 33.7275C60.8059 34.1411 60.4714 34.3545 60.1638 34.4468L60.4224 35.3088ZM61.8432 34.3104L62.5289 34.8933C63.0447 34.2865 63.5465 33.4039 64.0456 32.3006L63.2256 31.9296L62.4056 31.5586C61.9319 32.6057 61.5121 33.3103 61.1575 33.7275L61.8432 34.3104ZM63.2256 31.9296L64.0456 32.3006C64.5489 31.188 65.1227 29.6856 65.7667 27.8052L64.9152 27.5136L64.0637 27.222C63.4277 29.0792 62.8751 30.5208 62.4056 31.5586L63.2256 31.9296ZM64.9152 27.5136L65.7656 27.8081L69.1832 17.9393L68.3328 17.6448L67.4824 17.3503L64.0648 27.2191L64.9152 27.5136ZM68.3328 17.6448L69.182 17.9428C69.6952 16.4802 70.0832 15.3296 70.3438 14.4956L69.4848 14.2272L68.6258 13.9588C68.3744 14.7632 67.9944 15.891 67.4836 17.3468L68.3328 17.6448ZM69.4848 14.2272L70.3461 14.4882C70.6054 13.6327 70.7853 12.9357 70.8718 12.4168L69.984 12.2688L69.0962 12.1208C69.0291 12.5235 68.8762 13.132 68.6235 13.9662L69.4848 14.2272ZM69.984 12.2688L70.8626 12.464C70.9738 11.9634 71.0376 11.4978 71.0376 11.0784H70.1376H69.2376C69.2376 11.3246 69.199 11.6526 69.1054 12.0736L69.984 12.2688ZM70.1376 11.0784H71.0376C71.0376 10.3197 70.7968 9.53533 70.0465 9.10658L69.6 9.888L69.1535 10.6694C69.1585 10.6723 69.1669 10.6741 69.183 10.7096C69.2049 10.7582 69.2376 10.8692 69.2376 11.0784H70.1376ZM69.6 9.888L70.0867 9.13094C69.7593 8.92045 69.359 8.80742 68.9608 8.74104C68.5496 8.67251 68.0675 8.6424 67.5264 8.6424V9.5424V10.4424C68.0093 10.4424 68.3848 10.4699 68.6648 10.5166C68.9578 10.5654 69.0824 10.6252 69.1133 10.6451L69.6 9.888ZM67.5264 9.5424L68.4119 9.3814L68.3351 8.959L67.4496 9.12L66.5641 9.28099L66.6409 9.7034L67.5264 9.5424ZM67.4496 9.12V10.02H73.7856V9.12V8.22H67.4496V9.12ZM73.7856 9.12L72.9414 9.43195L79.7382 27.8256L80.5824 27.5136L81.4266 27.2016L74.6298 8.80805L73.7856 9.12ZM80.5824 27.5136L79.7383 27.8258C80.4308 29.698 80.9976 31.1798 81.4378 32.2673L82.272 31.9296L83.1063 31.5919C82.676 30.529 82.1164 29.0668 81.4265 27.2014L80.5824 27.5136ZM82.272 31.9296L81.4448 32.2841C81.9147 33.3805 82.3705 34.2521 82.8192 34.8504L83.5392 34.3104L84.2592 33.7704C83.9399 33.3447 83.5509 32.6291 83.0992 31.5751L82.272 31.9296ZM83.5392 34.3104L82.8192 34.8504C83.27 35.4514 83.8125 35.926 84.4685 36.1575L84.768 35.3088L85.0675 34.4601C84.8531 34.3844 84.5764 34.1934 84.2592 33.7704L83.5392 34.3104ZM84.768 35.3088L84.4685 36.1575C85.0351 36.3575 85.71 36.4392 86.4576 36.4392V35.5392V34.6392C85.8228 34.6392 85.3713 34.5673 85.0675 34.4601L84.768 35.3088ZM86.4576 35.5392L85.5698 35.6872L85.6466 36.148L86.5344 36L87.4222 35.852L87.3454 35.3912L86.4576 35.5392ZM86.5344 36V35.1H76.9344V36V36.9H86.5344V36ZM76.9344 36L77.8222 36.148L77.899 35.6872L77.0112 35.5392L76.1234 35.3912L76.0466 35.852L76.9344 36ZM77.0112 35.5392V36.4392C77.9266 36.4392 78.6984 36.3764 79.262 36.2106L79.008 35.3472L78.7541 34.4838C78.4472 34.574 77.8878 34.6392 77.0112 34.6392V35.5392ZM79.008 35.3472L79.3075 36.1959C79.6901 36.0609 80.0284 35.8189 80.2592 35.4523C80.4828 35.0971 80.5608 34.6963 80.5608 34.3104H79.6608H78.7608C78.7608 34.4621 78.73 34.5029 78.736 34.4933C78.739 34.4885 78.744 34.4833 78.7469 34.4811C78.7488 34.4796 78.7392 34.4877 78.7085 34.4985L79.008 35.3472ZM71.6352 11.1936L70.7857 10.8964L65.3713 26.3716L66.2208 26.6688L67.0703 26.966L72.4847 11.4908L71.6352 11.1936ZM66.2208 26.6688V27.5688H77.3184V26.6688V25.7688H66.2208V26.6688ZM77.3184 26.6688L78.1632 26.3585L72.48 10.8833L71.6352 11.1936L70.7904 11.5039L76.4736 26.9791L77.3184 26.6688ZM101.377 17.6832L100.943 18.4718L100.959 18.4803L100.974 18.4882L101.377 17.6832ZM101.646 20.0256L102.194 20.739L102.211 20.7262L102.227 20.7126L101.646 20.0256ZM99.6105 20.1792L99.0944 20.9165L99.1355 20.9453L99.1795 20.9693L99.6105 20.1792ZM98.7273 19.68L98.2738 20.4574L98.311 20.4791L98.3502 20.4972L98.7273 19.68ZM95.5785 20.7552L96.3543 21.2116L96.3599 21.2017L95.5785 20.7552ZM94.3881 24.1728L93.5056 23.9963L93.504 24.004L93.5026 24.0118L94.3881 24.1728ZM94.0809 32.4288L93.1822 32.4774L93.1829 32.4895L93.1838 32.5015L94.0809 32.4288ZM94.5033 34.5024L93.689 34.8856L93.689 34.8856L94.5033 34.5024ZM95.4633 35.3472L95.7173 34.4838L95.7173 34.4838L95.4633 35.3472ZM97.2681 35.5392L98.1559 35.3912L98.0305 34.6392H97.2681V35.5392ZM97.3449 36V36.9H98.4073L98.2327 35.852L97.3449 36ZM88.0137 36L87.1259 35.852L86.9513 36.9H88.0137V36ZM88.0905 35.5392V34.6392H87.3281L87.2027 35.3912L88.0905 35.5392ZM89.8569 35.3472L90.1109 36.2106L90.1109 36.2106L89.8569 35.3472ZM90.8169 34.5024L91.6312 34.8856L91.6312 34.8856L90.8169 34.5024ZM91.2009 32.4288L90.3038 32.3561L90.3029 32.3681L90.3022 32.3802L91.2009 32.4288ZM91.2009 21.9456L90.3019 21.9874L90.3024 21.9986L90.3032 22.0097L91.2009 21.9456ZM90.7401 19.5264L89.9194 19.8957L89.9269 19.9125L89.9351 19.9289L90.7401 19.5264ZM89.6265 18.5664L89.3555 19.4246L89.3816 19.4329L89.4082 19.4395L89.6265 18.5664ZM87.5913 18.336L86.7058 18.497L86.8402 19.236H87.5913V18.336ZM87.5145 17.9136L87.4073 17.02L86.458 17.1339L86.629 18.0746L87.5145 17.9136ZM88.4745 17.7984L88.3673 16.9048L88.3673 16.9048L88.4745 17.7984ZM90.8937 17.568L90.8247 16.6706L90.8229 16.6708L90.8937 17.568ZM94.0041 17.4528H94.9041V16.5528H94.0041V17.4528ZM94.0041 23.0976H93.1041L94.8935 23.2354L94.0041 23.0976ZM95.8857 18.8352L95.2336 18.2149L95.2332 18.2153L95.8857 18.8352ZM99.7257 17.2608V18.1608C100.164 18.1608 100.565 18.2639 100.943 18.4718L101.377 17.6832L101.811 16.8946C101.165 16.5393 100.465 16.3608 99.7257 16.3608V17.2608ZM101.377 17.6832L100.974 18.4882C101.124 18.5628 101.181 18.6286 101.204 18.6624C101.223 18.6906 101.245 18.7367 101.245 18.8352H102.145H103.045C103.045 18.4217 102.939 18.0198 102.702 17.664C102.468 17.3138 102.142 17.0596 101.779 16.8782L101.377 17.6832ZM102.145 18.8352H101.245C101.245 19.1336 101.159 19.2585 101.064 19.3386L101.646 20.0256L102.227 20.7126C102.798 20.2295 103.045 19.5608 103.045 18.8352H102.145ZM101.646 20.0256L101.097 19.3122C100.893 19.4688 100.736 19.5096 100.609 19.5096V20.4096V21.3096C101.198 21.3096 101.732 21.0944 102.194 20.739L101.646 20.0256ZM100.609 20.4096V19.5096C100.346 19.5096 100.167 19.4576 100.041 19.3891L99.6105 20.1792L99.1795 20.9693C99.6171 21.208 100.104 21.3096 100.609 21.3096V20.4096ZM99.6105 20.1792L100.127 19.4419C99.82 19.2273 99.4778 19.0351 99.1045 18.8628L98.7273 19.68L98.3502 20.4972C98.6424 20.6321 98.889 20.7727 99.0944 20.9165L99.6105 20.1792ZM98.7273 19.68L99.1808 18.9026C98.6733 18.6065 98.0385 18.5112 97.3833 18.5112V19.4112V20.3112C97.9057 20.3112 98.1669 20.3951 98.2738 20.4574L98.7273 19.68ZM97.3833 19.4112V18.5112C96.2265 18.5112 95.3831 19.2831 94.7971 20.3087L95.5785 20.7552L96.3599 21.2017C96.7979 20.4353 97.1577 20.3112 97.3833 20.3112V19.4112ZM95.5785 20.7552L94.8028 20.2989C94.2232 21.2841 93.7993 22.5278 93.5056 23.9963L94.3881 24.1728L95.2706 24.3493C95.5401 23.0018 95.9098 21.9671 96.3542 21.2115L95.5785 20.7552ZM94.3881 24.1728L93.5026 24.0118C93.2363 25.4766 93.1041 27.0027 93.1041 28.5888H94.0041H94.9041C94.9041 27.1029 95.0279 25.685 95.2736 24.3338L94.3881 24.1728ZM94.0041 28.5888H93.1041C93.1041 30.2083 93.1297 31.5067 93.1822 32.4774L94.0809 32.4288L94.9796 32.3802C94.9297 31.4565 94.9041 30.1949 94.9041 28.5888H94.0041ZM94.0809 32.4288L93.1838 32.5015C93.2626 33.4723 93.4124 34.2979 93.689 34.8856L94.5033 34.5024L95.3176 34.1192C95.1846 33.8365 95.0528 33.2797 94.978 32.3561L94.0809 32.4288ZM94.5033 34.5024L93.689 34.8856C93.9959 35.5377 94.5109 36.0052 95.2094 36.2106L95.4633 35.3472L95.7173 34.4838C95.5453 34.4332 95.4204 34.3375 95.3176 34.1192L94.5033 34.5024ZM95.4633 35.3472L95.2094 36.2106C95.7646 36.3739 96.4648 36.4392 97.2681 36.4392V35.5392V34.6392C96.5354 34.6392 96.0324 34.5765 95.7173 34.4838L95.4633 35.3472ZM97.2681 35.5392L96.3803 35.6872L96.4571 36.148L97.3449 36L98.2327 35.852L98.1559 35.3912L97.2681 35.5392ZM97.3449 36V35.1H88.0137V36V36.9H97.3449V36ZM88.0137 36L88.9015 36.148L88.9783 35.6872L88.0905 35.5392L87.2027 35.3912L87.1259 35.852L88.0137 36ZM88.0905 35.5392V36.4392C88.8717 36.4392 89.5576 36.3733 90.1109 36.2106L89.8569 35.3472L89.603 34.4838C89.2858 34.5771 88.7942 34.6392 88.0905 34.6392V35.5392ZM89.8569 35.3472L90.1109 36.2106C90.8093 36.0052 91.3244 35.5377 91.6312 34.8856L90.8169 34.5024L90.0026 34.1192C89.8999 34.3375 89.7749 34.4332 89.603 34.4838L89.8569 35.3472ZM90.8169 34.5024L91.6312 34.8856C91.9133 34.2863 92.047 33.4499 92.0996 32.4774L91.2009 32.4288L90.3022 32.3802C90.2524 33.3021 90.1301 33.8481 90.0026 34.1192L90.8169 34.5024ZM91.2009 32.4288L92.098 32.5015C92.1776 31.5192 92.2161 30.2117 92.2161 28.5888H91.3161H90.4161C90.4161 30.1915 90.3778 31.444 90.3038 32.3561L91.2009 32.4288ZM91.3161 28.5888H92.2161V26.3616H91.3161H90.4161V28.5888H91.3161ZM91.3161 26.3616H92.2161C92.2161 24.4844 92.1776 22.9879 92.0986 21.8815L91.2009 21.9456L90.3032 22.0097C90.3778 23.0537 90.4161 24.5012 90.4161 26.3616H91.3161ZM91.2009 21.9456L92.0999 21.9038C92.0473 20.7723 91.8881 19.81 91.5451 19.1239L90.7401 19.5264L89.9351 19.9289C90.1041 20.2668 90.2521 20.9173 90.3019 21.9874L91.2009 21.9456ZM90.7401 19.5264L91.5608 19.1571C91.2257 18.4123 90.6432 17.8929 89.8448 17.6933L89.6265 18.5664L89.4082 19.4395C89.6338 19.4959 89.7937 19.6165 89.9194 19.8957L90.7401 19.5264ZM89.6265 18.5664L89.8975 17.7082C89.283 17.5141 88.4985 17.436 87.5913 17.436V18.336V19.236C88.4249 19.236 88.9972 19.3115 89.3555 19.4246L89.6265 18.5664ZM87.5913 18.336L88.4768 18.175L88.4 17.7526L87.5145 17.9136L86.629 18.0746L86.7058 18.497L87.5913 18.336ZM87.5145 17.9136C87.6217 18.8072 87.6217 18.8072 87.6217 18.8072C87.6217 18.8072 87.6217 18.8072 87.6217 18.8072C87.6218 18.8072 87.6218 18.8072 87.6218 18.8072C87.6219 18.8072 87.6218 18.8072 87.622 18.8072C87.6822 18.7999 87.5622 18.8143 87.6227 18.8071C87.6234 18.807 87.623 18.807 87.6238 18.8069C87.624 18.8069 87.6244 18.8069 87.6246 18.8068C87.6253 18.8068 87.6243 18.8069 87.625 18.8068C87.6252 18.8068 87.6253 18.8068 87.6255 18.8067C87.6288 18.8063 87.6309 18.8061 87.6367 18.8054C87.6406 18.8049 87.6679 18.8016 87.6817 18.8C87.7221 18.7951 87.7063 18.797 87.7567 18.791C87.8041 18.7853 87.7322 18.7939 87.7802 18.7882C87.7997 18.7858 87.7729 18.789 87.7926 18.7867C87.7954 18.7863 87.8025 18.7855 87.8055 18.7851C87.8329 18.7818 87.8318 18.782 87.8617 18.7784C87.8729 18.777 87.9756 18.7647 87.9967 18.7622C88.0066 18.761 88.1419 18.7448 88.1617 18.7424C88.2159 18.7359 88.2926 18.7267 88.3567 18.719C88.3615 18.7184 88.567 18.6938 88.5817 18.692L88.4745 17.7984L88.3673 16.9048C88.3494 16.907 88.3254 16.9098 88.3082 16.9119C88.3003 16.9128 88.3016 16.9127 88.2937 16.9136C88.2841 16.9148 88.2962 16.9133 88.2865 16.9145C88.2853 16.9146 88.2842 16.9148 88.283 16.9149C88.2818 16.9151 88.2806 16.9152 88.2794 16.9154C88.2586 16.9179 88.2859 16.9146 88.2651 16.9171C88.264 16.9172 88.2628 16.9173 88.2616 16.9175C88.2604 16.9176 88.2592 16.9178 88.2581 16.9179C88.2569 16.9181 88.2557 16.9182 88.2545 16.9183C88.2534 16.9185 88.2522 16.9186 88.251 16.9188C88.2392 16.9202 88.2559 16.9182 88.244 16.9196C88.2406 16.92 88.2404 16.92 88.237 16.9204C88.2212 16.9223 88.2389 16.9202 88.2231 16.9221C88.222 16.9222 88.2208 16.9224 88.2197 16.9225C88.2185 16.9227 88.2174 16.9228 88.2162 16.9229C88.2045 16.9243 88.2211 16.9223 88.2094 16.9238C88.2012 16.9247 88.2107 16.9236 88.2025 16.9246C88.2014 16.9247 88.2002 16.9249 88.1991 16.925C88.198 16.9251 88.1968 16.9253 88.1957 16.9254C88.157 16.93 88.1804 16.9272 88.1423 16.9318C88.1125 16.9354 88.0683 16.9407 88.041 16.944C88.0342 16.9448 87.9994 16.949 87.9932 16.9497C87.9601 16.9537 88.0146 16.9471 87.9815 16.9511C87.9742 16.952 87.9773 16.9516 87.97 16.9525C87.9568 16.9541 87.9717 16.9523 87.9586 16.9539C87.951 16.9548 87.9604 16.9536 87.9529 16.9545C87.952 16.9546 87.951 16.9548 87.9501 16.9549C87.9491 16.955 87.9482 16.9551 87.9473 16.9552C87.9328 16.9569 87.873 16.9641 87.861 16.9656C87.8401 16.9681 87.8007 16.9728 87.7823 16.975C87.7663 16.9769 87.761 16.9776 87.7457 16.9794C87.7357 16.9806 87.7204 16.9824 87.711 16.9836C87.6773 16.9876 87.6785 16.9875 87.6473 16.9912C87.5815 16.9991 87.5981 16.9971 87.5423 17.0038C87.4843 17.0108 87.5781 16.9995 87.5207 17.0064C87.5115 17.0075 87.5197 17.0065 87.5106 17.0076C87.4732 17.0121 87.5383 17.0043 87.501 17.0088C87.4929 17.0097 87.4729 17.0121 87.4673 17.0128C87.4548 17.0143 87.465 17.0131 87.4532 17.0145C87.4429 17.0157 87.4507 17.0148 87.441 17.016C87.4375 17.0164 87.4233 17.0181 87.4223 17.0182C87.4181 17.0187 87.4127 17.0194 87.411 17.0196C87.4084 17.0199 87.4102 17.0197 87.4082 17.0199C87.4078 17.02 87.4082 17.0199 87.4078 17.0199C87.4076 17.02 87.4077 17.02 87.4075 17.02C87.4074 17.02 87.4074 17.02 87.4073 17.02C87.4073 17.02 87.4073 17.02 87.4073 17.02C87.4073 17.02 87.4073 17.02 87.4073 17.02C87.4073 17.02 87.4073 17.02 87.5145 17.9136ZM88.4745 17.7984L88.5817 18.692C89.2052 18.6172 89.9984 18.5415 90.9645 18.4652L90.8937 17.568L90.8229 16.6708C89.8434 16.7481 89.0238 16.826 88.3673 16.9048L88.4745 17.7984ZM90.8937 17.568L90.9627 18.4653C91.9366 18.3904 92.9503 18.3528 94.0041 18.3528V17.4528V16.5528C92.9075 16.5528 91.8476 16.592 90.8247 16.6706L90.8937 17.568ZM94.0041 17.4528H93.1041V23.0976H94.0041H94.9041V17.4528H94.0041ZM94.0041 23.0976L94.8935 23.2354C95.1555 21.5446 95.7248 20.3113 96.5382 19.4551L95.8857 18.8352L95.2332 18.2153C94.101 19.4071 93.416 21.0154 93.1147 22.9598L94.0041 23.0976ZM95.8857 18.8352L96.5378 19.4555C97.3521 18.5994 98.3892 18.1608 99.7257 18.1608V17.2608V16.3608C97.939 16.3608 96.4161 16.9718 95.2336 18.2149L95.8857 18.8352ZM110.377 7.7376H111.277V6.8376H110.377V7.7376ZM110.454 32.6976L109.556 32.752L109.556 32.7537L110.454 32.6976ZM110.838 34.5408L110.033 34.9433L110.043 34.9629L110.054 34.982L110.838 34.5408ZM111.836 35.3472L112.09 34.4838L112.09 34.4838L111.836 35.3472ZM113.641 35.5392L114.529 35.3912L114.404 34.6392H113.641V35.5392ZM113.718 36V36.9H114.78L114.606 35.852L113.718 36ZM104.31 36L103.422 35.852L103.248 36.9H104.31V36ZM104.387 35.5392V34.6392H103.624L103.499 35.3912L104.387 35.5392ZM106.23 35.3472L105.989 34.4799L105.976 34.4838L106.23 35.3472ZM107.228 34.5408L106.423 34.1383L106.423 34.1383L107.228 34.5408ZM107.612 32.6976L108.511 32.7537L108.511 32.752L107.612 32.6976ZM107.612 11.3472L108.511 11.2911L108.511 11.2911L107.612 11.3472ZM107.228 9.5424L106.434 9.96593L106.434 9.96593L107.228 9.5424ZM106.23 8.8128L105.976 9.67623L106.005 9.68479L106.035 9.69137L106.23 8.8128ZM104.387 8.6208L103.501 8.78179L103.636 9.5208H104.387V8.6208ZM104.31 8.1984L104.188 7.30665L103.256 7.43377L103.425 8.35939L104.31 8.1984ZM105.155 8.0832L105.033 7.19145L105.033 7.19145L105.155 8.0832ZM107.382 7.8528L107.309 6.95574L107.307 6.95591L107.382 7.8528ZM110.377 7.7376H109.477V29.3184H110.377H111.277V7.7376H110.377ZM110.377 29.3184H109.477C109.477 30.7344 109.503 31.8812 109.556 32.752L110.454 32.6976L111.352 32.6432C111.303 31.8244 111.277 30.7184 111.277 29.3184H110.377ZM110.454 32.6976L109.556 32.7537C109.609 33.6131 109.747 34.3715 110.033 34.9433L110.838 34.5408L111.643 34.1383C111.519 33.8909 111.401 33.4205 111.352 32.6415L110.454 32.6976ZM110.838 34.5408L110.054 34.982C110.394 35.5879 110.913 36.0138 111.582 36.2106L111.836 35.3472L112.09 34.4838C111.889 34.4246 111.742 34.3129 111.622 34.0996L110.838 34.5408ZM111.836 35.3472L111.582 36.2106C112.138 36.3739 112.838 36.4392 113.641 36.4392V35.5392V34.6392C112.908 34.6392 112.406 34.5765 112.09 34.4838L111.836 35.3472ZM113.641 35.5392L112.753 35.6872L112.83 36.148L113.718 36L114.606 35.852L114.529 35.3912L113.641 35.5392ZM113.718 36V35.1H104.31V36V36.9H113.718V36ZM104.31 36L105.198 36.148L105.275 35.6872L104.387 35.5392L103.499 35.3912L103.422 35.852L104.31 36ZM104.387 35.5392V36.4392C105.212 36.4392 105.927 36.3745 106.484 36.2106L106.23 35.3472L105.976 34.4838C105.663 34.5759 105.148 34.6392 104.387 34.6392V35.5392ZM106.23 35.3472L106.471 36.2144C107.165 36.0217 107.709 35.5918 108.033 34.9433L107.228 34.5408L106.423 34.1383C106.338 34.309 106.217 34.4167 105.989 34.48L106.23 35.3472ZM107.228 34.5408L108.033 34.9433C108.319 34.3715 108.457 33.6131 108.511 32.7537L107.612 32.6976L106.714 32.6415C106.665 33.4205 106.547 33.8909 106.423 34.1383L107.228 34.5408ZM107.612 32.6976L108.511 32.752C108.564 31.8812 108.589 30.7344 108.589 29.3184H107.689H106.789C106.789 30.7184 106.764 31.8244 106.714 32.6432L107.612 32.6976ZM107.689 29.3184H108.589V14.6496H107.689H106.789V29.3184H107.689ZM107.689 14.6496H108.589C108.589 13.2592 108.564 12.1373 108.511 11.2911L107.612 11.3472L106.714 11.4033C106.764 12.1955 106.789 13.2752 106.789 14.6496H107.689ZM107.612 11.3472L108.511 11.2911C108.457 10.4374 108.32 9.67748 108.023 9.11887L107.228 9.5424L106.434 9.96593C106.546 10.1753 106.665 10.6186 106.714 11.4033L107.612 11.3472ZM107.228 9.5424L108.023 9.11887C107.683 8.48172 107.118 8.08816 106.425 7.93423L106.23 8.8128L106.035 9.69137C106.264 9.74223 106.364 9.83507 106.434 9.96593L107.228 9.5424ZM106.23 8.8128L106.484 7.94937C105.927 7.78552 105.212 7.7208 104.387 7.7208V8.6208V9.5208C105.148 9.5208 105.663 9.58407 105.976 9.67623L106.23 8.8128ZM104.387 8.6208L105.272 8.4598L105.195 8.0374L104.31 8.1984L103.425 8.35939L103.501 8.78179L104.387 8.6208ZM104.31 8.1984C104.432 9.09014 104.432 9.09014 104.432 9.09014C104.432 9.09014 104.432 9.09014 104.432 9.09014C104.432 9.09014 104.432 9.09014 104.432 9.09014C104.432 9.09012 104.432 9.09014 104.432 9.09012C104.432 9.09011 104.432 9.09009 104.432 9.09008C104.432 9.09006 104.432 9.09006 104.432 9.09003C104.434 9.0898 104.431 9.0902 104.433 9.08997C104.433 9.08995 104.433 9.08995 104.433 9.08993C104.434 9.08988 104.433 9.08994 104.433 9.08989C104.434 9.08987 104.434 9.08983 104.434 9.0898C104.435 9.08975 104.434 9.0898 104.435 9.08975C104.435 9.08974 104.435 9.08973 104.435 9.08972C104.435 9.08971 104.435 9.0897 104.435 9.08969C104.44 9.08895 104.437 9.08939 104.445 9.08834C104.465 9.08557 104.439 9.08917 104.461 9.08609C104.492 9.08186 104.451 9.08748 104.484 9.08294C104.492 9.08198 104.491 9.08207 104.498 9.08103C104.51 9.07939 104.49 9.08217 104.502 9.08052C104.505 9.08017 104.503 9.08034 104.506 9.07999C104.513 9.07908 104.507 9.07982 104.514 9.07889C104.548 9.07432 104.515 9.07881 104.55 9.07394C104.573 9.07087 104.611 9.06562 104.643 9.06134C104.725 9.05017 104.79 9.04132 104.907 9.02534C104.95 9.01945 104.944 9.02029 104.989 9.01409C104.994 9.01346 105.072 9.00287 105.078 9.00194C105.089 9.00052 105.074 9.00258 105.084 9.00115C105.085 9.00102 105.086 9.00089 105.087 9.00076C105.088 9.00063 105.089 9.00049 105.09 9.00036C105.104 8.99842 105.087 9.00072 105.102 8.99877C105.103 8.99863 105.104 8.9985 105.105 8.99836C105.106 8.99823 105.107 8.9981 105.108 8.99796C105.109 8.99783 105.11 8.99769 105.111 8.99756C105.112 8.99742 105.113 8.99729 105.114 8.99716C105.132 8.99457 105.1 8.99893 105.119 8.99635C105.12 8.99621 105.121 8.99607 105.122 8.99594C105.123 8.9958 105.124 8.99567 105.125 8.99553C105.128 8.99515 105.129 8.99509 105.131 8.99471C105.137 8.994 105.132 8.99461 105.137 8.99389C105.162 8.99056 105.125 8.99558 105.15 8.99224C105.161 8.9907 105.15 8.99212 105.162 8.99057C105.173 8.98903 105.163 8.99045 105.174 8.98889C105.191 8.98659 105.207 8.98441 105.224 8.98203C105.27 8.97587 105.231 8.98118 105.276 8.97494L105.155 8.0832L105.033 7.19145C104.908 7.20855 104.952 7.20255 104.835 7.21845C104.828 7.21946 104.831 7.21901 104.824 7.22002C104.778 7.22621 104.858 7.21538 104.812 7.22157C104.811 7.2217 104.81 7.22183 104.809 7.22196C104.809 7.22209 104.808 7.22222 104.807 7.22234C104.8 7.22321 104.807 7.22225 104.801 7.22311C104.796 7.22383 104.801 7.22315 104.795 7.22388C104.794 7.224 104.794 7.22413 104.793 7.22426C104.792 7.22438 104.791 7.22451 104.79 7.22464C104.773 7.2269 104.762 7.22841 104.746 7.2306C104.675 7.24035 104.733 7.2324 104.664 7.24185C104.655 7.24305 104.594 7.2513 104.588 7.2522C104.504 7.2636 104.6 7.25055 104.518 7.26165C104.453 7.27051 104.519 7.26164 104.456 7.2702C104.404 7.27719 104.449 7.27116 104.4 7.27785C104.334 7.28681 104.272 7.29529 104.241 7.29945C104.218 7.30267 104.216 7.30283 104.202 7.30485C104.195 7.30582 104.197 7.30554 104.192 7.3062C104.189 7.30656 104.191 7.30626 104.189 7.30654C104.189 7.30655 104.189 7.30655 104.189 7.30656C104.189 7.30657 104.189 7.30658 104.189 7.30659C104.189 7.30663 104.189 7.30659 104.189 7.30662C104.189 7.30662 104.189 7.30663 104.189 7.30663C104.189 7.30663 104.189 7.30663 104.189 7.30663C104.188 7.30664 104.188 7.30664 104.188 7.30664C104.188 7.30665 104.188 7.30665 104.188 7.30665C104.188 7.30665 104.188 7.30665 104.188 7.30665C104.188 7.30665 104.188 7.30665 104.31 8.1984ZM105.155 8.0832L105.276 8.97494C105.817 8.90116 106.542 8.82588 107.457 8.74969L107.382 7.8528L107.307 6.95591C106.378 7.03331 105.619 7.11163 105.033 7.19145L105.155 8.0832ZM107.382 7.8528L107.455 8.74985C108.375 8.6752 109.349 8.6376 110.377 8.6376V7.7376V6.8376C109.306 6.8376 108.283 6.87679 107.309 6.95574L107.382 7.8528ZM132.536 21.9072L131.639 21.9762L131.64 21.9876L131.641 21.999L132.536 21.9072ZM132.037 19.6416L131.21 19.9961L131.22 20.0204L131.232 20.0441L132.037 19.6416ZM130.923 18.5664L131.221 17.7169L131.221 17.7169L130.923 18.5664ZM128.888 18.2976L128.003 18.4586L128.137 19.1976H128.888V18.2976ZM128.811 17.8752L128.704 16.9816L127.755 17.0955L127.926 18.0362L128.811 17.8752ZM129.771 17.76L129.668 16.8659L129.664 16.8664L129.771 17.76ZM132.267 17.568L132.313 18.4668L132.325 18.4662L132.336 18.4653L132.267 17.568ZM135.378 17.4528H136.278V16.5528H135.378V17.4528ZM135.455 31.6992L134.556 31.7453L134.556 31.7568L134.557 31.7682L135.455 31.6992ZM135.915 33.8112L135.131 34.2524L135.137 34.2634L135.144 34.2742L135.915 33.8112ZM137.874 34.2336L138.181 35.0794L138.214 35.0674L138.246 35.0529L137.874 34.2336ZM138.68 33.8496L139.485 33.4471L139.083 32.6421L138.278 33.0446L138.68 33.8496ZM138.872 34.2336L139.346 34.9988L140.045 34.5662L139.677 33.8311L138.872 34.2336ZM138.066 34.7328L138.529 35.5046L138.539 35.498L138.066 34.7328ZM135.992 35.6928L136.314 36.5334L136.314 36.5334L135.992 35.6928ZM133.074 36.192L132.184 36.3289L132.302 37.092H133.074V36.192ZM132.805 34.08L131.909 34.1696L131.91 34.1726L132.805 34.08ZM132.69 31.0464H133.59L131.831 30.778L132.69 31.0464ZM131.576 33.504L130.802 33.0445L130.797 33.0536L130.792 33.0628L131.576 33.504ZM129.656 35.5776L130.161 36.3227L130.166 36.3192L129.656 35.5776ZM122.168 34.8096L121.501 35.4135L121.508 35.4214L122.168 34.8096ZM120.594 22.0608L119.695 22.1026L119.695 22.113L119.696 22.1234L120.594 22.0608ZM120.133 19.6032L120.945 19.2163L120.945 19.2163L120.133 19.6032ZM118.981 18.5664L118.67 19.4109L118.696 19.4205L118.722 19.4284L118.981 18.5664ZM116.907 18.2976L116.022 18.4586L116.156 19.1976H116.907V18.2976ZM116.831 17.8752L116.723 16.9816L115.774 17.0955L115.945 18.0362L116.831 17.8752ZM117.791 17.76L117.687 16.8659L117.683 16.8664L117.791 17.76ZM120.287 17.568L120.333 18.4668L120.344 18.4662L120.356 18.4653L120.287 17.568ZM123.397 17.4528H124.297V16.5528H123.397V17.4528ZM124.165 33.7728L123.368 34.192L123.373 34.2008L124.165 33.7728ZM129.733 34.2336L129.133 33.5623L129.133 33.5623L129.733 34.2336ZM131.461 31.8144L132.282 32.1819L132.282 32.1819L131.461 31.8144ZM132.383 28.7424L131.498 28.574L131.496 28.5842L131.495 28.5944L132.383 28.7424ZM132.69 25.824H133.59C133.59 24.1965 133.538 22.8569 133.431 21.8154L132.536 21.9072L131.641 21.999C131.739 22.9543 131.79 24.2259 131.79 25.824H132.69ZM132.536 21.9072L133.433 21.8382C133.353 20.7975 133.175 19.9056 132.842 19.2391L132.037 19.6416L131.232 20.0441C131.411 20.4016 131.565 21.0201 131.639 21.9762L132.536 21.9072ZM132.037 19.6416L132.864 19.2871C132.543 18.5378 131.991 17.9865 131.221 17.7169L130.923 18.5664L130.626 19.4159C130.88 19.5047 131.07 19.6702 131.21 19.9961L132.037 19.6416ZM130.923 18.5664L131.221 17.7169C130.575 17.491 129.784 17.3976 128.888 17.3976V18.2976V19.1976C129.682 19.1976 130.247 19.2834 130.626 19.4159L130.923 18.5664ZM128.888 18.2976L129.774 18.1366L129.697 17.7142L128.811 17.8752L127.926 18.0362L128.003 18.4586L128.888 18.2976ZM128.811 17.8752C128.919 18.7688 128.919 18.7688 128.919 18.7688C128.919 18.7688 128.919 18.7688 128.919 18.7688C128.919 18.7688 128.919 18.7688 128.919 18.7688C128.919 18.7688 128.919 18.7688 128.919 18.7688C128.919 18.7688 128.919 18.7688 128.919 18.7688C128.919 18.7688 128.919 18.7688 128.919 18.7688C128.919 18.7687 128.919 18.7688 128.919 18.7687C128.919 18.7687 128.919 18.7687 128.919 18.7687C128.919 18.7687 128.919 18.7687 128.919 18.7687C128.924 18.7681 128.914 18.7693 128.919 18.7687C128.919 18.7687 128.92 18.7686 128.921 18.7685C128.921 18.7685 128.922 18.7684 128.922 18.7683C128.925 18.768 128.923 18.7682 128.927 18.7678C128.94 18.7662 128.92 18.7686 128.934 18.767C128.945 18.7656 128.93 18.7674 128.942 18.766C128.946 18.7655 128.947 18.7653 128.952 18.7647C128.957 18.7642 128.96 18.7639 128.964 18.7633C128.997 18.7594 128.946 18.7655 128.979 18.7616C128.998 18.7592 128.974 18.7621 128.994 18.7597C128.997 18.7594 129.009 18.7579 129.012 18.7575C129.014 18.7574 129.02 18.7566 129.022 18.7564C129.026 18.7559 129.027 18.7557 129.032 18.7552C129.035 18.7549 129.04 18.7542 129.043 18.7539C129.044 18.7537 129.044 18.7538 129.045 18.7536C129.046 18.7535 129.046 18.7535 129.047 18.7534C129.047 18.7534 129.048 18.7533 129.048 18.7533C129.054 18.7525 129.047 18.7533 129.054 18.7526C129.098 18.7472 129.104 18.7465 129.159 18.74C129.171 18.7385 129.177 18.7378 129.189 18.7363C129.209 18.7339 129.202 18.7348 129.222 18.7323C129.227 18.7318 129.252 18.7288 129.257 18.7282C129.272 18.7264 129.26 18.7278 129.275 18.726C129.278 18.7256 129.29 18.7242 129.294 18.7238C129.294 18.7237 129.298 18.7233 129.298 18.7232C129.303 18.7227 129.298 18.7232 129.303 18.7227C129.304 18.7226 129.305 18.7225 129.305 18.7224C129.306 18.7223 129.307 18.7222 129.308 18.7221C129.312 18.7216 129.309 18.722 129.313 18.7215C129.323 18.7203 129.312 18.7216 129.322 18.7203C129.329 18.7195 129.32 18.7206 129.327 18.7198C129.331 18.7193 129.328 18.7197 129.332 18.7192C129.334 18.7189 129.334 18.7189 129.337 18.7186C129.348 18.7172 129.33 18.7194 129.342 18.718C129.344 18.7177 129.349 18.7171 129.352 18.7168C129.394 18.7118 129.33 18.7194 129.372 18.7143C129.424 18.7081 129.331 18.7193 129.383 18.7131C129.384 18.713 129.384 18.7129 129.385 18.7128C129.386 18.7127 129.387 18.7126 129.388 18.7125C129.392 18.7119 129.389 18.7124 129.393 18.7118C129.395 18.7117 129.413 18.7095 129.414 18.7093C129.416 18.7091 129.435 18.7068 129.436 18.7067C129.465 18.7033 129.43 18.7074 129.459 18.704C129.467 18.703 129.496 18.6995 129.504 18.6985C129.562 18.6916 129.494 18.6997 129.552 18.6927C129.558 18.692 129.595 18.6876 129.602 18.6868C129.603 18.6867 129.608 18.6861 129.608 18.686C129.616 18.6851 129.607 18.6861 129.615 18.6852C129.616 18.6851 129.617 18.685 129.618 18.6849C129.619 18.6847 129.62 18.6846 129.621 18.6845C129.622 18.6844 129.623 18.6842 129.624 18.6841C129.625 18.684 129.626 18.6838 129.628 18.6837C129.652 18.6807 129.629 18.6836 129.654 18.6806C129.687 18.6766 129.673 18.6782 129.707 18.6742C129.722 18.6724 129.747 18.6694 129.762 18.6675C129.773 18.6663 129.766 18.6671 129.776 18.6658C129.787 18.6646 129.78 18.6654 129.791 18.6641C129.792 18.664 129.797 18.6634 129.798 18.6633C129.802 18.6628 129.801 18.6629 129.805 18.6624C129.808 18.6621 129.81 18.6618 129.812 18.6615C129.817 18.661 129.815 18.6612 129.819 18.6607C129.83 18.6594 129.867 18.655 129.879 18.6536L129.771 17.76L129.664 16.8664C129.446 16.8926 129.422 16.8955 129.244 16.9168C129.16 16.9269 129.239 16.9174 129.158 16.9272C129.127 16.9309 129.148 16.9283 129.118 16.932C129.116 16.9321 129.099 16.9342 129.098 16.9343C129.097 16.9345 129.095 16.9347 129.093 16.9349C129.092 16.9351 129.09 16.9353 129.089 16.9355C129.075 16.9371 129.092 16.935 129.079 16.9366C129.078 16.9367 129.07 16.9376 129.07 16.9377C129.069 16.9378 129.066 16.9382 129.065 16.9383C129.061 16.9388 129.065 16.9383 129.061 16.9388C129.059 16.9391 129.044 16.9408 129.043 16.941C129.031 16.9424 129.018 16.9439 129.008 16.9452C128.992 16.9471 128.991 16.9472 128.975 16.9491C128.973 16.9493 128.961 16.9508 128.959 16.951C128.959 16.9511 128.956 16.9514 128.955 16.9514C128.948 16.9524 128.959 16.951 128.952 16.9519C128.947 16.9525 128.953 16.9518 128.948 16.9524C128.946 16.9526 128.946 16.9526 128.944 16.9528C128.802 16.9699 128.866 16.9622 128.764 16.9744C128.747 16.9764 128.777 16.9728 128.76 16.9749C128.745 16.9767 128.772 16.9735 128.757 16.9753C128.751 16.976 128.756 16.9754 128.75 16.9761C128.747 16.9765 128.741 16.9772 128.738 16.9776C128.728 16.9787 128.726 16.9789 128.719 16.9798C128.718 16.9799 128.713 16.9806 128.713 16.9806C128.702 16.9819 128.718 16.9799 128.708 16.9812C128.706 16.9814 128.706 16.9813 128.705 16.9815C128.698 16.9823 128.711 16.9807 128.705 16.9815C128.699 16.9823 128.71 16.9809 128.704 16.9816C128.704 16.9816 128.704 16.9816 128.704 16.9816C128.704 16.9816 128.704 16.9816 128.704 16.9816C128.704 16.9816 128.704 16.9816 128.704 16.9816C128.704 16.9816 128.704 16.9816 128.704 16.9816C128.704 16.9816 128.704 16.9816 128.811 17.8752ZM129.771 17.76L129.874 18.6541C130.514 18.5802 131.326 18.5175 132.313 18.4668L132.267 17.568L132.221 16.6692C131.212 16.7209 130.359 16.7862 129.668 16.8659L129.771 17.76ZM132.267 17.568L132.336 18.4653C133.31 18.3904 134.324 18.3528 135.378 18.3528V17.4528V16.5528C134.281 16.5528 133.221 16.592 132.198 16.6706L132.267 17.568ZM135.378 17.4528H134.478V27.4752H135.378H136.278V17.4528H135.378ZM135.378 27.4752H134.478C134.478 29.2979 134.503 30.7239 134.556 31.7453L135.455 31.6992L136.353 31.6531C136.303 30.6777 136.278 29.2877 136.278 27.4752H135.378ZM135.455 31.6992L134.557 31.7682C134.635 32.7822 134.797 33.6585 135.131 34.2524L135.915 33.8112L136.7 33.37C136.573 33.1447 136.427 32.613 136.352 31.6302L135.455 31.6992ZM135.915 33.8112L135.144 34.2742C135.542 34.9388 136.186 35.2872 136.952 35.2872V34.3872V33.4872C136.849 33.4872 136.803 33.4667 136.784 33.4565C136.767 33.4469 136.732 33.4231 136.687 33.3482L135.915 33.8112ZM136.952 34.3872V35.2872C137.378 35.2872 137.791 35.2214 138.181 35.0794L137.874 34.2336L137.566 33.3878C137.393 33.4506 137.192 33.4872 136.952 33.4872V34.3872ZM137.874 34.2336L138.246 35.0529C138.537 34.9207 138.816 34.7879 139.083 34.6546L138.68 33.8496L138.278 33.0446C138.032 33.1673 137.774 33.2905 137.501 33.4143L137.874 34.2336ZM138.68 33.8496L137.875 34.2521L138.067 34.6361L138.872 34.2336L139.677 33.8311L139.485 33.4471L138.68 33.8496ZM138.872 34.2336C138.398 33.4684 138.398 33.4684 138.398 33.4684C138.398 33.4684 138.398 33.4684 138.398 33.4684C138.398 33.4684 138.398 33.4684 138.398 33.4684C138.398 33.4684 138.398 33.4684 138.398 33.4684C138.398 33.4684 138.398 33.4685 138.398 33.4685C138.398 33.4685 138.398 33.4685 138.398 33.4686C138.398 33.4686 138.398 33.4686 138.398 33.4686C138.398 33.4687 138.398 33.4687 138.398 33.4687C138.398 33.4688 138.398 33.4688 138.398 33.4688C138.398 33.4688 138.398 33.4688 138.398 33.4688C138.395 33.4706 138.399 33.4683 138.395 33.4703C138.376 33.4823 138.407 33.4629 138.386 33.4762C138.36 33.4921 138.382 33.4784 138.348 33.4996C138.341 33.5039 138.237 33.568 138.197 33.5932C138.003 33.7131 137.92 33.7644 137.592 33.9676L138.066 34.7328L138.539 35.498C138.544 35.4953 138.541 35.4968 138.546 35.4941C138.547 35.4935 138.548 35.4929 138.549 35.4922C138.55 35.4916 138.551 35.4909 138.552 35.4903C138.553 35.4896 138.554 35.489 138.555 35.4883C138.556 35.4877 138.557 35.487 138.558 35.4864C138.559 35.4858 138.56 35.4851 138.561 35.4845C138.562 35.4838 138.563 35.4832 138.564 35.4826C138.623 35.4466 138.531 35.5032 138.589 35.4673C138.594 35.4645 138.591 35.4663 138.595 35.4636C138.6 35.4607 138.597 35.4626 138.601 35.4598C138.632 35.4407 138.582 35.4714 138.613 35.4523C138.626 35.4447 138.625 35.4452 138.637 35.4376C138.674 35.4148 138.606 35.4567 138.643 35.4339C138.644 35.4333 138.645 35.4327 138.646 35.4321C138.647 35.4315 138.648 35.4309 138.649 35.4303C138.657 35.4255 138.653 35.4279 138.66 35.4231C138.7 35.3983 138.644 35.4335 138.684 35.4088C138.704 35.396 138.686 35.4076 138.706 35.3948C138.718 35.3875 138.717 35.3883 138.728 35.381C138.752 35.3663 138.727 35.3822 138.75 35.3675C138.757 35.3636 138.749 35.3681 138.756 35.3642C138.766 35.3577 138.751 35.3673 138.761 35.3608C138.768 35.3567 138.765 35.3584 138.772 35.3542C138.786 35.3451 138.778 35.3502 138.793 35.3412C138.794 35.3402 138.812 35.3293 138.813 35.3284C138.828 35.3192 138.819 35.325 138.834 35.3158C138.852 35.3047 138.836 35.3146 138.854 35.3035C138.867 35.2954 138.86 35.2995 138.873 35.2915C138.875 35.2905 138.881 35.2865 138.883 35.2855C138.887 35.2827 138.883 35.2854 138.887 35.2826C138.89 35.281 138.89 35.2812 138.892 35.2796C138.924 35.2602 138.87 35.2932 138.902 35.2738C138.944 35.2479 138.869 35.294 138.911 35.2681C138.922 35.2613 138.918 35.2634 138.929 35.2567C138.961 35.2372 138.934 35.254 138.965 35.2348C139.035 35.1915 138.929 35.2568 138.999 35.2138C139.004 35.2104 139.001 35.2121 139.007 35.2087C139.012 35.2053 139.009 35.2071 139.015 35.2037C139.018 35.2015 139.015 35.2035 139.019 35.2012C139.02 35.2008 139.02 35.2004 139.021 35.2C139.022 35.1996 139.022 35.1992 139.023 35.1987C139.048 35.1829 139.005 35.2096 139.031 35.1938C139.031 35.1934 139.032 35.193 139.033 35.1926C139.033 35.1922 139.034 35.1918 139.035 35.1914C139.035 35.191 139.036 35.1906 139.037 35.1902C139.037 35.1898 139.038 35.1894 139.039 35.189C139.045 35.1849 139.04 35.1883 139.046 35.1842C139.068 35.1709 139.04 35.1881 139.062 35.1748C139.085 35.1606 139.046 35.1845 139.069 35.1702C139.073 35.1675 139.068 35.1706 139.073 35.1679C139.074 35.167 139.075 35.1666 139.076 35.1657C139.109 35.1455 139.058 35.1769 139.091 35.1568C139.134 35.1299 139.103 35.1492 139.144 35.1236C139.199 35.09 139.115 35.1418 139.169 35.1085C139.188 35.0965 139.161 35.1133 139.18 35.1013C139.181 35.1006 139.19 35.0951 139.191 35.0944C139.218 35.0779 139.187 35.0974 139.213 35.0812C139.214 35.0804 139.214 35.0805 139.215 35.0796C139.224 35.0743 139.209 35.0834 139.218 35.0781C139.236 35.0669 139.205 35.0862 139.223 35.075C139.255 35.0552 139.193 35.0933 139.225 35.0735C139.239 35.0651 139.214 35.0803 139.228 35.072C139.228 35.0715 139.232 35.0695 139.232 35.069C139.241 35.0636 139.295 35.0303 139.295 35.03C139.334 35.0064 139.303 35.0251 139.333 35.0066C139.337 35.0046 139.331 35.0077 139.335 35.0057C139.335 35.0056 139.335 35.0055 139.335 35.0055C139.335 35.0054 139.335 35.0053 139.335 35.0052C139.336 35.0052 139.336 35.0051 139.336 35.005C139.336 35.005 139.336 35.0049 139.336 35.0048C139.347 34.9979 139.328 35.01 139.339 35.0032C139.339 35.0028 139.339 35.003 139.34 35.0025C139.349 34.9967 139.332 35.0077 139.341 35.0019C139.342 35.0011 139.342 35.0015 139.343 35.0008C139.343 35.0006 139.344 35 139.344 34.9999C139.349 34.9971 139.34 35.0024 139.345 34.9996C139.345 34.9996 139.345 34.9996 139.345 34.9995C139.345 34.9995 139.345 34.9995 139.345 34.9995C139.345 34.9994 139.345 34.9993 139.345 34.9993C139.345 34.9991 139.345 34.9991 139.346 34.999C139.346 34.999 139.346 34.9989 139.346 34.9989C139.346 34.9989 139.346 34.9989 139.346 34.9989C139.346 34.9989 139.346 34.9989 139.346 34.9989C139.346 34.9989 139.346 34.9989 139.346 34.9989C139.346 34.9989 139.346 34.9989 139.346 34.9989C139.346 34.9989 139.346 34.9988 139.346 34.9988C139.346 34.9988 139.346 34.9988 139.346 34.9988C139.346 34.9988 139.346 34.9988 138.872 34.2336ZM138.066 34.7328L137.603 33.9611C137.153 34.2306 136.516 34.529 135.671 34.8522L135.992 35.6928L136.314 36.5334C137.209 36.191 137.954 35.8494 138.529 35.5045L138.066 34.7328ZM135.992 35.6928L135.671 34.8522C134.917 35.1402 134.056 35.292 133.074 35.292V36.192V37.092C134.242 37.092 135.326 36.911 136.314 36.5334L135.992 35.6928ZM133.074 36.192L133.963 36.0551C133.863 35.4057 133.776 34.7166 133.7 33.9874L132.805 34.08L131.91 34.1726C131.988 34.9282 132.079 35.6471 132.184 36.3289L133.074 36.192ZM132.805 34.08L133.7 33.9904C133.628 33.2647 133.59 32.2869 133.59 31.0464H132.69H131.79C131.79 32.3147 131.828 33.3593 131.909 34.1696L132.805 34.08ZM132.69 31.0464L131.831 30.778C131.598 31.5235 131.257 32.279 130.802 33.0445L131.576 33.504L132.35 33.9635C132.868 33.0906 133.27 32.2077 133.549 31.3148L132.69 31.0464ZM131.576 33.504L130.792 33.0628C130.402 33.7553 129.859 34.346 129.146 34.836L129.656 35.5776L130.166 36.3192C131.092 35.6828 131.828 34.8911 132.361 33.9452L131.576 33.504ZM129.656 35.5776L129.151 34.8325C128.546 35.2422 127.713 35.484 126.584 35.484V36.384V37.284C127.964 37.284 129.179 36.9882 130.161 36.3227L129.656 35.5776ZM126.584 36.384V35.484C124.766 35.484 123.574 35.0025 122.828 34.1978L122.168 34.8096L121.508 35.4214C122.708 36.7159 124.46 37.284 126.584 37.284V36.384ZM122.168 34.8096L122.835 34.2058C122.059 33.3477 121.609 32.0691 121.609 30.24H120.709H119.809C119.809 32.3533 120.331 34.1211 121.501 35.4134L122.168 34.8096ZM120.709 30.24H121.609V26.5152H120.709H119.809V30.24H120.709ZM120.709 26.5152H121.609C121.609 24.6377 121.57 23.1292 121.492 21.9982L120.594 22.0608L119.696 22.1234C119.771 23.194 119.809 24.6551 119.809 26.5152H120.709ZM120.594 22.0608L121.493 22.019C121.44 20.8829 121.28 19.9185 120.945 19.2163L120.133 19.6032L119.32 19.9901C119.498 20.3631 119.645 21.0371 119.695 22.1026L120.594 22.0608ZM120.133 19.6032L120.945 19.2163C120.594 18.4783 120.024 17.9398 119.24 17.7044L118.981 18.5664L118.722 19.4284C118.962 19.5002 119.16 19.6529 119.32 19.9901L120.133 19.6032ZM118.981 18.5664L119.292 17.7219C118.659 17.4886 117.844 17.3976 116.907 17.3976V18.2976V19.1976C117.763 19.1976 118.33 19.2858 118.67 19.4109L118.981 18.5664ZM116.907 18.2976L117.793 18.1366L117.716 17.7142L116.831 17.8752L115.945 18.0362L116.022 18.4586L116.907 18.2976ZM116.831 17.8752C116.938 18.7688 116.938 18.7688 116.938 18.7688C116.938 18.7688 116.938 18.7688 116.938 18.7688C116.938 18.7688 116.938 18.7688 116.938 18.7688C116.96 18.7661 116.915 18.7715 116.938 18.7688C116.938 18.7687 116.938 18.7688 116.938 18.7687C116.938 18.7687 116.938 18.7687 116.938 18.7687C116.938 18.7687 116.938 18.7687 116.938 18.7687C116.938 18.7687 116.938 18.7687 116.938 18.7687C116.938 18.7687 116.939 18.7687 116.939 18.7687C116.939 18.7687 116.939 18.7687 116.939 18.7687C116.939 18.7686 116.939 18.7686 116.94 18.7685C116.94 18.7685 116.94 18.7685 116.94 18.7685C116.94 18.7685 116.94 18.7685 116.94 18.7685C116.941 18.7684 116.94 18.7685 116.941 18.7684C116.941 18.7684 116.941 18.7684 116.941 18.7683C116.952 18.7671 116.936 18.7691 116.946 18.7678C116.958 18.7663 116.94 18.7685 116.953 18.767C116.954 18.7668 116.952 18.7671 116.954 18.7669C116.955 18.7668 116.954 18.7669 116.955 18.7668C116.955 18.7667 116.955 18.7667 116.956 18.7666C116.956 18.7666 116.957 18.7665 116.957 18.7665C116.966 18.7654 116.952 18.7671 116.961 18.766C116.976 18.7642 116.956 18.7665 116.971 18.7647C116.974 18.7644 116.974 18.7644 116.977 18.764C116.982 18.7635 116.979 18.7638 116.984 18.7633C117.021 18.7588 116.96 18.7661 116.998 18.7616C117.031 18.7576 117.104 18.7488 117.178 18.74C117.383 18.7153 117.532 18.6974 117.898 18.6536L117.791 17.76L117.683 16.8664C117.628 16.873 117.504 16.888 117.458 16.8934C117.435 16.8962 117.43 16.8969 117.407 16.8996C117.373 16.9036 117.39 16.9016 117.357 16.9056C117.284 16.9144 117.382 16.9026 117.309 16.9113C117.231 16.9207 117.341 16.9075 117.263 16.9168C117.218 16.9222 117.134 16.9324 117.098 16.9366C117.081 16.9386 117.041 16.9434 117.027 16.9452C117.018 16.9463 117.003 16.948 116.994 16.9491C116.977 16.9511 116.98 16.9508 116.963 16.9528C116.877 16.9631 116.829 16.9689 116.783 16.9744C116.777 16.9752 116.761 16.9771 116.757 16.9776C116.745 16.979 116.748 16.9786 116.738 16.9798C116.736 16.9801 116.733 16.9804 116.732 16.9806C116.729 16.981 116.73 16.9809 116.727 16.9812C116.725 16.9814 116.726 16.9813 116.724 16.9815C116.724 16.9815 116.724 16.9815 116.724 16.9815C116.724 16.9815 116.724 16.9815 116.724 16.9815C116.724 16.9815 116.724 16.9815 116.724 16.9815C116.715 16.9826 116.733 16.9805 116.724 16.9816C116.723 16.9816 116.723 16.9816 116.723 16.9816C116.723 16.9816 116.723 16.9816 116.723 16.9816C116.723 16.9816 116.723 16.9816 116.723 16.9816C116.723 16.9816 116.723 16.9816 116.723 16.9816C116.723 16.9816 116.723 16.9816 116.723 16.9816C116.723 16.9816 116.723 16.9816 116.831 17.8752ZM117.791 17.76L117.894 18.6541C118.534 18.5802 119.345 18.5175 120.333 18.4668L120.287 17.568L120.24 16.6692C119.231 16.7209 118.379 16.7862 117.687 16.8659L117.791 17.76ZM120.287 17.568L120.356 18.4653C121.329 18.3904 122.343 18.3528 123.397 18.3528V17.4528V16.5528C122.3 16.5528 121.24 16.592 120.217 16.6706L120.287 17.568ZM123.397 17.4528H122.497V29.856H123.397H124.297V17.4528H123.397ZM123.397 29.856H122.497C122.497 31.5745 122.763 33.042 123.368 34.192L124.165 33.7728L124.961 33.3536C124.543 32.558 124.297 31.4143 124.297 29.856H123.397ZM124.165 33.7728L123.373 34.2008C124.091 35.5297 125.424 36.0936 127.045 36.0936V35.1936V34.2936C125.849 34.2936 125.262 33.9103 124.957 33.3448L124.165 33.7728ZM127.045 35.1936V36.0936C128.313 36.0936 129.431 35.71 130.332 34.9049L129.733 34.2336L129.133 33.5623C128.602 34.0372 127.927 34.2936 127.045 34.2936V35.1936ZM129.733 34.2336L130.332 34.9049C131.154 34.1717 131.801 33.2578 132.282 32.1819L131.461 31.8144L130.639 31.4469C130.25 32.3166 129.746 33.0155 129.133 33.5623L129.733 34.2336ZM131.461 31.8144L132.282 32.1819C132.75 31.1375 133.079 30.0395 133.27 28.8904L132.383 28.7424L131.495 28.5944C131.328 29.5957 131.043 30.5457 130.639 31.4469L131.461 31.8144ZM132.383 28.7424L133.267 28.9108C133.479 27.7936 133.59 26.7631 133.59 25.824H132.69H131.79C131.79 26.6257 131.695 27.5408 131.498 28.574L132.383 28.7424ZM149.946 23.52L149.155 23.9487L149.164 23.9661L149.175 23.983L149.946 23.52ZM151.214 25.632L150.442 26.095L151.152 27.2781L151.948 26.1517L151.214 25.632ZM152.327 24.0576L151.6 23.527L151.592 23.5379L152.327 24.0576ZM154.132 21.2928L153.354 20.8393L153.35 20.8463L154.132 21.2928ZM152.98 18.2976L152.092 18.4456L152.217 19.1976H152.98V18.2976ZM152.903 17.8368V16.9368H151.841L152.015 17.9848L152.903 17.8368ZM159.969 17.8368L160.856 17.9848L161.031 16.9368H159.969V17.8368ZM159.892 18.2976V19.1976H160.654L160.78 18.4456L159.892 18.2976ZM158.01 18.5664L158.295 19.4202L158.308 19.4158L158.321 19.4109L158.01 18.5664ZM156.705 19.488L157.36 20.1048L157.369 20.0955L157.377 20.0859L156.705 19.488ZM155.246 21.3696L154.504 20.8597L154.504 20.8597L155.246 21.3696ZM153.018 24.5568L153.746 25.0871L153.754 25.0758L153.018 24.5568ZM151.674 26.4L150.947 25.8697L150.594 26.3545L150.905 26.8673L151.674 26.4ZM154.17 30.5088L154.941 30.0438L154.94 30.0415L154.17 30.5088ZM156.436 33.8112L157.119 33.2255L157.119 33.2255L156.436 33.8112ZM158.202 35.232L157.862 36.065L157.878 36.0717L157.895 36.0778L158.202 35.232ZM160.084 35.5392L160.972 35.3912L160.846 34.6392H160.084V35.5392ZM160.161 36V36.9H161.223L161.048 35.852L160.161 36ZM151.098 36L150.211 35.852L150.036 36.9H151.098V36ZM151.175 35.5392V34.6392H150.413L150.287 35.3912L151.175 35.5392ZM152.673 35.3856L152.388 34.5318L152.377 34.5356L152.365 34.5398L152.673 35.3856ZM152.596 33.12L151.803 33.5467L151.807 33.5532L151.811 33.5597L152.596 33.12ZM151.175 30.7008L150.41 31.1754L150.411 31.1759L151.175 30.7008ZM149.793 28.4736L150.557 27.999L149.841 26.8447L149.057 27.9546L149.793 28.4736ZM148.871 29.7792L149.598 30.3097L149.602 30.304L149.606 30.2982L148.871 29.7792ZM147.028 32.5824L146.25 32.1289L146.246 32.1359L147.028 32.5824ZM146.644 35.3088L146.128 36.0461L146.154 36.0643L146.181 36.0805L146.644 35.3088ZM148.065 35.5392L148.952 35.3912L148.827 34.6392H148.065V35.5392ZM148.142 36V36.9H149.204L149.029 35.852L148.142 36ZM141.038 36L140.15 35.852L139.975 36.9H141.038V36ZM141.114 35.5392V34.6392H140.352L140.227 35.3912L141.114 35.5392ZM142.996 35.3088L143.267 36.167L143.287 36.1606L143.307 36.1533L142.996 35.3088ZM144.378 34.3872L145.015 35.0236L145.024 35.0145L145.033 35.0052L144.378 34.3872ZM145.914 32.4672L145.183 31.9419L145.183 31.9419L145.914 32.4672ZM148.18 29.28L147.448 28.7569L147.445 28.761L148.18 29.28ZM149.332 27.6672L150.064 28.1903L150.408 27.7094L150.103 27.2031L149.332 27.6672ZM146.951 23.712L147.722 23.2478L147.719 23.2432L146.951 23.712ZM144.647 20.2944L143.924 20.8307L143.934 20.8438L143.944 20.8566L144.647 20.2944ZM143.034 18.72L142.583 19.4989L142.599 19.508L142.615 19.5164L143.034 18.72ZM141.345 18.2976L140.457 18.4456L140.582 19.1976H141.345V18.2976ZM141.268 17.8368V16.9368H140.205L140.38 17.9848L141.268 17.8368ZM149.562 17.8368L150.45 17.9848L150.625 16.9368H149.562V17.8368ZM149.486 18.2976V19.1976H150.248L150.373 18.4456L149.486 18.2976ZM148.026 18.4512L147.742 17.5974L147.73 17.6012L147.719 17.6054L148.026 18.4512ZM147.95 20.064L147.136 20.4493L147.149 20.4756L147.163 20.5011L147.95 20.064ZM148.871 21.6768L148.094 22.1303L148.101 22.1421L148.108 22.1538L148.871 21.6768ZM149.946 23.52L149.175 23.983L150.442 26.095L151.214 25.632L151.985 25.169L150.718 23.057L149.946 23.52ZM151.214 25.632L151.948 26.1517L153.062 24.5773L152.327 24.0576L151.592 23.5379L150.479 25.1123L151.214 25.632ZM152.327 24.0576L153.054 24.5881C153.762 23.6175 154.383 22.6679 154.913 21.7393L154.132 21.2928L153.35 20.8463C152.857 21.7097 152.274 22.6033 151.6 23.5271L152.327 24.0576ZM154.132 21.2928L154.909 21.7463C155.191 21.2642 155.415 20.8266 155.571 20.4394C155.721 20.0679 155.838 19.6723 155.838 19.296H154.938H154.038C154.038 19.3293 154.021 19.4713 153.902 19.7654C153.79 20.0438 153.611 20.3998 153.355 20.8393L154.132 21.2928ZM154.938 19.296H155.838C155.838 18.9757 155.757 18.6545 155.569 18.3667C155.384 18.0836 155.129 17.8837 154.857 17.7454C154.341 17.482 153.68 17.3976 152.98 17.3976V18.2976V19.1976C153.585 19.1976 153.904 19.2796 154.04 19.349C154.095 19.3771 154.085 19.3852 154.063 19.3517C154.038 19.3135 154.038 19.2835 154.038 19.296H154.938ZM152.98 18.2976L153.868 18.1496L153.791 17.6888L152.903 17.8368L152.015 17.9848L152.092 18.4456L152.98 18.2976ZM152.903 17.8368V18.7368H159.969V17.8368V16.9368H152.903V17.8368ZM159.969 17.8368L159.081 17.6888L159.004 18.1496L159.892 18.2976L160.78 18.4456L160.856 17.9848L159.969 17.8368ZM159.892 18.2976V17.3976C159.064 17.3976 158.321 17.4928 157.699 17.7219L158.01 18.5664L158.321 19.4109C158.672 19.2816 159.184 19.1976 159.892 19.1976V18.2976ZM158.01 18.5664L157.726 17.7126C157.08 17.9277 156.519 18.3426 156.032 18.8901L156.705 19.488L157.377 20.0859C157.71 19.7118 158.019 19.5123 158.295 19.4202L158.01 18.5664ZM156.705 19.488L156.049 18.8712C155.595 19.3544 155.078 20.024 154.504 20.8597L155.246 21.3696L155.987 21.8795C156.539 21.0768 156.996 20.492 157.36 20.1048L156.705 19.488ZM155.246 21.3696L154.504 20.8597C153.944 21.6746 153.204 22.7336 152.283 24.0378L153.018 24.5568L153.754 25.0758C154.676 23.7688 155.421 22.703 155.987 21.8795L155.246 21.3696ZM153.018 24.5568L152.291 24.0265L150.947 25.8697L151.674 26.4L152.402 26.9303L153.746 25.0871L153.018 24.5568ZM151.674 26.4L150.905 26.8673L153.401 30.9761L154.17 30.5088L154.94 30.0415L152.444 25.9327L151.674 26.4ZM154.17 30.5088L153.4 30.9738C154.304 32.4722 155.089 33.6233 155.753 34.3969L156.436 33.8112L157.119 33.2255C156.554 32.5655 155.829 31.515 154.941 30.0438L154.17 30.5088ZM156.436 33.8112L155.753 34.3969C156.414 35.168 157.113 35.7588 157.862 36.065L158.202 35.232L158.543 34.399C158.165 34.2444 157.687 33.888 157.119 33.2255L156.436 33.8112ZM158.202 35.232L157.895 36.0778C158.57 36.3235 159.304 36.4392 160.084 36.4392V35.5392V34.6392C159.482 34.6392 158.961 34.5501 158.51 34.3862L158.202 35.232ZM160.084 35.5392L159.196 35.6872L159.273 36.148L160.161 36L161.048 35.852L160.972 35.3912L160.084 35.5392ZM160.161 36V35.1H151.098V36V36.9H160.161V36ZM151.098 36L151.986 36.148L152.063 35.6872L151.175 35.5392L150.287 35.3912L150.211 35.852L151.098 36ZM151.175 35.5392V36.4392C151.891 36.4392 152.534 36.3935 152.98 36.2314L152.673 35.3856L152.365 34.5398C152.248 34.5825 151.893 34.6392 151.175 34.6392V35.5392ZM152.673 35.3856L152.957 36.2394C153.253 36.1409 153.544 35.9616 153.754 35.6646C153.962 35.3698 154.034 35.0383 154.034 34.7328H153.134H152.234C152.234 34.7601 152.229 34.7038 152.283 34.6266C152.339 34.5472 152.4 34.5279 152.388 34.5318L152.673 35.3856ZM153.134 34.7328H154.034C154.034 34.0717 153.769 33.3735 153.381 32.6803L152.596 33.12L151.811 33.5597C152.139 34.1465 152.234 34.5235 152.234 34.7328H153.134ZM152.596 33.12L153.388 32.6933C153.018 32.0056 152.534 31.182 151.939 30.2257L151.175 30.7008L150.411 31.1759C150.994 32.114 151.457 32.9032 151.803 33.5467L152.596 33.12ZM151.175 30.7008L151.94 30.2262L150.557 27.999L149.793 28.4736L149.028 28.9482L150.41 31.1754L151.175 30.7008ZM149.793 28.4736L149.057 27.9546L148.136 29.2602L148.871 29.7792L149.606 30.2982L150.528 28.9926L149.793 28.4736ZM148.871 29.7792L148.144 29.2487C147.437 30.2183 146.805 31.1783 146.251 32.1289L147.028 32.5824L147.805 33.0359C148.326 32.1433 148.923 31.2345 149.598 30.3097L148.871 29.7792ZM147.028 32.5824L146.246 32.1359C145.978 32.6059 145.763 33.0343 145.614 33.4154C145.47 33.7827 145.36 34.171 145.36 34.5408H146.26H147.16C147.16 34.501 147.178 34.3581 147.29 34.0726C147.396 33.8009 147.566 33.4549 147.809 33.0289L147.028 32.5824ZM146.26 34.5408H145.36C145.36 35.1448 145.613 35.686 146.128 36.0461L146.644 35.3088L147.16 34.5715C147.15 34.5644 147.148 34.5616 147.151 34.5645C147.154 34.5677 147.158 34.5733 147.161 34.5799C147.164 34.5864 147.164 34.589 147.163 34.5848C147.162 34.5802 147.16 34.5663 147.16 34.5408H146.26ZM146.644 35.3088L146.181 36.0805C146.448 36.241 146.758 36.3231 147.047 36.37C147.347 36.4187 147.69 36.4392 148.065 36.4392V35.5392V34.6392C147.748 34.6392 147.509 34.6213 147.335 34.5932C147.151 34.5633 147.096 34.5302 147.107 34.5371L146.644 35.3088ZM148.065 35.5392L147.177 35.6872L147.254 36.148L148.142 36L149.029 35.852L148.952 35.3912L148.065 35.5392ZM148.142 36V35.1H141.038V36V36.9H148.142V36ZM141.038 36L141.925 36.148L142.002 35.6872L141.114 35.5392L140.227 35.3912L140.15 35.852L141.038 36ZM141.114 35.5392V36.4392C141.933 36.4392 142.66 36.3585 143.267 36.167L142.996 35.3088L142.725 34.4506C142.359 34.5663 141.832 34.6392 141.114 34.6392V35.5392ZM142.996 35.3088L143.307 36.1533C143.936 35.9214 144.504 35.5338 145.015 35.0236L144.378 34.3872L143.742 33.7508C143.382 34.111 143.028 34.3378 142.685 34.4643L142.996 35.3088ZM144.378 34.3872L145.033 35.0052C145.507 34.5034 146.045 33.8276 146.645 32.9925L145.914 32.4672L145.183 31.9419C144.606 32.7452 144.12 33.3494 143.724 33.7692L144.378 34.3872ZM145.914 32.4672L146.645 32.9925C147.236 32.1704 147.993 31.1057 148.915 29.799L148.18 29.28L147.445 28.761C146.524 30.0655 145.77 31.1256 145.183 31.9419L145.914 32.4672ZM148.18 29.28L148.912 29.8031L150.064 28.1903L149.332 27.6672L148.6 27.1441L147.448 28.7569L148.18 29.28ZM149.332 27.6672L150.103 27.2031L147.722 23.2479L146.951 23.712L146.18 24.1761L148.561 28.1313L149.332 27.6672ZM146.951 23.712L147.719 23.2432C146.791 21.7216 146 20.5445 145.35 19.7322L144.647 20.2944L143.944 20.8566C144.523 21.5803 145.268 22.6816 146.183 24.1808L146.951 23.712ZM144.647 20.2944L145.37 19.7581C144.755 18.9293 144.12 18.2743 143.453 17.9236L143.034 18.72L142.615 19.5164C142.922 19.6777 143.362 20.0722 143.924 20.8307L144.647 20.2944ZM143.034 18.72L143.485 17.9411C142.844 17.5697 142.121 17.3976 141.345 17.3976V18.2976V19.1976C141.849 19.1976 142.252 19.3071 142.583 19.4989L143.034 18.72ZM141.345 18.2976L142.232 18.1496L142.156 17.6888L141.268 17.8368L140.38 17.9848L140.457 18.4456L141.345 18.2976ZM141.268 17.8368V18.7368H149.562V17.8368V16.9368H141.268V17.8368ZM149.562 17.8368L148.675 17.6888L148.598 18.1496L149.486 18.2976L150.373 18.4456L150.45 17.9848L149.562 17.8368ZM149.486 18.2976V17.3976C148.803 17.3976 148.194 17.4466 147.742 17.5974L148.026 18.4512L148.311 19.305C148.473 19.251 148.837 19.1976 149.486 19.1976V18.2976ZM148.026 18.4512L147.719 17.6054C147.409 17.7182 147.13 17.923 146.942 18.2315C146.761 18.5271 146.704 18.8504 146.704 19.1424H147.604H148.504C148.504 19.076 148.517 19.1049 148.477 19.1701C148.457 19.2032 148.43 19.2342 148.398 19.2589C148.368 19.283 148.343 19.2936 148.334 19.297L148.026 18.4512ZM147.604 19.1424H146.704C146.704 19.3899 146.794 19.6406 146.848 19.7848C146.918 19.9719 147.016 20.1958 147.136 20.4493L147.95 20.064L148.763 19.6787C148.653 19.4458 148.578 19.2729 148.533 19.1528C148.51 19.0926 148.5 19.0573 148.496 19.0417C148.488 19.0149 148.504 19.0593 148.504 19.1424H147.604ZM147.95 20.064L147.163 20.5011C147.423 20.9689 147.733 21.5122 148.094 22.1303L148.871 21.6768L149.649 21.2233C149.292 20.6126 148.988 20.0807 148.736 19.6269L147.95 20.064ZM148.871 21.6768L148.108 22.1538C148.482 22.753 148.831 23.3512 149.155 23.9487L149.946 23.52L150.738 23.0913C150.396 22.46 150.028 21.8294 149.634 21.1998L148.871 21.6768Z" fill="white" mask="url(#path-2-outside-1_2042_807)"/>
</svg>
