<svg width="164" height="48" viewBox="0 0 164 48" fill="none" xmlns="http://www.w3.org/2000/svg">
<path d="M20.9905 37.4791C21.3221 37.4875 21.6538 37.4847 21.9854 37.4847C22.7942 37.4819 22.7942 37.4819 22.7825 36.7276C22.7825 36.6375 22.7738 18.9563 22.7709 18.8015C22.768 18.5284 22.6749 18.4412 22.4131 18.6213C22.0349 18.8831 21.6567 19.1476 21.2581 19.3756C20.8276 19.6177 20.6938 19.947 20.6938 20.4227C20.7083 25.0104 20.7432 36.19 20.6618 37.1892C20.6443 37.4228 20.8014 37.4762 20.9905 37.4791Z" fill="#AA8453"/>
<path d="M18.157 31.9371C18.157 31.5121 18.1541 31.09 18.157 30.6649C18.1599 30.4342 18.0727 30.3019 17.8108 30.3047C17.3337 30.3131 16.8537 30.3103 16.3766 30.3103C16.141 30.3103 15.9984 30.406 15.9984 30.6509C15.9984 31.5121 15.9984 32.3734 15.9955 33.2347C15.9955 33.4598 16.109 33.5583 16.3388 33.5583C16.8043 33.5583 17.2697 33.5527 17.7323 33.5724C18.0377 33.5837 18.1687 33.4683 18.1628 33.1699C18.1512 32.759 18.1599 32.3481 18.1599 31.9371C18.1599 31.9371 18.1599 31.9371 18.157 31.9371Z" fill="#AA8453"/>
<path d="M17.8021 22.9276C17.325 22.9333 16.845 22.9333 16.3679 22.9305C16.1206 22.9276 16.0014 23.043 16.0014 23.2795C15.9955 24.1154 15.9897 24.9485 15.9839 25.7844C15.981 26.0575 16.1206 26.1785 16.3999 26.1729C16.8508 26.1672 17.3017 26.17 17.7527 26.1757C18.0377 26.1813 18.1628 26.0546 18.1599 25.7788C18.1541 25.3679 18.157 24.957 18.157 24.546C18.157 24.121 18.1512 23.6988 18.157 23.2738C18.1628 23.0346 18.0552 22.9248 17.8021 22.9276Z" fill="#AA8453"/>
<path d="M9.93583 47.803C9.9911 47.803 10.0464 47.803 10.0987 47.803C10.0464 47.6904 9.9911 47.6904 9.93583 47.803Z" fill="#AA8453"/>
<path d="M26.7448 19.3756C26.3433 19.1505 25.968 18.8831 25.5898 18.6213C25.328 18.4412 25.2349 18.5284 25.232 18.8015C25.2291 18.9563 25.2204 36.6375 25.2204 36.7276C25.2117 37.4819 25.2117 37.4847 26.0175 37.4847C26.3491 37.4847 26.6808 37.4875 27.0124 37.4791C27.1986 37.4734 27.3586 37.42 27.3382 37.1892C27.2568 36.19 27.2917 25.0104 27.3062 20.4227C27.3091 19.9442 27.1724 19.6177 26.7448 19.3756Z" fill="#AA8453"/>
<path d="M30.2677 33.5752C30.7332 33.5583 31.1986 33.5612 31.6612 33.5612C31.891 33.5612 32.0045 33.4626 32.0045 33.2375C32.0016 32.3762 32.0016 31.515 32.0016 30.6537C32.0016 30.406 31.859 30.3131 31.6234 30.3131C31.1463 30.3131 30.6663 30.3159 30.1892 30.3075C29.9244 30.3019 29.8401 30.437 29.843 30.6678C29.8459 31.0928 29.843 31.515 29.843 31.94C29.8401 31.94 29.8401 31.94 29.8372 31.94C29.8372 32.3509 29.8459 32.7618 29.8343 33.1727C29.8313 33.4711 29.9593 33.5865 30.2677 33.5752Z" fill="#AA8453"/>
<path d="M30.2503 26.1785C30.7012 26.1729 31.1521 26.17 31.603 26.1757C31.8852 26.1785 32.0219 26.0603 32.019 25.7873C32.0132 24.9513 32.0074 24.1182 32.0016 23.2823C31.9986 23.0459 31.8823 22.9305 31.635 22.9305C31.1579 22.9333 30.6779 22.9361 30.2008 22.9276C29.9477 22.9248 29.8401 23.0346 29.843 23.2767C29.8488 23.7017 29.8459 24.1238 29.843 24.5488C29.843 24.9598 29.8488 25.3707 29.8401 25.7816C29.8372 26.0575 29.9652 26.1813 30.2503 26.1785Z" fill="#AA8453"/>
<path d="M37.9013 47.803C37.9565 47.803 38.0118 47.803 38.0642 47.803C38.0118 47.6904 37.9565 47.6904 37.9013 47.803Z" fill="#AA8453"/>
<path d="M24.0015 7.81893C23.6669 8.95321 22.9629 9.76099 21.7382 10.0593C22.2967 10.217 22.7971 10.3858 23.184 10.763C23.5767 11.143 23.7775 11.6496 24.0015 12.1534C24.2225 11.6496 24.4262 11.143 24.8189 10.763C25.2087 10.3858 25.7062 10.2198 26.2648 10.0593C25.04 9.76099 24.336 8.95039 24.0015 7.81893ZM24.0015 7.90899C24.0073 7.94558 24.0131 7.98217 24.0015 8.01876C23.9898 7.98217 23.9956 7.94558 24.0015 7.90899ZM24.0015 12.0521C23.9956 12.0099 23.9898 11.9676 24.0015 11.9282C24.0131 11.9704 24.0073 12.0099 24.0015 12.0521Z" fill="#AA8453"/>
<path d="M45.1275 35.5201C42.8526 38.1461 39.4896 39.3536 38.4511 39.2438C37.6598 39.1594 10.3431 39.1594 9.55182 39.2438C8.51327 39.3536 5.15322 38.1461 2.87538 35.5201C2.81429 35.4469 2.7561 35.34 2.59901 35.3963C2.61065 35.4413 2.61647 35.4892 2.63392 35.5342C3.17502 36.8345 3.94885 37.9998 4.86231 39.0778C6.4827 40.9804 8.41726 42.5312 10.5933 43.8063C11.3438 44.2453 12.106 44.6929 12.8828 45.1207C16.2632 46.9952 20.0916 47.9747 23.9869 48H24.016C27.9113 47.9747 31.7397 46.9924 35.1201 45.1207C35.894 44.6929 36.6562 44.2453 37.4096 43.8063C39.5856 42.5312 41.5231 40.9804 43.1406 39.0778C44.057 38.0026 44.8279 36.8345 45.369 35.5342C45.3864 35.492 45.3923 35.4441 45.4039 35.3963C45.2468 35.3428 45.1886 35.4497 45.1275 35.5201ZM25.4182 45.0475C24.944 45.0728 23.0618 45.0728 22.5847 45.0475C18.8756 44.8477 15.3846 43.8738 12.2631 41.8586C12.2689 41.822 12.2777 41.7882 12.2835 41.7516C16.1846 41.7516 31.8183 41.7516 35.7194 41.7516C35.7252 41.7882 35.734 41.822 35.7398 41.8586C32.6183 43.8738 29.1244 44.8477 25.4182 45.0475Z" fill="#AA8453"/>
<path d="M47.6177 25.4664C48.1908 23.9803 48.0512 22.4886 47.6468 20.9968C47.5916 20.7914 47.577 20.6084 47.6439 20.3973C48.3247 18.2442 47.7807 16.3471 46.3319 14.6443C46.265 14.5655 46.1894 14.4923 46.1166 14.4191C46.0905 14.3938 46.0526 14.3769 45.945 14.3094C45.9654 14.8301 46.0875 15.2748 46.1079 15.7336C46.2039 18.0218 45.3981 19.9639 43.7631 21.5992C42.5559 22.8066 41.142 23.6876 39.4518 24.1154C38.8787 24.2618 38.294 24.3772 37.7093 24.4729C37.1711 24.5601 37.046 24.4363 37.046 23.9127C37.046 21.7399 37.046 19.567 37.0431 17.3942C37.0431 17.2534 37.0431 17.1099 37.0256 16.972C37.014 16.8706 36.9936 16.7975 36.8278 16.8087C35.5158 16.8988 34.2009 16.8369 32.8859 16.8425C32.4757 16.8453 32.0801 16.7158 31.7106 16.5245C31.0823 16.2008 29.4677 15.3902 29.3106 15.2044C30.0903 15.0975 34.6954 15.0806 36.2605 15.1172C36.4962 15.1228 36.502 15.0046 36.4962 14.8244C36.4641 13.693 36.4351 12.5587 36.7143 11.4497C37.0634 10.0565 37.7296 8.83218 38.8787 7.88648C39.0707 7.72886 39.2744 7.58532 39.5129 7.50932C39.5711 7.53747 39.5566 7.57406 39.5362 7.60783C39.0707 8.42688 39.1144 8.9898 39.6962 9.62027C40.1791 10.1438 41.1129 10.3239 41.8315 10.0312C42.7246 9.66811 43.3297 8.61264 43.2221 7.6782C43.0097 5.8262 41.4446 4.7651 39.5129 4.9396C37.4416 5.12537 36.1267 6.40037 35.1201 8.08631C34.9572 8.35933 34.838 8.65205 34.7158 8.94195C34.6227 9.16712 34.4889 9.20934 34.2474 9.18119C32.0365 8.90817 30.0844 8.07224 28.403 6.66213C27.6873 6.06262 27.0764 5.37023 26.6255 4.554C26.5324 4.38513 26.5469 4.30069 26.7099 4.17404C27.8124 3.3184 27.5739 1.76475 26.2648 1.24405C26.0698 1.16524 25.8691 1.08643 25.6626 1.04703C25.1971 0.954146 24.6618 0.475666 24.3302 0.1351C24.1556 -0.0450334 23.8589 -0.0450334 23.6844 0.1351C23.3498 0.475666 22.8145 0.954146 22.352 1.04703C22.1454 1.08925 21.9447 1.16805 21.7498 1.24405C20.4436 1.76475 20.2021 3.3184 21.3047 4.17404C21.4676 4.30069 21.4822 4.38513 21.3891 4.554C20.9381 5.37023 20.3272 6.06262 19.6116 6.66213C17.9301 8.07224 15.9781 8.90817 13.7671 9.18119C13.5257 9.21215 13.3948 9.16712 13.2988 8.94195C13.1766 8.65205 13.0573 8.35933 12.8944 8.08631C11.8879 6.40037 10.5729 5.12537 8.50163 4.9396C6.56997 4.76791 5.00777 5.82901 4.79249 7.6782C4.68485 8.61546 5.28995 9.66811 6.18306 10.0312C6.90161 10.3239 7.83253 10.1466 8.31835 9.62027C8.89727 8.9898 8.94382 8.42688 8.47836 7.60783C8.45799 7.57406 8.44345 7.54028 8.50163 7.50932C8.74018 7.58532 8.94382 7.72886 9.13582 7.88648C10.2849 8.83218 10.9482 10.0565 11.3002 11.4497C11.5795 12.5587 11.5504 13.693 11.5184 14.8244C11.5126 15.0074 11.5155 15.1228 11.754 15.1172C13.3191 15.0778 17.9272 15.0946 18.7039 15.2044C18.5468 15.3902 16.9323 16.2008 16.3039 16.5245C15.9344 16.713 15.5388 16.8453 15.1286 16.8425C13.8137 16.8369 12.4988 16.8988 11.1868 16.8087C11.0209 16.7975 11.0006 16.8735 10.9889 16.972C10.9715 17.1127 10.9715 17.2534 10.9715 17.3942C10.9715 19.567 10.9686 21.7399 10.9686 23.9127C10.9686 24.4334 10.8435 24.5601 10.3053 24.4729C9.72055 24.3772 9.13582 24.2618 8.56272 24.1154C6.87252 23.6876 5.45868 22.8066 4.2514 21.5992C2.61647 19.9639 1.81064 18.0218 1.90664 15.7336C1.91537 15.2748 2.03755 14.8301 2.05791 14.3094C1.95028 14.3769 1.91246 14.3938 1.88628 14.4191C1.81064 14.4923 1.73791 14.5655 1.671 14.6443C0.219347 16.3471 -0.32466 18.2442 0.356076 20.3973C0.422985 20.6084 0.40844 20.7914 0.353166 20.9968C-0.0512021 22.4886 -0.19084 23.9803 0.382258 25.4664C0.460804 25.6662 0.437531 25.8633 0.382258 26.0603C0.216438 26.6457 0.0738903 27.2424 0.0506173 27.8504C-0.0162926 29.7784 0.649897 31.4671 1.82228 32.9757C2.00846 33.215 6.24415 36.9781 8.0769 37.3214C9.9911 37.6789 10.9249 37.1638 12.8566 37.3186C13.133 37.3411 13.2348 37.2258 13.2348 36.9612C13.2348 36.0239 13.2348 22.041 13.2842 19.6655C13.2901 19.3587 13.4675 19.2236 13.7613 19.218C14.6224 19.2068 15.4864 19.2011 16.3475 19.1955C16.5337 19.1955 16.717 19.1842 16.8886 19.0998C18.1832 18.4778 22.6574 16.046 23.6116 15.4746C23.7396 15.3958 23.8589 15.3705 23.9811 15.3817V15.3845C23.9869 15.3845 23.9898 15.3845 23.9956 15.3845C24.0015 15.3845 24.0044 15.3845 24.0102 15.3845V15.3817C24.1295 15.3705 24.2487 15.3986 24.3796 15.4746C25.3338 16.046 29.811 18.4778 31.1026 19.0998C31.2772 19.1842 31.4575 19.1955 31.6437 19.1955C32.5048 19.2011 33.3688 19.2068 34.2299 19.218C34.5238 19.2208 34.7012 19.3559 34.707 19.6655C34.7565 22.041 34.7565 36.0239 34.7565 36.9612C34.7565 37.2258 34.8583 37.3383 35.1347 37.3186C37.0634 37.1638 38.0002 37.6789 39.9144 37.3214C41.7471 36.9781 45.9828 33.215 46.169 32.9757C47.3414 31.4671 48.0076 29.7812 47.9407 27.8504C47.9203 27.2424 47.7748 26.6485 47.609 26.0603C47.5625 25.8633 47.5421 25.6662 47.6177 25.4664ZM10.186 34.4393C8.94672 34.3042 7.75107 33.9918 6.65142 33.4345C5.2405 32.7196 3.98376 31.7908 3.10811 30.4764C2.63683 29.7671 2.17428 29.0325 2.023 28.1628C2.15973 28.1628 2.20628 28.2557 2.24701 28.3232C2.77356 29.2182 3.71321 29.6404 4.53358 30.1837C6.25287 31.3207 8.19908 31.7767 10.2558 31.8499C10.9511 31.8752 10.9569 31.8724 10.9569 32.5563C10.9569 33.1727 10.9569 33.7891 10.9569 34.4027C10.8347 34.4506 10.3635 34.459 10.186 34.4393ZM10.9598 27.5661C10.9424 27.7828 10.9569 28.0023 10.9569 28.2219C10.9569 28.2219 10.9569 28.2219 10.954 28.2219C10.954 28.3232 10.954 28.4273 10.954 28.5287C10.9482 29.2745 10.9511 29.2633 10.1947 29.1704C9.098 29.0381 8.00708 28.8664 6.99761 28.4189C3.07029 26.8174 2.04919 23.6031 2.23537 23.5046C6.15687 27.0707 9.70892 27.0566 10.5409 27.1129C10.8755 27.1326 10.9831 27.2649 10.9598 27.5661ZM13.8544 12.6854C13.5751 12.6994 13.4501 12.6009 13.4384 12.3138C13.4035 11.5032 13.3948 11.5342 14.221 11.4638C17.5316 11.1852 20.2778 9.84825 22.3694 7.32919C22.928 6.6565 23.3789 5.91345 23.7193 5.11129C23.7745 4.98464 23.8356 4.85798 23.9869 4.77636C23.9869 4.80169 23.9869 4.81858 23.9869 4.81858C23.9927 4.80732 23.9956 4.79887 24.0015 4.78762C24.0073 4.79887 24.0102 4.80732 24.016 4.81858C24.016 4.81858 24.016 4.80169 24.016 4.77636C24.1673 4.86079 24.2284 4.98464 24.2836 5.11129C24.624 5.91345 25.0749 6.6565 25.6335 7.32919C27.7251 9.85106 30.4714 11.188 33.7819 11.4638C34.611 11.5342 34.6023 11.5032 34.5645 12.3138C34.5529 12.6037 34.4278 12.7022 34.1485 12.6854C33.7383 12.6628 14.2646 12.6628 13.8544 12.6854ZM37.462 27.1101C38.294 27.0566 41.846 27.0679 45.7675 23.5018C45.9537 23.6031 44.9297 26.8146 41.0053 28.4189C39.9958 28.8636 38.9049 29.0381 37.8082 29.1704C37.0518 29.2633 37.0518 29.2745 37.0489 28.5287C37.0489 28.4273 37.0489 28.3232 37.0489 28.2219C37.0489 28.2219 37.0489 28.2219 37.046 28.2219C37.046 28.0023 37.0576 27.7856 37.0431 27.5661C37.0198 27.2649 37.1274 27.1326 37.462 27.1101ZM44.8948 30.4764C44.0192 31.7908 42.7624 32.7196 41.3515 33.4345C40.2518 33.9918 39.0533 34.3042 37.8169 34.4393C37.6394 34.459 37.1682 34.4506 37.046 34.4055C37.046 33.792 37.046 33.1756 37.046 32.5592C37.046 31.8752 37.0518 31.8752 37.7471 31.8527C39.8038 31.7823 41.75 31.3264 43.4693 30.1865C44.2926 29.6432 45.2323 29.2182 45.7559 28.326C45.7966 28.2585 45.8461 28.1656 45.9799 28.1656C45.8286 29.0325 45.369 29.7671 44.8948 30.4764Z" fill="#AA8453"/>
<mask id="path-2-outside-1_69_2208" maskUnits="userSpaceOnUse" x="58" y="7" width="103" height="30" fill="black">
<rect fill="white" x="58" y="7" width="103" height="30"/>
<path d="M79.6608 34.3104C79.6608 33.7216 79.4816 32.9024 79.1232 31.8528C78.7904 30.8032 78.2912 29.3824 77.6256 27.5904H65.9136C65.376 29.1776 64.9664 30.4832 64.6848 31.5072C64.4032 32.5312 64.2624 33.3376 64.2624 33.9264C64.2624 34.6688 64.5056 35.1296 64.992 35.3088C65.4784 35.4624 66.208 35.5392 67.1808 35.5392L67.2576 36H58.6176L58.6944 35.5392C59.36 35.5392 59.936 35.4624 60.4224 35.3088C60.9344 35.1552 61.408 34.8224 61.8432 34.3104C62.2784 33.7984 62.7392 33.0048 63.2256 31.9296C63.712 30.8544 64.2752 29.3824 64.9152 27.5136L68.3328 17.6448C68.8448 16.1856 69.2288 15.0464 69.4848 14.2272C69.7408 13.3824 69.9072 12.7296 69.984 12.2688C70.0864 11.808 70.1376 11.4112 70.1376 11.0784C70.1376 10.4896 69.9584 10.0928 69.6 9.888C69.2416 9.6576 68.5504 9.5424 67.5264 9.5424L67.4496 9.12H73.7856L80.5824 27.5136C81.2736 29.3824 81.8368 30.8544 82.272 31.9296C82.7328 33.0048 83.1552 33.7984 83.5392 34.3104C83.9232 34.8224 84.3328 35.1552 84.768 35.3088C85.2032 35.4624 85.7664 35.5392 86.4576 35.5392L86.5344 36H76.9344L77.0112 35.5392C77.9072 35.5392 78.5728 35.4752 79.008 35.3472C79.4432 35.1936 79.6608 34.848 79.6608 34.3104ZM71.6352 11.1936L66.2208 26.6688H77.3184L71.6352 11.1936ZM99.7257 17.2608C100.315 17.2608 100.865 17.4016 101.377 17.6832C101.889 17.9392 102.145 18.3232 102.145 18.8352C102.145 19.3472 101.979 19.744 101.646 20.0256C101.313 20.2816 100.967 20.4096 100.609 20.4096C100.225 20.4096 99.8921 20.3328 99.6105 20.1792C99.3545 20 99.0601 19.8336 98.7273 19.68C98.4201 19.5008 97.9721 19.4112 97.3833 19.4112C96.6921 19.4112 96.0905 19.8592 95.5785 20.7552C95.0665 21.6256 94.6697 22.7648 94.3881 24.1728C94.1321 25.5808 94.0041 27.0528 94.0041 28.5888C94.0041 30.2016 94.0297 31.4816 94.0809 32.4288C94.1577 33.376 94.2985 34.0672 94.5033 34.5024C94.7081 34.9376 95.0281 35.2192 95.4633 35.3472C95.8985 35.4752 96.5001 35.5392 97.2681 35.5392L97.3449 36H88.0137L88.0905 35.5392C88.8329 35.5392 89.4217 35.4752 89.8569 35.3472C90.2921 35.2192 90.6121 34.9376 90.8169 34.5024C91.0217 34.0672 91.1497 33.376 91.2009 32.4288C91.2777 31.4816 91.3161 30.2016 91.3161 28.5888V26.3616C91.3161 24.4928 91.2777 23.0208 91.2009 21.9456C91.1497 20.8448 90.9961 20.0384 90.7401 19.5264C90.5097 19.0144 90.1385 18.6944 89.6265 18.5664C89.1401 18.4128 88.4617 18.336 87.5913 18.336L87.5145 17.9136C87.5145 17.9136 87.8345 17.8752 88.4745 17.7984C89.1145 17.7216 89.9209 17.6448 90.8937 17.568C91.8921 17.4912 92.9289 17.4528 94.0041 17.4528V23.0976C94.2857 21.28 94.9129 19.8592 95.8857 18.8352C96.8841 17.7856 98.1641 17.2608 99.7257 17.2608ZM110.377 7.7376V29.3184C110.377 30.7264 110.403 31.8528 110.454 32.6976C110.505 33.5168 110.633 34.1312 110.838 34.5408C111.068 34.9504 111.401 35.2192 111.836 35.3472C112.272 35.4752 112.873 35.5392 113.641 35.5392L113.718 36H104.31L104.387 35.5392C105.18 35.5392 105.795 35.4752 106.23 35.3472C106.691 35.2192 107.024 34.9504 107.228 34.5408C107.433 34.1312 107.561 33.5168 107.612 32.6976C107.664 31.8528 107.689 30.7264 107.689 29.3184V14.6496C107.689 13.2672 107.664 12.1664 107.612 11.3472C107.561 10.528 107.433 9.9264 107.228 9.5424C107.024 9.1584 106.691 8.9152 106.23 8.8128C105.795 8.6848 105.18 8.6208 104.387 8.6208L104.31 8.1984C104.31 8.1984 104.592 8.16 105.155 8.0832C105.718 8.0064 106.46 7.9296 107.382 7.8528C108.329 7.776 109.328 7.7376 110.377 7.7376ZM132.69 25.824C132.69 24.2112 132.639 22.9056 132.536 21.9072C132.459 20.9088 132.293 20.1536 132.037 19.6416C131.807 19.104 131.435 18.7456 130.923 18.5664C130.411 18.3872 129.733 18.2976 128.888 18.2976L128.811 17.8752C128.811 17.8752 129.131 17.8368 129.771 17.76C130.437 17.6832 131.269 17.6192 132.267 17.568C133.266 17.4912 134.303 17.4528 135.378 17.4528V27.4752C135.378 29.2928 135.403 30.7008 135.455 31.6992C135.531 32.6976 135.685 33.4016 135.915 33.8112C136.146 34.1952 136.491 34.3872 136.952 34.3872C137.285 34.3872 137.592 34.336 137.874 34.2336C138.155 34.1056 138.424 33.9776 138.68 33.8496L138.872 34.2336C138.872 34.2336 138.603 34.4 138.066 34.7328C137.554 35.04 136.863 35.36 135.992 35.6928C135.122 36.0256 134.149 36.192 133.074 36.192C132.971 35.5264 132.882 34.8224 132.805 34.08C132.728 33.312 132.69 32.3008 132.69 31.0464C132.434 31.8656 132.063 32.6848 131.576 33.504C131.115 34.3232 130.475 35.0144 129.656 35.5776C128.863 36.1152 127.839 36.384 126.584 36.384C124.613 36.384 123.141 35.8592 122.168 34.8096C121.195 33.7344 120.709 32.2112 120.709 30.24V26.5152C120.709 24.6464 120.671 23.1616 120.594 22.0608C120.543 20.96 120.389 20.1408 120.133 19.6032C119.877 19.0656 119.493 18.72 118.981 18.5664C118.495 18.3872 117.803 18.2976 116.907 18.2976L116.831 17.8752C116.831 17.8752 117.151 17.8368 117.791 17.76C118.456 17.6832 119.288 17.6192 120.287 17.568C121.285 17.4912 122.322 17.4528 123.397 17.4528V29.856C123.397 31.4944 123.653 32.8 124.165 33.7728C124.677 34.72 125.637 35.1936 127.045 35.1936C128.12 35.1936 129.016 34.8736 129.733 34.2336C130.45 33.5936 131.026 32.7872 131.461 31.8144C131.896 30.8416 132.203 29.8176 132.383 28.7424C132.587 27.6672 132.69 26.6944 132.69 25.824ZM149.946 23.52L151.214 25.632L152.327 24.0576C153.018 23.1104 153.62 22.1888 154.132 21.2928C154.67 20.3712 154.938 19.7056 154.938 19.296C154.938 18.6304 154.286 18.2976 152.98 18.2976L152.903 17.8368H159.969L159.892 18.2976C159.124 18.2976 158.497 18.3872 158.01 18.5664C157.55 18.72 157.114 19.0272 156.705 19.488C156.295 19.9232 155.809 20.5504 155.246 21.3696C154.682 22.1888 153.94 23.2512 153.018 24.5568L151.674 26.4L154.17 30.5088C155.066 31.9936 155.822 33.0944 156.436 33.8112C157.05 34.528 157.639 35.0016 158.202 35.232C158.766 35.4368 159.393 35.5392 160.084 35.5392L160.161 36H151.098L151.175 35.5392C151.892 35.5392 152.391 35.488 152.673 35.3856C152.98 35.2832 153.134 35.0656 153.134 34.7328C153.134 34.2976 152.954 33.76 152.596 33.12C152.238 32.4544 151.764 31.648 151.175 30.7008L149.793 28.4736L148.871 29.7792C148.18 30.7264 147.566 31.6608 147.028 32.5824C146.516 33.4784 146.26 34.1312 146.26 34.5408C146.26 34.8736 146.388 35.1296 146.644 35.3088C146.9 35.4624 147.374 35.5392 148.065 35.5392L148.142 36H141.038L141.114 35.5392C141.882 35.5392 142.51 35.4624 142.996 35.3088C143.482 35.1296 143.943 34.8224 144.378 34.3872C144.814 33.9264 145.326 33.2864 145.914 32.4672C146.503 31.648 147.258 30.5856 148.18 29.28L149.332 27.6672L146.951 23.712C146.03 22.2016 145.262 21.0624 144.647 20.2944C144.058 19.5008 143.521 18.976 143.034 18.72C142.548 18.4384 141.985 18.2976 141.345 18.2976L141.268 17.8368H149.562L149.486 18.2976C148.82 18.2976 148.334 18.3488 148.026 18.4512C147.745 18.5536 147.604 18.784 147.604 19.1424C147.604 19.2704 147.719 19.5776 147.95 20.064C148.206 20.5248 148.513 21.0624 148.871 21.6768C149.255 22.2912 149.614 22.9056 149.946 23.52Z"/>
</mask>
<path d="M79.6608 34.3104C79.6608 33.7216 79.4816 32.9024 79.1232 31.8528C78.7904 30.8032 78.2912 29.3824 77.6256 27.5904H65.9136C65.376 29.1776 64.9664 30.4832 64.6848 31.5072C64.4032 32.5312 64.2624 33.3376 64.2624 33.9264C64.2624 34.6688 64.5056 35.1296 64.992 35.3088C65.4784 35.4624 66.208 35.5392 67.1808 35.5392L67.2576 36H58.6176L58.6944 35.5392C59.36 35.5392 59.936 35.4624 60.4224 35.3088C60.9344 35.1552 61.408 34.8224 61.8432 34.3104C62.2784 33.7984 62.7392 33.0048 63.2256 31.9296C63.712 30.8544 64.2752 29.3824 64.9152 27.5136L68.3328 17.6448C68.8448 16.1856 69.2288 15.0464 69.4848 14.2272C69.7408 13.3824 69.9072 12.7296 69.984 12.2688C70.0864 11.808 70.1376 11.4112 70.1376 11.0784C70.1376 10.4896 69.9584 10.0928 69.6 9.888C69.2416 9.6576 68.5504 9.5424 67.5264 9.5424L67.4496 9.12H73.7856L80.5824 27.5136C81.2736 29.3824 81.8368 30.8544 82.272 31.9296C82.7328 33.0048 83.1552 33.7984 83.5392 34.3104C83.9232 34.8224 84.3328 35.1552 84.768 35.3088C85.2032 35.4624 85.7664 35.5392 86.4576 35.5392L86.5344 36H76.9344L77.0112 35.5392C77.9072 35.5392 78.5728 35.4752 79.008 35.3472C79.4432 35.1936 79.6608 34.848 79.6608 34.3104ZM71.6352 11.1936L66.2208 26.6688H77.3184L71.6352 11.1936ZM99.7257 17.2608C100.315 17.2608 100.865 17.4016 101.377 17.6832C101.889 17.9392 102.145 18.3232 102.145 18.8352C102.145 19.3472 101.979 19.744 101.646 20.0256C101.313 20.2816 100.967 20.4096 100.609 20.4096C100.225 20.4096 99.8921 20.3328 99.6105 20.1792C99.3545 20 99.0601 19.8336 98.7273 19.68C98.4201 19.5008 97.9721 19.4112 97.3833 19.4112C96.6921 19.4112 96.0905 19.8592 95.5785 20.7552C95.0665 21.6256 94.6697 22.7648 94.3881 24.1728C94.1321 25.5808 94.0041 27.0528 94.0041 28.5888C94.0041 30.2016 94.0297 31.4816 94.0809 32.4288C94.1577 33.376 94.2985 34.0672 94.5033 34.5024C94.7081 34.9376 95.0281 35.2192 95.4633 35.3472C95.8985 35.4752 96.5001 35.5392 97.2681 35.5392L97.3449 36H88.0137L88.0905 35.5392C88.8329 35.5392 89.4217 35.4752 89.8569 35.3472C90.2921 35.2192 90.6121 34.9376 90.8169 34.5024C91.0217 34.0672 91.1497 33.376 91.2009 32.4288C91.2777 31.4816 91.3161 30.2016 91.3161 28.5888V26.3616C91.3161 24.4928 91.2777 23.0208 91.2009 21.9456C91.1497 20.8448 90.9961 20.0384 90.7401 19.5264C90.5097 19.0144 90.1385 18.6944 89.6265 18.5664C89.1401 18.4128 88.4617 18.336 87.5913 18.336L87.5145 17.9136C87.5145 17.9136 87.8345 17.8752 88.4745 17.7984C89.1145 17.7216 89.9209 17.6448 90.8937 17.568C91.8921 17.4912 92.9289 17.4528 94.0041 17.4528V23.0976C94.2857 21.28 94.9129 19.8592 95.8857 18.8352C96.8841 17.7856 98.1641 17.2608 99.7257 17.2608ZM110.377 7.7376V29.3184C110.377 30.7264 110.403 31.8528 110.454 32.6976C110.505 33.5168 110.633 34.1312 110.838 34.5408C111.068 34.9504 111.401 35.2192 111.836 35.3472C112.272 35.4752 112.873 35.5392 113.641 35.5392L113.718 36H104.31L104.387 35.5392C105.18 35.5392 105.795 35.4752 106.23 35.3472C106.691 35.2192 107.024 34.9504 107.228 34.5408C107.433 34.1312 107.561 33.5168 107.612 32.6976C107.664 31.8528 107.689 30.7264 107.689 29.3184V14.6496C107.689 13.2672 107.664 12.1664 107.612 11.3472C107.561 10.528 107.433 9.9264 107.228 9.5424C107.024 9.1584 106.691 8.9152 106.23 8.8128C105.795 8.6848 105.18 8.6208 104.387 8.6208L104.31 8.1984C104.31 8.1984 104.592 8.16 105.155 8.0832C105.718 8.0064 106.46 7.9296 107.382 7.8528C108.329 7.776 109.328 7.7376 110.377 7.7376ZM132.69 25.824C132.69 24.2112 132.639 22.9056 132.536 21.9072C132.459 20.9088 132.293 20.1536 132.037 19.6416C131.807 19.104 131.435 18.7456 130.923 18.5664C130.411 18.3872 129.733 18.2976 128.888 18.2976L128.811 17.8752C128.811 17.8752 129.131 17.8368 129.771 17.76C130.437 17.6832 131.269 17.6192 132.267 17.568C133.266 17.4912 134.303 17.4528 135.378 17.4528V27.4752C135.378 29.2928 135.403 30.7008 135.455 31.6992C135.531 32.6976 135.685 33.4016 135.915 33.8112C136.146 34.1952 136.491 34.3872 136.952 34.3872C137.285 34.3872 137.592 34.336 137.874 34.2336C138.155 34.1056 138.424 33.9776 138.68 33.8496L138.872 34.2336C138.872 34.2336 138.603 34.4 138.066 34.7328C137.554 35.04 136.863 35.36 135.992 35.6928C135.122 36.0256 134.149 36.192 133.074 36.192C132.971 35.5264 132.882 34.8224 132.805 34.08C132.728 33.312 132.69 32.3008 132.69 31.0464C132.434 31.8656 132.063 32.6848 131.576 33.504C131.115 34.3232 130.475 35.0144 129.656 35.5776C128.863 36.1152 127.839 36.384 126.584 36.384C124.613 36.384 123.141 35.8592 122.168 34.8096C121.195 33.7344 120.709 32.2112 120.709 30.24V26.5152C120.709 24.6464 120.671 23.1616 120.594 22.0608C120.543 20.96 120.389 20.1408 120.133 19.6032C119.877 19.0656 119.493 18.72 118.981 18.5664C118.495 18.3872 117.803 18.2976 116.907 18.2976L116.831 17.8752C116.831 17.8752 117.151 17.8368 117.791 17.76C118.456 17.6832 119.288 17.6192 120.287 17.568C121.285 17.4912 122.322 17.4528 123.397 17.4528V29.856C123.397 31.4944 123.653 32.8 124.165 33.7728C124.677 34.72 125.637 35.1936 127.045 35.1936C128.12 35.1936 129.016 34.8736 129.733 34.2336C130.45 33.5936 131.026 32.7872 131.461 31.8144C131.896 30.8416 132.203 29.8176 132.383 28.7424C132.587 27.6672 132.69 26.6944 132.69 25.824ZM149.946 23.52L151.214 25.632L152.327 24.0576C153.018 23.1104 153.62 22.1888 154.132 21.2928C154.67 20.3712 154.938 19.7056 154.938 19.296C154.938 18.6304 154.286 18.2976 152.98 18.2976L152.903 17.8368H159.969L159.892 18.2976C159.124 18.2976 158.497 18.3872 158.01 18.5664C157.55 18.72 157.114 19.0272 156.705 19.488C156.295 19.9232 155.809 20.5504 155.246 21.3696C154.682 22.1888 153.94 23.2512 153.018 24.5568L151.674 26.4L154.17 30.5088C155.066 31.9936 155.822 33.0944 156.436 33.8112C157.05 34.528 157.639 35.0016 158.202 35.232C158.766 35.4368 159.393 35.5392 160.084 35.5392L160.161 36H151.098L151.175 35.5392C151.892 35.5392 152.391 35.488 152.673 35.3856C152.98 35.2832 153.134 35.0656 153.134 34.7328C153.134 34.2976 152.954 33.76 152.596 33.12C152.238 32.4544 151.764 31.648 151.175 30.7008L149.793 28.4736L148.871 29.7792C148.18 30.7264 147.566 31.6608 147.028 32.5824C146.516 33.4784 146.26 34.1312 146.26 34.5408C146.26 34.8736 146.388 35.1296 146.644 35.3088C146.9 35.4624 147.374 35.5392 148.065 35.5392L148.142 36H141.038L141.114 35.5392C141.882 35.5392 142.51 35.4624 142.996 35.3088C143.482 35.1296 143.943 34.8224 144.378 34.3872C144.814 33.9264 145.326 33.2864 145.914 32.4672C146.503 31.648 147.258 30.5856 148.18 29.28L149.332 27.6672L146.951 23.712C146.03 22.2016 145.262 21.0624 144.647 20.2944C144.058 19.5008 143.521 18.976 143.034 18.72C142.548 18.4384 141.985 18.2976 141.345 18.2976L141.268 17.8368H149.562L149.486 18.2976C148.82 18.2976 148.334 18.3488 148.026 18.4512C147.745 18.5536 147.604 18.784 147.604 19.1424C147.604 19.2704 147.719 19.5776 147.95 20.064C148.206 20.5248 148.513 21.0624 148.871 21.6768C149.255 22.2912 149.614 22.9056 149.946 23.52Z" fill="white"/>
<path d="M79.1232 31.8528L78.8944 31.9254L78.8961 31.9304L79.1232 31.8528ZM77.6256 27.5904L77.8506 27.5068L77.7925 27.3504H77.6256V27.5904ZM65.9136 27.5904V27.3504H65.7415L65.6863 27.5134L65.9136 27.5904ZM64.6848 31.5072L64.9162 31.5708L64.6848 31.5072ZM64.992 35.3088L64.9089 35.5343L64.9197 35.5377L64.992 35.3088ZM67.1808 35.5392L67.4175 35.4997L67.3841 35.2992H67.1808V35.5392ZM67.2576 36V36.24H67.5409L67.4943 35.9605L67.2576 36ZM58.6176 36L58.3809 35.9605L58.3343 36.24H58.6176V36ZM58.6944 35.5392V35.2992H58.4911L58.4577 35.4997L58.6944 35.5392ZM60.4224 35.3088L60.3534 35.0789L60.3501 35.0799L60.4224 35.3088ZM61.8432 34.3104L61.6603 34.155H61.6603L61.8432 34.3104ZM63.2256 31.9296L63.0069 31.8307L63.2256 31.9296ZM64.9152 27.5136L64.6884 27.4351L64.6881 27.4358L64.9152 27.5136ZM68.3328 17.6448L68.1063 17.5653L68.106 17.5663L68.3328 17.6448ZM69.4848 14.2272L69.7139 14.2988L69.7145 14.2968L69.4848 14.2272ZM69.984 12.2688L69.7494 12.2167L69.7473 12.2293L69.984 12.2688ZM69.6 9.888L69.47 10.0902L69.4809 10.0964L69.6 9.888ZM67.5264 9.5424L67.2903 9.58533L67.3261 9.7824H67.5264V9.5424ZM67.4496 9.12V8.88H67.162L67.2135 9.16293L67.4496 9.12ZM73.7856 9.12L74.0107 9.03681L73.9528 8.88H73.7856V9.12ZM80.5824 27.5136L80.3573 27.5968L80.3573 27.5969L80.5824 27.5136ZM82.272 31.9296L82.0495 32.0197L82.0514 32.0241L82.272 31.9296ZM83.5392 34.3104L83.7312 34.1664L83.5392 34.3104ZM84.768 35.3088L84.8479 35.0825L84.768 35.3088ZM86.4576 35.5392L86.6943 35.4997L86.6609 35.2992H86.4576V35.5392ZM86.5344 36V36.24H86.8177L86.7711 35.9605L86.5344 36ZM76.9344 36L76.6977 35.9605L76.6511 36.24H76.9344V36ZM77.0112 35.5392V35.2992H76.8079L76.7745 35.4997L77.0112 35.5392ZM79.008 35.3472L79.0758 35.5778L79.0879 35.5735L79.008 35.3472ZM71.6352 11.1936L71.8605 11.1109L71.6297 10.4825L71.4087 11.1143L71.6352 11.1936ZM66.2208 26.6688L65.9943 26.5895L65.8826 26.9088H66.2208V26.6688ZM77.3184 26.6688V26.9088H77.6622L77.5437 26.5861L77.3184 26.6688ZM79.9008 34.3104C79.9008 33.6813 79.7111 32.8318 79.3503 31.7752L78.8961 31.9304C79.2521 32.973 79.4208 33.7619 79.4208 34.3104H79.9008ZM79.352 31.7803C79.0175 30.7252 78.5167 29.3003 77.8506 27.5068L77.4006 27.674C78.0657 29.4645 78.5633 30.8812 78.8944 31.9253L79.352 31.7803ZM77.6256 27.3504H65.9136V27.8304H77.6256V27.3504ZM65.6863 27.5134C65.1479 29.1028 64.7367 30.4133 64.4534 31.4436L64.9162 31.5708C65.1961 30.5531 65.6041 29.2524 66.1409 27.6674L65.6863 27.5134ZM64.4534 31.4436C64.1699 32.4745 64.0224 33.3054 64.0224 33.9264H64.5024C64.5024 33.3698 64.6365 32.5879 64.9162 31.5708L64.4534 31.4436ZM64.0224 33.9264C64.0224 34.3211 64.0866 34.6644 64.2325 34.9408C64.3816 35.2233 64.6099 35.4238 64.909 35.534L65.075 35.0836C64.8877 35.0146 64.7512 34.8951 64.6571 34.7168C64.5598 34.5324 64.5024 34.2741 64.5024 33.9264H64.0224ZM64.9197 35.5377C65.442 35.7026 66.2015 35.7792 67.1808 35.7792V35.2992C66.2145 35.2992 65.5148 35.2222 65.0643 35.0799L64.9197 35.5377ZM66.9441 35.5787L67.0209 36.0395L67.4943 35.9605L67.4175 35.4997L66.9441 35.5787ZM67.2576 35.76H58.6176V36.24H67.2576V35.76ZM58.8543 36.0395L58.9311 35.5787L58.4577 35.4997L58.3809 35.9605L58.8543 36.0395ZM58.6944 35.7792C59.3775 35.7792 59.979 35.7005 60.4947 35.5377L60.3501 35.0799C59.893 35.2243 59.3425 35.2992 58.6944 35.2992V35.7792ZM60.4914 35.5387C61.0579 35.3687 61.5686 35.0041 62.0261 34.4658L61.6603 34.155C61.2474 34.6407 60.8109 34.9417 60.3534 35.0789L60.4914 35.5387ZM62.0261 34.4658C62.4827 33.9286 62.9545 33.1112 63.4443 32.0285L63.0069 31.8307C62.5239 32.8984 62.0741 33.6682 61.6603 34.155L62.0261 34.4658ZM63.4443 32.0285C63.9352 30.9433 64.5012 29.4633 65.1423 27.5914L64.6881 27.4358C64.0492 29.3015 63.4888 30.7654 63.0069 31.8307L63.4443 32.0285ZM65.142 27.5921L68.5596 17.7233L68.106 17.5663L64.6884 27.4351L65.142 27.5921ZM68.5593 17.7243C69.0716 16.2642 69.4566 15.1219 69.7139 14.2988L69.2557 14.1556C69.001 14.9709 68.618 16.107 68.1063 17.5653L68.5593 17.7243ZM69.7145 14.2968C69.9713 13.4492 70.1413 12.7846 70.2207 12.3083L69.7473 12.2293C69.6731 12.6746 69.5103 13.3156 69.2551 14.1576L69.7145 14.2968ZM70.2183 12.3209C70.323 11.8495 70.3776 11.4343 70.3776 11.0784H69.8976C69.8976 11.3881 69.8498 11.7665 69.7497 12.2167L70.2183 12.3209ZM70.3776 11.0784C70.3776 10.4443 70.182 9.94414 69.7191 9.67962L69.4809 10.0964C69.7348 10.2415 69.8976 10.5349 69.8976 11.0784H70.3776ZM69.7298 9.68612C69.5111 9.5455 69.2119 9.452 68.8523 9.39206C68.4892 9.33155 68.0462 9.3024 67.5264 9.3024V9.7824C68.0306 9.7824 68.4452 9.81085 68.7733 9.86553C69.1049 9.92079 69.3305 10.0001 69.4702 10.0899L69.7298 9.68612ZM67.7625 9.49947L67.6857 9.07706L67.2135 9.16293L67.2903 9.58533L67.7625 9.49947ZM67.4496 9.36H73.7856V8.88H67.4496V9.36ZM73.5605 9.20318L80.3573 27.5968L80.8075 27.4304L74.0107 9.03681L73.5605 9.20318ZM80.3573 27.5969C81.0488 29.4666 81.613 30.9412 82.0495 32.0196L82.4945 31.8396C82.0606 30.7676 81.4984 29.2982 80.8075 27.4303L80.3573 27.5969ZM82.0514 32.0241C82.5146 33.105 82.9459 33.9194 83.3472 34.4544L83.7312 34.1664C83.3645 33.6774 82.951 32.9046 82.4926 31.8351L82.0514 32.0241ZM83.3472 34.4544C83.749 34.9901 84.194 35.3607 84.6881 35.5351L84.8479 35.0825C84.4716 34.9497 84.0974 34.6547 83.7312 34.1664L83.3472 34.4544ZM84.6881 35.5351C85.1584 35.7011 85.7514 35.7792 86.4576 35.7792V35.2992C85.7814 35.2992 85.248 35.2237 84.8479 35.0825L84.6881 35.5351ZM86.2209 35.5787L86.2977 36.0395L86.7711 35.9605L86.6943 35.4997L86.2209 35.5787ZM86.5344 35.76H76.9344V36.24H86.5344V35.76ZM77.1711 36.0395L77.2479 35.5787L76.7745 35.4997L76.6977 35.9605L77.1711 36.0395ZM77.0112 35.7792C77.9124 35.7792 78.6063 35.7155 79.0757 35.5774L78.9403 35.117C78.5393 35.2349 77.902 35.2992 77.0112 35.2992V35.7792ZM79.0879 35.5735C79.3495 35.4812 79.5594 35.3251 79.7007 35.1007C79.8401 34.8792 79.9008 34.6104 79.9008 34.3104H79.4208C79.4208 34.548 79.3727 34.7208 79.2945 34.8449C79.2182 34.9661 79.1017 35.0596 78.9281 35.1209L79.0879 35.5735ZM71.4087 11.1143L65.9943 26.5895L66.4473 26.7481L71.8617 11.2729L71.4087 11.1143ZM66.2208 26.9088H77.3184V26.4288H66.2208V26.9088ZM77.5437 26.5861L71.8605 11.1109L71.4099 11.2763L77.0931 26.7515L77.5437 26.5861ZM101.377 17.6832L101.261 17.8937L101.27 17.8979L101.377 17.6832ZM101.646 20.0256L101.792 20.216L101.801 20.2088L101.646 20.0256ZM99.6105 20.1792L99.4729 20.3758L99.4838 20.3835L99.4956 20.3899L99.6105 20.1792ZM98.7273 19.68L98.6064 19.8873L98.6163 19.8931L98.6267 19.8979L98.7273 19.68ZM95.5785 20.7552L95.7854 20.8769L95.7869 20.8743L95.5785 20.7552ZM94.3881 24.1728L94.1527 24.1257L94.152 24.1299L94.3881 24.1728ZM94.0809 32.4288L93.8412 32.4418L93.8417 32.4482L94.0809 32.4288ZM94.5033 34.5024L94.2861 34.6046L94.5033 34.5024ZM95.4633 35.3472L95.531 35.117L95.4633 35.3472ZM97.2681 35.5392L97.5048 35.4997L97.4714 35.2992H97.2681V35.5392ZM97.3449 36V36.24H97.6282L97.5816 35.9605L97.3449 36ZM88.0137 36L87.777 35.9605L87.7304 36.24H88.0137V36ZM88.0905 35.5392V35.2992H87.8872L87.8538 35.4997L88.0905 35.5392ZM89.8569 35.3472L89.9246 35.5774L89.8569 35.3472ZM90.8169 34.5024L91.0341 34.6046L90.8169 34.5024ZM91.2009 32.4288L90.9616 32.4094L90.9613 32.4158L91.2009 32.4288ZM91.2009 21.9456L90.9611 21.9568L90.9615 21.9627L91.2009 21.9456ZM90.7401 19.5264L90.5211 19.625L90.5254 19.6337L90.7401 19.5264ZM89.6265 18.5664L89.5542 18.7953L89.5612 18.7975L89.5683 18.7992L89.6265 18.5664ZM87.5913 18.336L87.3552 18.3789L87.391 18.576H87.5913V18.336ZM87.5145 17.9136L87.4859 17.6753L87.2328 17.7057L87.2784 17.9565L87.5145 17.9136ZM88.4745 17.7984L88.4459 17.5601L88.4745 17.7984ZM90.8937 17.568L90.8753 17.3287L90.8748 17.3287L90.8937 17.568ZM94.0041 17.4528H94.2441V17.2128H94.0041V17.4528ZM94.0041 23.0976H93.7641L94.2413 23.1343L94.0041 23.0976ZM95.8857 18.8352L95.7118 18.6698L95.7117 18.6699L95.8857 18.8352ZM99.7257 17.5008C100.274 17.5008 100.785 17.6315 101.261 17.8935L101.493 17.4729C100.945 17.1717 100.355 17.0208 99.7257 17.0208V17.5008ZM101.27 17.8979C101.497 18.0116 101.653 18.1465 101.753 18.2963C101.852 18.4446 101.905 18.6212 101.905 18.8352H102.385C102.385 18.5372 102.31 18.2657 102.153 18.0301C101.996 17.7959 101.769 17.6108 101.484 17.4685L101.27 17.8979ZM101.905 18.8352C101.905 19.2902 101.76 19.6145 101.491 19.8424L101.801 20.2088C102.197 19.8735 102.385 19.4042 102.385 18.8352H101.905ZM101.499 19.8354C101.201 20.0648 100.906 20.1696 100.609 20.1696V20.6496C101.029 20.6496 101.425 20.4983 101.792 20.2158L101.499 19.8354ZM100.609 20.1696C100.257 20.1696 99.9654 20.0994 99.7254 19.9685L99.4956 20.3899C99.8188 20.5662 100.193 20.6496 100.609 20.6496V20.1696ZM99.7481 19.9826C99.4786 19.7939 99.1715 19.6207 98.8279 19.4621L98.6267 19.8979C98.9487 20.0465 99.2304 20.2061 99.4729 20.3758L99.7481 19.9826ZM98.8482 19.4727C98.4876 19.2623 97.9898 19.1712 97.3833 19.1712V19.6512C97.9544 19.6512 98.3526 19.7393 98.6064 19.8873L98.8482 19.4727ZM97.3833 19.1712C96.568 19.1712 95.9019 19.7056 95.3701 20.6361L95.7869 20.8743C96.2791 20.0128 96.8163 19.6512 97.3833 19.6512V19.1712ZM95.3716 20.6335C94.8416 21.5345 94.4376 22.7016 94.1528 24.1257L94.6234 24.2199C94.9018 22.828 95.2914 21.7167 95.7854 20.8769L95.3716 20.6335ZM94.152 24.1299C93.8932 25.553 93.7641 27.0394 93.7641 28.5888H94.2441C94.2441 27.0662 94.371 25.6086 94.6242 24.2157L94.152 24.1299ZM93.7641 28.5888C93.7641 30.2034 93.7897 31.4883 93.8413 32.4418L94.3206 32.4158C94.2697 31.4749 94.2441 30.1998 94.2441 28.5888H93.7641ZM93.8417 32.4482C93.919 33.4017 94.0622 34.1287 94.2861 34.6046L94.7205 34.4002C94.5348 34.0057 94.3964 33.3503 94.3201 32.4094L93.8417 32.4482ZM94.2861 34.6046C94.5182 35.0976 94.8902 35.4288 95.3956 35.5774L95.531 35.117C95.166 35.0096 94.898 34.7776 94.7205 34.4002L94.2861 34.6046ZM95.3956 35.5774C95.8628 35.7149 96.4907 35.7792 97.2681 35.7792V35.2992C96.5095 35.2992 95.9342 35.2355 95.531 35.117L95.3956 35.5774ZM97.0314 35.5787L97.1082 36.0395L97.5816 35.9605L97.5048 35.4997L97.0314 35.5787ZM97.3449 35.76H88.0137V36.24H97.3449V35.76ZM88.2504 36.0395L88.3272 35.5787L87.8538 35.4997L87.777 35.9605L88.2504 36.0395ZM88.0905 35.7792C88.8432 35.7792 89.458 35.7147 89.9246 35.5774L89.7892 35.117C89.3855 35.2357 88.8226 35.2992 88.0905 35.2992V35.7792ZM89.9246 35.5774C90.43 35.4288 90.802 35.0976 91.0341 34.6046L90.5997 34.4002C90.4222 34.7776 90.1542 35.0096 89.7892 35.117L89.9246 35.5774ZM91.0341 34.6046C91.2594 34.1256 91.389 33.3957 91.4406 32.4418L90.9613 32.4158C90.9104 33.3563 90.784 34.0088 90.5997 34.4002L91.0341 34.6046ZM91.4401 32.4482C91.5177 31.4916 91.5561 30.2043 91.5561 28.5888H91.0761C91.0761 30.1989 91.0377 31.4716 90.9617 32.4094L91.4401 32.4482ZM91.5561 28.5888V26.3616H91.0761V28.5888H91.5561ZM91.5561 26.3616C91.5561 24.4906 91.5177 23.012 91.4403 21.9285L90.9615 21.9627C91.0377 23.0296 91.0761 24.495 91.0761 26.3616H91.5561ZM91.4406 21.9344C91.3891 20.8255 91.234 19.9775 90.9548 19.4191L90.5254 19.6337C90.7582 20.0993 90.9103 20.8641 90.9612 21.9567L91.4406 21.9344ZM90.959 19.4279C90.7006 18.8538 90.2731 18.4807 89.6847 18.3336L89.5683 18.7992C90.0039 18.9081 90.3188 19.175 90.5212 19.6249L90.959 19.4279ZM89.6988 18.3375C89.1782 18.1731 88.4715 18.096 87.5913 18.096V18.576C88.4519 18.576 89.102 18.6525 89.5542 18.7953L89.6988 18.3375ZM87.8274 18.2931L87.7506 17.8707L87.2784 17.9565L87.3552 18.3789L87.8274 18.2931ZM87.5145 17.9136C87.5431 18.1519 87.5431 18.1519 87.5431 18.1519C87.5431 18.1519 87.5431 18.1519 87.5431 18.1519C87.5431 18.1519 87.5431 18.1519 87.5432 18.1519C87.5433 18.1519 87.5431 18.1519 87.5433 18.1519C87.5436 18.1518 87.5433 18.1519 87.5436 18.1518C87.5443 18.1517 87.5433 18.1519 87.544 18.1518C87.5448 18.1517 87.5455 18.1516 87.5468 18.1514C87.5483 18.1513 87.5473 18.1514 87.549 18.1512C87.5501 18.151 87.549 18.1512 87.5502 18.151C87.5526 18.1508 87.5491 18.1512 87.5515 18.1509C87.5519 18.1508 87.5518 18.1508 87.5523 18.1508C87.5524 18.1508 87.5525 18.1508 87.5526 18.1507C87.5527 18.1507 87.5529 18.1507 87.553 18.1507C87.554 18.1506 87.5528 18.1507 87.5538 18.1506C87.5539 18.1506 87.554 18.1506 87.5542 18.1506C87.5543 18.1505 87.5544 18.1505 87.5546 18.1505C87.5552 18.1504 87.5556 18.1504 87.5563 18.1503C87.5572 18.1502 87.5563 18.1503 87.5572 18.1502C87.5572 18.1502 87.558 18.1501 87.5581 18.1501C87.5627 18.1495 87.5613 18.1497 87.5665 18.1491C87.5735 18.1482 87.5693 18.1487 87.5768 18.1478C87.5946 18.1457 87.5829 18.1471 87.6031 18.1447C87.6061 18.1443 87.6313 18.1413 87.6368 18.1406C87.6409 18.1401 87.6518 18.1388 87.6565 18.1383C87.657 18.1382 87.6574 18.1382 87.6578 18.1381C87.6583 18.1381 87.6587 18.138 87.6591 18.138C87.6636 18.1374 87.6573 18.1382 87.6617 18.1377C87.6654 18.1372 87.6634 18.1375 87.6671 18.137C87.6786 18.1356 87.6664 18.1371 87.6781 18.1357C87.6784 18.1357 87.6806 18.1354 87.6809 18.1353C87.6856 18.1348 87.6791 18.1356 87.6838 18.135C87.6881 18.1345 87.6853 18.1348 87.6896 18.1343C87.6971 18.1334 87.6879 18.1345 87.6955 18.1336C87.696 18.1335 87.6965 18.1335 87.697 18.1334C87.6975 18.1334 87.698 18.1333 87.6985 18.1332C87.6992 18.1332 87.7008 18.133 87.7015 18.1329C87.7126 18.1315 87.7028 18.1327 87.714 18.1314C87.7163 18.1311 87.7244 18.1301 87.7268 18.1298C87.7284 18.1296 87.779 18.1236 87.7831 18.1231C87.8007 18.121 87.7959 18.1216 87.814 18.1194C87.8142 18.1194 87.8219 18.1184 87.8221 18.1184C87.8404 18.1162 87.8119 18.1196 87.8302 18.1174C87.8339 18.117 87.8306 18.1174 87.8343 18.1169C87.835 18.1169 87.8357 18.1168 87.8364 18.1167C87.8371 18.1166 87.8378 18.1165 87.8385 18.1164C87.8414 18.1161 87.8439 18.1158 87.8468 18.1154C87.8858 18.1108 87.8767 18.1119 87.9181 18.1069C87.9262 18.1059 87.9194 18.1067 87.9275 18.1058C87.9308 18.1054 87.9338 18.105 87.9371 18.1046C87.9564 18.1023 87.9371 18.1046 87.9565 18.1023C87.9705 18.1006 87.9823 18.0992 87.9968 18.0974C88.0149 18.0953 88.0204 18.0946 88.039 18.0924C88.0542 18.0906 88.0673 18.089 88.0831 18.0871C88.084 18.087 88.085 18.0869 88.0859 18.0868C88.0869 18.0866 88.0878 18.0865 88.0887 18.0864C88.0918 18.086 88.0913 18.0861 88.0944 18.0857C88.1017 18.0849 88.0985 18.0852 88.1058 18.0844C88.1098 18.0839 88.1133 18.0835 88.1174 18.083C88.1195 18.0827 88.121 18.0825 88.1232 18.0823C88.1242 18.0822 88.1251 18.082 88.1261 18.0819C88.1271 18.0818 88.1281 18.0817 88.129 18.0816C88.1509 18.0789 88.1543 18.0785 88.1768 18.0758C88.1852 18.0748 88.193 18.0739 88.2015 18.0729C88.2025 18.0728 88.2035 18.0726 88.2046 18.0725C88.2056 18.0724 88.2066 18.0723 88.2077 18.0721C88.2087 18.072 88.2098 18.0719 88.2108 18.0718C88.2118 18.0716 88.2129 18.0715 88.2139 18.0714C88.2167 18.0711 88.2175 18.071 88.2202 18.0706C88.2246 18.0701 88.2221 18.0704 88.2265 18.0699C88.2434 18.0679 88.2606 18.0658 88.2781 18.0637C88.2825 18.0632 88.2869 18.0626 88.2913 18.0621C88.2924 18.062 88.2935 18.0618 88.2946 18.0617C88.2957 18.0616 88.2968 18.0614 88.2979 18.0613C88.3001 18.061 88.3024 18.0608 88.3046 18.0605C88.3066 18.0603 88.3092 18.06 88.3113 18.0597C88.3136 18.0594 88.3157 18.0592 88.318 18.0589C88.3191 18.0588 88.3202 18.0586 88.3214 18.0585C88.3225 18.0584 88.3236 18.0582 88.3248 18.0581C88.3314 18.0573 88.3249 18.0581 88.3315 18.0573C88.3502 18.055 88.3676 18.053 88.3868 18.0506C88.3917 18.0501 88.3961 18.0495 88.401 18.0489C88.4021 18.0488 88.4033 18.0487 88.4045 18.0485C88.4057 18.0484 88.4069 18.0482 88.4081 18.0481C88.4093 18.0479 88.4104 18.0478 88.4116 18.0477C88.4128 18.0475 88.414 18.0474 88.4152 18.0472C88.4235 18.0462 88.414 18.0474 88.4224 18.0464C88.4236 18.0462 88.4248 18.0461 88.426 18.0459C88.4272 18.0458 88.4284 18.0457 88.4296 18.0455C88.4402 18.0442 88.4334 18.0451 88.444 18.0438C88.4452 18.0436 88.4465 18.0435 88.4477 18.0433C88.4489 18.0432 88.4501 18.043 88.4513 18.0429C88.455 18.0425 88.455 18.0425 88.4586 18.042C88.4587 18.042 88.4732 18.0403 88.4733 18.0403C88.4757 18.04 88.4783 18.0397 88.4807 18.0394C88.4933 18.0379 88.4756 18.04 88.4882 18.0385C88.4894 18.0383 88.4906 18.0382 88.4919 18.038C88.4931 18.0379 88.4944 18.0377 88.4956 18.0376C88.4976 18.0374 88.5011 18.0369 88.5031 18.0367L88.4459 17.5601C88.141 17.5967 87.8708 17.6291 87.7259 17.6465C87.6589 17.6546 87.573 17.6649 87.5459 17.6681C87.5374 17.6691 87.5397 17.6689 87.5318 17.6698C87.5132 17.672 87.5377 17.6691 87.5197 17.6713C87.5172 17.6715 87.5207 17.6711 87.5183 17.6714C87.5169 17.6716 87.5182 17.6714 87.5169 17.6716C87.5135 17.672 87.519 17.6713 87.5156 17.6717C87.5154 17.6718 87.5151 17.6718 87.5149 17.6718C87.5147 17.6719 87.5145 17.6719 87.5143 17.6719C87.5074 17.6727 87.5186 17.6714 87.5117 17.6722C87.5113 17.6723 87.511 17.6723 87.5105 17.6724C87.5103 17.6724 87.5101 17.6724 87.5099 17.6724C87.5097 17.6724 87.5095 17.6725 87.5093 17.6725C87.5069 17.6728 87.5027 17.6733 87.5009 17.6735C87.4919 17.6746 87.4962 17.6741 87.4897 17.6749C87.4881 17.675 87.4878 17.6751 87.4868 17.6752C87.4868 17.6752 87.4868 17.6752 87.4867 17.6752C87.4867 17.6752 87.4867 17.6752 87.4866 17.6752C87.4861 17.6753 87.487 17.6752 87.4864 17.6752C87.4863 17.6753 87.4862 17.6753 87.4861 17.6753C87.4861 17.6753 87.4861 17.6753 87.4861 17.6753C87.4861 17.6753 87.4861 17.6753 87.486 17.6753C87.4859 17.6753 87.4861 17.6753 87.486 17.6753C87.486 17.6753 87.4859 17.6753 87.4859 17.6753C87.4859 17.6753 87.4859 17.6753 87.4859 17.6753C87.4859 17.6753 87.4859 17.6753 87.5145 17.9136ZM88.5031 18.0367C89.1387 17.9604 89.9416 17.8839 90.9126 17.8073L90.8748 17.3287C89.9002 17.4057 89.0903 17.4828 88.4459 17.5601L88.5031 18.0367ZM90.9121 17.8073C91.904 17.731 92.9346 17.6928 94.0041 17.6928V17.2128C92.9232 17.2128 91.8802 17.2514 90.8753 17.3287L90.9121 17.8073ZM93.7641 17.4528V23.0976H94.2441V17.4528H93.7641ZM94.2413 23.1343C94.5176 21.3505 95.1294 19.9798 96.0597 19.0005L95.7117 18.6699C94.6964 19.7386 94.0538 21.2094 93.7669 23.0609L94.2413 23.1343ZM96.0596 19.0006C97.0089 18.0026 98.2241 17.5008 99.7257 17.5008V17.0208C98.1041 17.0208 96.7593 17.5686 95.7118 18.6698L96.0596 19.0006ZM110.377 7.7376H110.617V7.4976H110.377V7.7376ZM110.454 32.6976L110.214 32.7121L110.214 32.7126L110.454 32.6976ZM110.838 34.5408L110.623 34.6483L110.629 34.6585L110.838 34.5408ZM111.836 35.3472L111.904 35.117L111.836 35.3472ZM113.641 35.5392L113.878 35.4997L113.845 35.2992H113.641V35.5392ZM113.718 36V36.24H114.001L113.955 35.9605L113.718 36ZM104.31 36L104.073 35.9605L104.027 36.24H104.31V36ZM104.387 35.5392V35.2992H104.183L104.15 35.4997L104.387 35.5392ZM106.23 35.3472L106.166 35.1159L106.162 35.117L106.23 35.3472ZM107.228 34.5408L107.014 34.4335L107.228 34.5408ZM107.612 32.6976L107.852 32.7126L107.852 32.7121L107.612 32.6976ZM107.612 11.3472L107.852 11.3322L107.612 11.3472ZM107.228 9.5424L107.017 9.65534L107.017 9.65534L107.228 9.5424ZM106.23 8.8128L106.162 9.04305L106.17 9.04533L106.178 9.04708L106.23 8.8128ZM104.387 8.6208L104.151 8.66373L104.187 8.8608H104.387V8.6208ZM104.31 8.1984L104.278 7.9606L104.029 7.9945L104.074 8.24133L104.31 8.1984ZM105.155 8.0832L105.122 7.8454L105.155 8.0832ZM107.382 7.8528L107.363 7.61358L107.362 7.61363L107.382 7.8528ZM110.137 7.7376V29.3184H110.617V7.7376H110.137ZM110.137 29.3184C110.137 30.7285 110.163 31.8604 110.214 32.7121L110.694 32.6831C110.643 31.8452 110.617 30.7243 110.617 29.3184H110.137ZM110.214 32.7126C110.266 33.5425 110.397 34.1953 110.623 34.6481L111.053 34.4335C110.869 34.0671 110.744 33.4911 110.694 32.6826L110.214 32.7126ZM110.629 34.6585C110.889 35.1204 111.271 35.4311 111.769 35.5774L111.904 35.117C111.531 35.0073 111.248 34.7804 111.047 34.4231L110.629 34.6585ZM111.769 35.5774C112.236 35.7149 112.864 35.7792 113.641 35.7792V35.2992C112.883 35.2992 112.307 35.2355 111.904 35.117L111.769 35.5774ZM113.404 35.5787L113.481 36.0395L113.955 35.9605L113.878 35.4997L113.404 35.5787ZM113.718 35.76H104.31V36.24H113.718V35.76ZM104.547 36.0395L104.624 35.5787L104.15 35.4997L104.073 35.9605L104.547 36.0395ZM104.387 35.7792C105.189 35.7792 105.83 35.715 106.298 35.5774L106.162 35.117C105.76 35.2354 105.172 35.2992 104.387 35.2992V35.7792ZM106.294 35.5784C106.817 35.4332 107.206 35.1214 107.443 34.6481L107.014 34.4335C106.841 34.7794 106.564 35.0052 106.166 35.116L106.294 35.5784ZM107.443 34.6481C107.669 34.1953 107.8 33.5425 107.852 32.7126L107.373 32.6826C107.322 33.4911 107.197 34.0671 107.014 34.4335L107.443 34.6481ZM107.852 32.7121C107.904 31.8604 107.929 30.7285 107.929 29.3184H107.449C107.449 30.7243 107.424 31.8452 107.373 32.6831L107.852 32.7121ZM107.929 29.3184V14.6496H107.449V29.3184H107.929ZM107.929 14.6496C107.929 13.2651 107.904 12.1586 107.852 11.3322L107.373 11.3622C107.424 12.1742 107.449 13.2693 107.449 14.6496H107.929ZM107.852 11.3322C107.8 10.5038 107.67 9.86002 107.44 9.42946L107.017 9.65534C107.197 9.99278 107.322 10.5522 107.373 11.3622L107.852 11.3322ZM107.44 9.42946C107.199 8.97795 106.805 8.69466 106.282 8.57851L106.178 9.04708C106.577 9.13574 106.848 9.33884 107.017 9.65534L107.44 9.42946ZM106.298 8.58255C105.83 8.44499 105.189 8.3808 104.387 8.3808V8.8608C105.172 8.8608 105.76 8.9246 106.162 9.04305L106.298 8.58255ZM104.623 8.57786L104.546 8.15547L104.074 8.24133L104.151 8.66373L104.623 8.57786ZM104.31 8.1984C104.342 8.4362 104.342 8.4362 104.342 8.4362C104.342 8.4362 104.342 8.4362 104.342 8.4362C104.342 8.43619 104.342 8.43619 104.342 8.43619C104.342 8.43619 104.343 8.43618 104.343 8.43618C104.343 8.43616 104.342 8.43619 104.343 8.43617C104.343 8.43615 104.343 8.43616 104.343 8.43613C104.343 8.43608 104.343 8.43614 104.343 8.43608C104.344 8.43599 104.344 8.43592 104.346 8.43575C104.359 8.43391 104.34 8.43653 104.356 8.4344C104.367 8.43286 104.375 8.43174 104.395 8.429C104.418 8.42583 104.4 8.42841 104.425 8.42495C104.426 8.42473 104.44 8.42287 104.442 8.42258C104.443 8.42253 104.443 8.42248 104.443 8.42243C104.444 8.42238 104.444 8.42233 104.445 8.42227C104.455 8.42086 104.436 8.42337 104.447 8.42196C104.45 8.42147 104.448 8.42181 104.452 8.42132C104.453 8.42106 104.452 8.42126 104.454 8.42099C104.454 8.42094 104.455 8.42088 104.455 8.42083C104.456 8.42077 104.456 8.42072 104.456 8.42066C104.468 8.41901 104.449 8.42166 104.461 8.42C104.486 8.41663 104.477 8.41782 104.504 8.41415C104.52 8.41194 104.5 8.41477 104.516 8.41254C104.518 8.4122 104.519 8.41207 104.522 8.41172C104.53 8.4106 104.52 8.41201 104.528 8.41088C104.533 8.41018 104.535 8.40989 104.541 8.40917C104.543 8.40884 104.551 8.40774 104.554 8.4074C104.615 8.39898 104.721 8.38462 104.818 8.3714C104.866 8.36478 104.932 8.35581 104.989 8.348C104.99 8.34796 105.001 8.34646 105.001 8.34641C105.005 8.34591 105.003 8.34612 105.007 8.34562C105.008 8.34548 105.009 8.34535 105.01 8.34522C105.011 8.34509 105.012 8.34495 105.013 8.34482C105.014 8.34468 105.014 8.34455 105.015 8.34442C105.016 8.34428 105.017 8.34415 105.018 8.34401C105.019 8.34388 105.02 8.34375 105.021 8.34361C105.022 8.34348 105.023 8.34334 105.024 8.34321C105.028 8.34267 105.032 8.34212 105.036 8.34158C105.052 8.33943 105.069 8.33718 105.085 8.33495C105.094 8.33376 105.089 8.33444 105.097 8.33325C105.114 8.33097 105.093 8.33383 105.11 8.33154C105.119 8.33029 105.107 8.33194 105.116 8.33068C105.117 8.33054 105.118 8.3304 105.119 8.33025C105.12 8.33011 105.121 8.32996 105.123 8.32982C105.124 8.32968 105.125 8.32953 105.126 8.32939C105.127 8.32924 105.128 8.3291 105.129 8.32895C105.132 8.32855 105.132 8.32849 105.135 8.32808C105.159 8.32482 105.163 8.32434 105.187 8.321L105.122 7.8454C105.094 7.84925 105.098 7.8487 105.07 7.85249C105.062 7.85369 105.066 7.85303 105.058 7.85422C105.049 7.85547 105.06 7.85384 105.051 7.85508C105.046 7.85578 105.05 7.85525 105.045 7.85594C105.045 7.85601 105.039 7.85674 105.039 7.8568C105.038 7.85694 105.037 7.85709 105.036 7.85723C105.035 7.85737 105.034 7.85751 105.033 7.85765C105.031 7.85779 105.03 7.85794 105.029 7.85808C105.028 7.85822 105.027 7.85836 105.026 7.8585C105.025 7.85871 105.022 7.85914 105.02 7.85935C105.019 7.85949 105.018 7.85963 105.017 7.85977C105.016 7.85991 105.015 7.86005 105.014 7.86019C105.013 7.86029 105.008 7.86093 105.008 7.86103C105 7.86208 105.009 7.86081 105.002 7.86186C104.998 7.86232 104.999 7.86224 104.996 7.86269C104.975 7.86553 105.004 7.86151 104.983 7.86435C104.973 7.86572 104.987 7.8638 104.977 7.86517C104.976 7.8653 104.975 7.86544 104.974 7.86558C104.973 7.86571 104.972 7.86585 104.971 7.86598C104.967 7.86653 104.963 7.86707 104.959 7.86761C104.957 7.86796 104.956 7.86807 104.954 7.86842C104.943 7.86985 104.958 7.86779 104.948 7.86922C104.941 7.87016 104.931 7.87148 104.924 7.8724C104.908 7.87464 104.929 7.87173 104.913 7.87397C104.897 7.87607 104.917 7.87342 104.901 7.87552C104.901 7.87565 104.9 7.87578 104.899 7.87591C104.898 7.87603 104.897 7.87616 104.896 7.87629C104.895 7.87644 104.891 7.87691 104.89 7.87706C104.877 7.87884 104.892 7.87681 104.879 7.87859C104.86 7.88114 104.853 7.88206 104.835 7.88455C104.819 7.88682 104.809 7.88808 104.793 7.89029C104.782 7.89177 104.794 7.8902 104.783 7.89168C104.776 7.89261 104.78 7.89215 104.773 7.89307C104.767 7.89386 104.768 7.89366 104.763 7.89444C104.761 7.89465 104.754 7.89559 104.753 7.8958C104.745 7.8969 104.756 7.89537 104.748 7.89647C104.729 7.89904 104.762 7.89458 104.743 7.89714C104.737 7.8979 104.739 7.89772 104.733 7.89847C104.726 7.89938 104.73 7.89888 104.724 7.89978C104.721 7.9001 104.721 7.90012 104.719 7.90044C104.718 7.90055 104.717 7.90065 104.716 7.90076C104.716 7.90087 104.715 7.90098 104.714 7.90109C104.69 7.90434 104.719 7.9004 104.695 7.90364C104.689 7.90447 104.692 7.90409 104.686 7.9049C104.665 7.90775 104.698 7.90331 104.677 7.90615C104.676 7.90629 104.642 7.91092 104.641 7.91099C104.612 7.91501 104.637 7.91164 104.608 7.9156C104.587 7.91842 104.612 7.91502 104.591 7.91782C104.589 7.91807 104.589 7.91811 104.587 7.91837C104.587 7.91846 104.586 7.91855 104.585 7.91864C104.585 7.91873 104.584 7.91882 104.583 7.91891C104.578 7.91962 104.581 7.91928 104.575 7.91999C104.559 7.92223 104.576 7.91987 104.56 7.92209C104.557 7.92249 104.555 7.92274 104.552 7.92313C104.549 7.9236 104.548 7.92368 104.545 7.92415C104.542 7.92447 104.532 7.92584 104.53 7.92615C104.525 7.92687 104.532 7.92591 104.527 7.92664C104.521 7.9274 104.529 7.92636 104.523 7.92712C104.521 7.92742 104.518 7.92779 104.516 7.92809C104.507 7.92925 104.497 7.93071 104.489 7.9318C104.462 7.93552 104.49 7.93164 104.463 7.93529C104.452 7.93676 104.45 7.93715 104.439 7.93855C104.439 7.93861 104.438 7.93868 104.438 7.93874C104.437 7.93881 104.437 7.93888 104.436 7.93894C104.436 7.93896 104.434 7.93931 104.434 7.93933C104.433 7.93939 104.433 7.93946 104.432 7.93952C104.432 7.93959 104.431 7.93965 104.431 7.93971C104.43 7.93986 104.429 7.93995 104.428 7.94009C104.427 7.94016 104.427 7.94022 104.427 7.94028C104.426 7.94035 104.426 7.94041 104.425 7.94047C104.425 7.94054 104.424 7.9406 104.424 7.94066C104.423 7.94072 104.423 7.94079 104.422 7.94085C104.412 7.94227 104.427 7.94017 104.417 7.94159C104.411 7.94244 104.402 7.94362 104.396 7.9444C104.391 7.94509 104.397 7.94437 104.391 7.94507C104.39 7.94521 104.388 7.94559 104.387 7.94572C104.385 7.9459 104.386 7.94586 104.384 7.94604C104.384 7.94609 104.384 7.94615 104.383 7.9462C104.383 7.94625 104.382 7.94631 104.382 7.94636C104.382 7.94641 104.381 7.94647 104.381 7.94652C104.38 7.94657 104.38 7.94662 104.38 7.94667C104.379 7.94682 104.378 7.94684 104.377 7.94699C104.361 7.94917 104.376 7.94724 104.36 7.94935C104.344 7.95152 104.344 7.95152 104.33 7.9534C104.326 7.95396 104.331 7.95328 104.327 7.95384C104.318 7.95514 104.333 7.95297 104.324 7.95427C104.316 7.95531 104.329 7.95365 104.321 7.95468C104.308 7.95651 104.331 7.95326 104.318 7.95509C104.317 7.95527 104.316 7.95529 104.315 7.95547C104.314 7.9556 104.315 7.95553 104.314 7.95566C104.312 7.9559 104.314 7.95561 104.312 7.95584C104.311 7.95603 104.312 7.95585 104.311 7.95603C104.311 7.95606 104.31 7.95617 104.31 7.9562C104.308 7.95647 104.309 7.95628 104.307 7.95655C104.303 7.95715 104.293 7.9585 104.291 7.9588C104.284 7.95976 104.291 7.9587 104.285 7.95959C104.284 7.95975 104.282 7.96006 104.281 7.96015C104.279 7.96038 104.28 7.96033 104.278 7.96049C104.278 7.96051 104.278 7.96049 104.278 7.96051C104.278 7.96054 104.278 7.9605 104.278 7.96054C104.278 7.96056 104.278 7.96055 104.278 7.96057C104.278 7.96058 104.278 7.96059 104.278 7.96059C104.278 7.96059 104.278 7.9606 104.278 7.9606C104.278 7.9606 104.278 7.9606 104.278 7.9606C104.278 7.9606 104.278 7.9606 104.31 8.1984ZM105.187 8.321C105.745 8.245 106.482 8.16861 107.402 8.09197L107.362 7.61363C106.439 7.69059 105.691 7.76779 105.122 7.8454L105.187 8.321ZM107.401 8.09201C108.342 8.01579 109.333 7.9776 110.377 7.9776V7.4976C109.322 7.4976 108.317 7.53621 107.363 7.61358L107.401 8.09201ZM132.536 21.9072L132.297 21.9256L132.297 21.9317L132.536 21.9072ZM132.037 19.6416L131.816 19.7363L131.822 19.7489L132.037 19.6416ZM130.923 18.5664L131.003 18.3399L130.923 18.5664ZM128.888 18.2976L128.652 18.3405L128.688 18.5376H128.888V18.2976ZM128.811 17.8752L128.783 17.6369L128.53 17.6673L128.575 17.9181L128.811 17.8752ZM129.771 17.76L129.744 17.5216L129.743 17.5217L129.771 17.76ZM132.267 17.568L132.28 17.8078L132.286 17.8073L132.267 17.568ZM135.378 17.4528H135.618V17.2128H135.378V17.4528ZM135.454 31.6992L135.215 31.7115L135.215 31.7176L135.454 31.6992ZM135.915 33.8112L135.706 33.9289L135.71 33.9347L135.915 33.8112ZM137.874 34.2336L137.956 34.4591L137.965 34.456L137.973 34.4521L137.874 34.2336ZM138.68 33.8496L138.895 33.7423L138.787 33.5276L138.573 33.6349L138.68 33.8496ZM138.872 34.2336L138.998 34.4377L139.185 34.3223L139.087 34.1263L138.872 34.2336ZM138.066 34.7328L138.189 34.9386L138.192 34.9369L138.066 34.7328ZM135.992 35.6928L136.078 35.917L135.992 35.6928ZM133.074 36.192L132.836 36.2285L132.868 36.432H133.074V36.192ZM132.805 34.08L132.566 34.1039L132.566 34.1047L132.805 34.08ZM132.69 31.0464H132.93L132.461 30.9748L132.69 31.0464ZM131.576 33.504L131.37 33.3814L131.367 33.3863L131.576 33.504ZM129.656 35.5776L129.791 35.7763L129.792 35.7754L129.656 35.5776ZM122.168 34.8096L121.99 34.9706L121.992 34.9727L122.168 34.8096ZM120.594 22.0608L120.354 22.072L120.354 22.0775L120.594 22.0608ZM120.133 19.6032L120.35 19.5L120.133 19.6032ZM118.981 18.5664L118.898 18.7916L118.905 18.7942L118.912 18.7963L118.981 18.5664ZM116.907 18.2976L116.671 18.3405L116.707 18.5376H116.907V18.2976ZM116.831 17.8752L116.802 17.6369L116.549 17.6673L116.594 17.9181L116.831 17.8752ZM117.791 17.76L117.763 17.5216L117.762 17.5217L117.791 17.76ZM120.286 17.568L120.299 17.8078L120.305 17.8073L120.286 17.568ZM123.397 17.4528H123.637V17.2128H123.397V17.4528ZM124.165 33.7728L123.953 33.8846L123.954 33.8869L124.165 33.7728ZM129.733 34.2336L129.573 34.0546L129.733 34.2336ZM131.461 31.8144L131.68 31.9124L131.461 31.8144ZM132.382 28.7424L132.147 28.6975L132.146 28.7029L132.382 28.7424ZM132.93 25.824C132.93 24.2073 132.878 22.8926 132.775 21.8827L132.297 21.9317C132.399 22.9186 132.45 24.2151 132.45 25.824H132.93ZM132.775 21.8888C132.698 20.8791 132.528 20.0875 132.252 19.5343L131.822 19.7489C132.058 20.2197 132.221 20.9385 132.297 21.9256L132.775 21.8888ZM132.257 19.5471C132.003 18.953 131.583 18.5432 131.003 18.3399L130.844 18.7929C131.287 18.948 131.61 19.255 131.816 19.7361L132.257 19.5471ZM131.003 18.3399C130.455 18.1482 129.747 18.0576 128.888 18.0576V18.5376C129.719 18.5376 130.368 18.6262 130.844 18.7929L131.003 18.3399ZM129.124 18.2547L129.047 17.8323L128.575 17.9181L128.652 18.3405L129.124 18.2547ZM128.811 17.8752C128.84 18.1135 128.84 18.1135 128.84 18.1135C128.84 18.1135 128.84 18.1135 128.84 18.1135C128.84 18.1135 128.84 18.1135 128.84 18.1135C128.84 18.1135 128.84 18.1135 128.84 18.1135C128.84 18.1135 128.84 18.1135 128.84 18.1135C128.84 18.1135 128.84 18.1135 128.84 18.1135C128.842 18.1133 128.839 18.1136 128.84 18.1134C128.841 18.1134 128.84 18.1134 128.841 18.1134C128.841 18.1134 128.841 18.1133 128.841 18.1133C128.841 18.1133 128.841 18.1133 128.842 18.1133C128.842 18.1133 128.842 18.1133 128.842 18.1133C128.842 18.1133 128.842 18.1133 128.842 18.1133C128.842 18.1132 128.842 18.1132 128.842 18.1132C128.842 18.1132 128.842 18.1132 128.842 18.1132C128.842 18.1132 128.842 18.1132 128.842 18.1132C128.843 18.1132 128.843 18.1132 128.843 18.1131C128.844 18.113 128.843 18.1131 128.844 18.113C128.855 18.1117 128.836 18.1139 128.848 18.1125C128.865 18.1104 128.837 18.1138 128.855 18.1117C128.856 18.1115 128.87 18.1099 128.874 18.1094C128.876 18.1091 128.882 18.1084 128.886 18.108C128.897 18.1066 128.888 18.1077 128.9 18.1063C128.958 18.0993 128.982 18.0965 129.08 18.0847C129.08 18.0847 129.11 18.0811 129.111 18.081C129.111 18.0809 129.112 18.0808 129.113 18.0807C129.113 18.0807 129.114 18.0806 129.115 18.0805C129.119 18.08 129.115 18.0805 129.119 18.08C129.12 18.0799 129.12 18.0799 129.121 18.0798C129.122 18.0797 129.122 18.0796 129.123 18.0795C129.124 18.0793 129.125 18.0792 129.127 18.079C129.132 18.0785 129.139 18.0776 129.144 18.077C129.17 18.0738 129.151 18.0761 129.178 18.0729C129.19 18.0715 129.203 18.0699 129.215 18.0685C129.218 18.0682 129.231 18.0666 129.234 18.0662C129.238 18.0657 129.239 18.0655 129.244 18.0651C129.245 18.0649 129.247 18.0647 129.248 18.0645C129.25 18.0643 129.252 18.064 129.253 18.0639C129.26 18.0631 129.251 18.0641 129.258 18.0633C129.263 18.0627 129.258 18.0633 129.263 18.0627C129.264 18.0626 129.265 18.0625 129.266 18.0624C129.267 18.0623 129.267 18.0622 129.268 18.0621C129.273 18.0615 129.268 18.0621 129.273 18.0615C129.274 18.0614 129.275 18.0613 129.276 18.0612C129.277 18.0611 129.277 18.061 129.278 18.0609C129.281 18.0606 129.281 18.0606 129.283 18.0603C129.284 18.0602 129.285 18.0601 129.286 18.06C129.287 18.0599 129.288 18.0598 129.289 18.0597C129.289 18.0596 129.29 18.0595 129.291 18.0593C129.292 18.0592 129.293 18.0591 129.294 18.059C129.295 18.0589 129.295 18.0588 129.296 18.0587C129.297 18.0586 129.298 18.0585 129.299 18.0584C129.299 18.0584 129.304 18.0578 129.304 18.0578C129.305 18.0577 129.306 18.0576 129.307 18.0575C129.308 18.0574 129.308 18.0573 129.309 18.0572C129.31 18.0571 129.311 18.057 129.312 18.0569C129.313 18.0567 129.314 18.0566 129.315 18.0565C129.323 18.0555 129.327 18.055 129.336 18.054C129.338 18.0537 129.344 18.053 129.347 18.0527C129.353 18.0519 129.346 18.0528 129.352 18.052C129.357 18.0515 129.353 18.0519 129.358 18.0514C129.381 18.0486 129.357 18.0515 129.38 18.0487C129.436 18.042 129.509 18.0332 129.575 18.0253C129.662 18.0148 129.702 18.01 129.8 17.9983L129.743 17.5217C129.725 17.5239 129.701 17.5267 129.684 17.5288C129.682 17.5289 129.681 17.5291 129.68 17.5292C129.679 17.5294 129.678 17.5295 129.676 17.5297C129.664 17.5312 129.682 17.529 129.669 17.5305C129.666 17.5309 129.665 17.531 129.662 17.5314C129.657 17.532 129.66 17.5316 129.655 17.5323C129.64 17.5341 129.656 17.5321 129.641 17.534C129.63 17.5353 129.637 17.5343 129.626 17.5357C129.625 17.5359 129.614 17.5371 129.612 17.5373C129.604 17.5383 129.607 17.538 129.599 17.539C129.591 17.54 129.593 17.5397 129.585 17.5407C129.577 17.5415 129.578 17.5414 129.571 17.5423C129.56 17.5436 129.528 17.5475 129.518 17.5487C129.452 17.5566 129.379 17.5654 129.323 17.5721C129.321 17.5723 129.318 17.5726 129.317 17.5728C129.306 17.5741 129.323 17.5721 129.312 17.5735C129.308 17.5738 129.304 17.5744 129.3 17.5748C129.292 17.5758 129.287 17.5764 129.279 17.5774C129.278 17.5775 129.277 17.5776 129.276 17.5777C129.275 17.5778 129.274 17.5779 129.273 17.578C129.272 17.5781 129.271 17.5783 129.271 17.5784C129.27 17.5785 129.269 17.5786 129.268 17.5787C129.265 17.579 129.266 17.579 129.263 17.5793C129.259 17.5797 129.261 17.5796 129.257 17.58C129.248 17.581 129.261 17.5795 129.252 17.5806C129.248 17.5811 129.251 17.5807 129.247 17.5812C129.24 17.582 129.248 17.5811 129.242 17.5818C129.238 17.5823 129.24 17.582 129.236 17.5825C129.236 17.5826 129.235 17.5827 129.234 17.5828C129.233 17.5829 129.232 17.583 129.231 17.5831C129.23 17.5832 129.23 17.5833 129.229 17.5834C129.228 17.5835 129.227 17.5836 129.226 17.5837C129.225 17.5838 129.225 17.5839 129.224 17.584C129.223 17.5841 129.222 17.5842 129.221 17.5843C129.217 17.5849 129.221 17.5844 129.216 17.5849C129.215 17.585 129.197 17.5872 129.196 17.5873C129.189 17.5882 129.184 17.5888 129.177 17.5896C129.176 17.5897 129.175 17.5898 129.174 17.5899C129.173 17.59 129.173 17.5901 129.172 17.5902C129.171 17.5903 129.17 17.5904 129.17 17.5905C129.169 17.5906 129.168 17.5907 129.167 17.5908C129.164 17.5912 129.161 17.5915 129.158 17.5919C129.154 17.5923 129.152 17.5926 129.148 17.593C129.148 17.5931 129.147 17.5932 129.146 17.5933C129.145 17.5934 129.145 17.5935 129.144 17.5936C129.143 17.5937 129.142 17.5938 129.141 17.5939C129.141 17.5939 129.14 17.594 129.139 17.5941C129.124 17.596 129.137 17.5944 129.121 17.5963C129.12 17.5965 129.105 17.5982 129.104 17.5984C129.093 17.5997 129.097 17.5992 129.086 17.6005C129.077 17.6016 129.079 17.6013 129.07 17.6025C129.05 17.6049 129.074 17.602 129.054 17.6044C129.047 17.6052 129.029 17.6074 129.023 17.6081C128.958 17.6159 128.868 17.6267 128.843 17.6297C128.837 17.6303 128.833 17.6308 128.829 17.6314C128.824 17.632 128.821 17.6323 128.816 17.6329C128.809 17.6338 128.803 17.6345 128.798 17.6351C128.796 17.6353 128.796 17.6353 128.794 17.6355C128.793 17.6357 128.794 17.6355 128.793 17.6357C128.792 17.6357 128.792 17.6358 128.792 17.6358C128.792 17.6358 128.792 17.6358 128.791 17.6359C128.791 17.6359 128.791 17.6359 128.791 17.6359C128.789 17.6362 128.788 17.6363 128.786 17.6365C128.784 17.6367 128.785 17.6366 128.784 17.6368C128.772 17.6382 128.795 17.6355 128.783 17.6368C128.779 17.6373 128.787 17.6364 128.783 17.6369C128.783 17.6369 128.783 17.6369 128.783 17.6369C128.783 17.6369 128.783 17.6369 128.783 17.6369C128.783 17.6369 128.783 17.6369 128.783 17.6369C128.783 17.6369 128.783 17.6369 128.783 17.6369C128.783 17.6369 128.783 17.6369 128.811 17.8752ZM129.799 17.9984C130.458 17.9224 131.284 17.8587 132.28 17.8077L132.255 17.3283C131.254 17.3797 130.416 17.444 129.744 17.5216L129.799 17.9984ZM132.286 17.8073C133.278 17.731 134.308 17.6928 135.378 17.6928V17.2128C134.297 17.2128 133.254 17.2514 132.249 17.3287L132.286 17.8073ZM135.138 17.4528V27.4752H135.618V17.4528H135.138ZM135.138 27.4752C135.138 29.2942 135.163 30.707 135.215 31.7115L135.694 31.6869C135.643 30.6946 135.618 29.2914 135.618 27.4752H135.138ZM135.215 31.7176C135.292 32.7202 135.448 33.4701 135.706 33.9289L136.124 33.6935C135.922 33.3331 135.77 32.675 135.694 31.6808L135.215 31.7176ZM135.71 33.9347C135.985 34.3935 136.41 34.6272 136.952 34.6272V34.1472C136.573 34.1472 136.307 33.9969 136.121 33.6877L135.71 33.9347ZM136.952 34.6272C137.31 34.6272 137.645 34.5721 137.956 34.4591L137.792 34.008C137.539 34.0999 137.26 34.1472 136.952 34.1472V34.6272ZM137.973 34.4521C138.257 34.323 138.529 34.1937 138.787 34.0643L138.573 33.6349C138.32 33.7615 138.054 33.8882 137.774 34.0151L137.973 34.4521ZM138.465 33.9569L138.657 34.3409L139.087 34.1263L138.895 33.7423L138.465 33.9569ZM138.872 34.2336C138.746 34.0295 138.746 34.0295 138.746 34.0295C138.746 34.0295 138.746 34.0295 138.746 34.0295C138.746 34.0295 138.746 34.0295 138.746 34.0296C138.746 34.0296 138.746 34.0296 138.746 34.0296C138.746 34.0296 138.746 34.0296 138.746 34.0296C138.746 34.0296 138.746 34.0296 138.746 34.0296C138.746 34.0296 138.746 34.0296 138.746 34.0297C138.745 34.0299 138.745 34.0297 138.745 34.03C138.743 34.0315 138.746 34.0297 138.743 34.0315C138.73 34.0395 138.748 34.028 138.733 34.0373C138.715 34.0485 138.738 34.0347 138.717 34.0471C138.716 34.0482 138.717 34.0474 138.715 34.0486C138.714 34.0493 138.714 34.0494 138.713 34.0501C138.702 34.0566 138.718 34.0469 138.707 34.0534C138.698 34.0592 138.711 34.0511 138.701 34.057C138.696 34.0602 138.701 34.0574 138.695 34.0607C138.695 34.0612 138.693 34.0622 138.692 34.0627C138.692 34.0629 138.692 34.0631 138.691 34.0632C138.691 34.0634 138.691 34.0636 138.691 34.0637C138.688 34.0654 138.692 34.063 138.689 34.0648C138.681 34.0698 138.694 34.0618 138.685 34.0669C138.685 34.067 138.685 34.0672 138.685 34.0674C138.684 34.0676 138.684 34.0678 138.684 34.0679C138.683 34.0681 138.683 34.0683 138.683 34.0685C138.683 34.0687 138.682 34.0688 138.682 34.069C138.671 34.0759 138.686 34.0666 138.675 34.0735C138.671 34.0761 138.675 34.0733 138.671 34.0759C138.671 34.076 138.667 34.0781 138.667 34.0783C138.664 34.0802 138.654 34.0863 138.65 34.0885C138.648 34.0903 138.649 34.0894 138.646 34.0912C138.637 34.0968 138.651 34.0884 138.642 34.094C138.641 34.0944 138.638 34.0965 138.637 34.0968C138.637 34.0971 138.636 34.0973 138.636 34.0976C138.636 34.0978 138.635 34.098 138.635 34.0983C138.634 34.0985 138.634 34.0988 138.634 34.099C138.633 34.0993 138.633 34.0995 138.632 34.0997C138.594 34.1234 138.591 34.1254 138.544 34.1543C138.542 34.156 138.534 34.1605 138.531 34.1623C138.526 34.1657 138.524 34.1669 138.518 34.1704C138.512 34.1745 138.518 34.1705 138.511 34.1746C138.511 34.1749 138.51 34.1753 138.51 34.1757C138.509 34.176 138.509 34.1764 138.508 34.1767C138.507 34.1771 138.507 34.1774 138.506 34.1778C138.506 34.1781 138.505 34.1785 138.505 34.1788C138.502 34.1804 138.493 34.1858 138.491 34.1875C138.49 34.1879 138.489 34.1882 138.489 34.1886C138.488 34.189 138.488 34.1893 138.487 34.1897C138.486 34.1901 138.486 34.1904 138.485 34.1908C138.485 34.1912 138.484 34.1915 138.483 34.1919C138.479 34.1948 138.481 34.1935 138.476 34.1964C138.474 34.1979 138.475 34.1971 138.473 34.1986C138.47 34.2003 138.472 34.1993 138.469 34.2009C138.468 34.2013 138.468 34.2017 138.467 34.2021C138.466 34.2024 138.466 34.2028 138.465 34.2032C138.465 34.2036 138.464 34.204 138.463 34.2044C138.463 34.2048 138.462 34.2051 138.461 34.2055C138.457 34.2082 138.451 34.2122 138.446 34.2149C138.446 34.215 138.443 34.2172 138.442 34.2173C138.43 34.2251 138.451 34.2119 138.439 34.2197C138.423 34.2295 138.447 34.2147 138.431 34.2245C138.41 34.2375 138.388 34.2512 138.365 34.2655C138.348 34.2755 138.363 34.2662 138.347 34.2763C138.346 34.2768 138.346 34.2772 138.345 34.2777C138.344 34.2782 138.343 34.2786 138.343 34.2791C138.342 34.2795 138.341 34.28 138.34 34.2805C138.34 34.2809 138.339 34.2814 138.338 34.2818C138.32 34.2933 138.348 34.276 138.329 34.2874C138.321 34.2922 138.319 34.2939 138.311 34.2988C138.31 34.2992 138.309 34.2997 138.309 34.3002C138.308 34.3007 138.307 34.3012 138.306 34.3016C138.305 34.3021 138.305 34.3026 138.304 34.3031C138.303 34.3036 138.302 34.304 138.302 34.3045C138.301 34.305 138.3 34.3055 138.299 34.306C138.298 34.3064 138.298 34.3069 138.297 34.3074C138.296 34.3079 138.295 34.3084 138.295 34.3089C138.294 34.3094 138.293 34.3098 138.292 34.3103C138.291 34.3113 138.289 34.3123 138.287 34.3133C138.286 34.314 138.284 34.3155 138.283 34.3162C138.278 34.3191 138.283 34.3163 138.278 34.3192C138.277 34.32 138.274 34.3213 138.273 34.3222C138.271 34.3234 138.265 34.3269 138.263 34.3282C138.263 34.3287 138.262 34.3292 138.261 34.3297C138.26 34.3302 138.259 34.3307 138.258 34.3312C138.254 34.3337 138.258 34.3317 138.254 34.3342C138.229 34.3496 138.239 34.3434 138.213 34.3591C138.213 34.3596 138.212 34.3601 138.211 34.3607C138.21 34.3612 138.209 34.3617 138.208 34.3623C138.208 34.3624 138.203 34.3653 138.203 34.3655C138.2 34.3675 138.201 34.3666 138.198 34.3687C138.194 34.3711 138.197 34.3694 138.193 34.3719C138.183 34.3782 138.182 34.3785 138.172 34.3849C138.171 34.3855 138.17 34.386 138.169 34.3866C138.168 34.3871 138.167 34.3877 138.166 34.3882C138.165 34.3888 138.165 34.3893 138.164 34.3899C138.163 34.3904 138.162 34.391 138.161 34.3915C138.157 34.394 138.154 34.3957 138.15 34.3982C138.149 34.3988 138.148 34.3993 138.148 34.3999C138.147 34.4004 138.146 34.401 138.145 34.4016C138.144 34.4021 138.143 34.4027 138.142 34.4033C138.141 34.4038 138.14 34.4044 138.139 34.4049C138.138 34.4055 138.129 34.4111 138.128 34.4117C138.127 34.4123 138.127 34.4129 138.126 34.4134C138.125 34.414 138.124 34.4146 138.123 34.4152C138.122 34.4157 138.121 34.4163 138.12 34.4169C138.119 34.4174 138.118 34.418 138.117 34.4186C138.114 34.4204 138.115 34.4202 138.112 34.422C138.111 34.4226 138.11 34.4232 138.109 34.4238C138.108 34.4244 138.107 34.4249 138.106 34.4255C138.102 34.428 138.105 34.4265 138.101 34.429C138.095 34.4321 138.1 34.4294 138.095 34.4325C138.094 34.433 138.09 34.4355 138.089 34.436C138.088 34.4366 138.087 34.4372 138.086 34.4378C138.085 34.4383 138.084 34.4389 138.083 34.4395C138.062 34.4529 138.082 34.4403 138.06 34.4538C138.057 34.4562 138.059 34.455 138.055 34.4574C138.054 34.458 138.053 34.4586 138.052 34.4592C138.051 34.4598 138.05 34.4604 138.049 34.461C138.048 34.4616 138.047 34.4622 138.046 34.4628C138.045 34.4634 138.044 34.464 138.043 34.4646C138.042 34.4652 138.041 34.4659 138.04 34.4665C138.039 34.4671 138.038 34.4677 138.037 34.4683C138.024 34.4764 138.026 34.4748 138.013 34.483C138.001 34.4907 138.001 34.4903 137.989 34.498C137.988 34.4987 137.987 34.4993 137.986 34.4999C137.985 34.5005 137.984 34.5012 137.983 34.5018C137.983 34.5018 137.977 34.5056 137.977 34.5056C137.964 34.5133 137.977 34.5055 137.964 34.5133C137.958 34.5174 137.946 34.5245 137.939 34.5287L138.192 34.9369C138.193 34.9365 138.198 34.9333 138.198 34.933C138.199 34.9323 138.2 34.9317 138.201 34.931C138.202 34.9304 138.204 34.9297 138.205 34.9291C138.206 34.9284 138.207 34.9278 138.208 34.9272C138.209 34.9265 138.21 34.9259 138.211 34.9252C138.212 34.9246 138.213 34.9239 138.214 34.9233C138.215 34.9227 138.216 34.922 138.217 34.9214C138.22 34.9196 138.22 34.9194 138.223 34.9176C138.224 34.9169 138.225 34.9163 138.226 34.9156C138.227 34.915 138.228 34.9144 138.229 34.9137C138.231 34.913 138.241 34.9068 138.242 34.9062C138.243 34.9052 138.252 34.8995 138.254 34.8986C138.255 34.898 138.256 34.8974 138.257 34.8968C138.258 34.8961 138.259 34.8955 138.26 34.8949C138.261 34.8943 138.262 34.8936 138.263 34.893C138.264 34.8924 138.265 34.8918 138.266 34.8912C138.269 34.8891 138.286 34.8784 138.29 34.8764C138.291 34.8758 138.292 34.8752 138.293 34.8746C138.294 34.874 138.295 34.8734 138.296 34.8728C138.297 34.8722 138.298 34.8716 138.299 34.8709C138.299 34.8703 138.3 34.8697 138.301 34.8691C138.306 34.8663 138.309 34.8647 138.313 34.8619C138.314 34.8613 138.315 34.8607 138.316 34.8601C138.317 34.8595 138.318 34.8589 138.319 34.8583C138.322 34.8563 138.321 34.8568 138.325 34.8548C138.331 34.8506 138.33 34.8517 138.336 34.8477C138.338 34.8465 138.357 34.8347 138.359 34.8336C138.362 34.8314 138.366 34.8289 138.37 34.8267C138.371 34.8261 138.372 34.8256 138.373 34.825C138.374 34.8244 138.375 34.8239 138.376 34.8233C138.376 34.8227 138.377 34.8221 138.378 34.8216C138.379 34.821 138.38 34.8204 138.381 34.8199C138.423 34.7938 138.426 34.792 138.466 34.7672C138.469 34.7653 138.504 34.744 138.506 34.7424C138.512 34.7385 138.52 34.734 138.526 34.7303C138.541 34.7206 138.52 34.734 138.535 34.7243C138.537 34.7232 138.538 34.7225 138.54 34.7214C138.541 34.7206 138.544 34.7193 138.545 34.7185C138.557 34.7108 138.537 34.7232 138.55 34.7155C138.55 34.7151 138.551 34.7146 138.552 34.7141C138.553 34.7136 138.553 34.7131 138.554 34.7126C138.57 34.7028 138.548 34.7168 138.564 34.7069C138.568 34.7041 138.578 34.6982 138.582 34.6956C138.602 34.683 138.598 34.6858 138.617 34.6736C138.618 34.6732 138.619 34.6727 138.619 34.6723C138.62 34.6718 138.621 34.6714 138.622 34.6709C138.628 34.6672 138.62 34.672 138.626 34.6683C138.627 34.6678 138.627 34.6674 138.628 34.667C138.629 34.6665 138.629 34.6661 138.63 34.6656C138.631 34.6652 138.632 34.6648 138.632 34.6643C138.633 34.6639 138.634 34.6634 138.634 34.663C138.645 34.6564 138.632 34.6643 138.643 34.6578C138.649 34.6542 138.645 34.6563 138.651 34.6527C138.657 34.649 138.654 34.6511 138.659 34.6476C138.66 34.6471 138.661 34.6467 138.661 34.6463C138.662 34.6459 138.663 34.6455 138.663 34.645C138.664 34.6446 138.665 34.6442 138.665 34.6438C138.666 34.6434 138.667 34.643 138.667 34.6425C138.683 34.6326 138.668 34.6425 138.683 34.6327C138.688 34.6296 138.682 34.6333 138.687 34.6302C138.688 34.6298 138.689 34.6294 138.689 34.629C138.69 34.6286 138.691 34.6282 138.691 34.6278C138.694 34.6261 138.696 34.6247 138.699 34.623C138.7 34.6226 138.7 34.6222 138.701 34.6218C138.702 34.6215 138.702 34.6211 138.703 34.6207C138.703 34.6203 138.704 34.6199 138.705 34.6195C138.705 34.6191 138.706 34.6187 138.707 34.6183C138.709 34.6167 138.712 34.6152 138.714 34.6137C138.715 34.6133 138.715 34.6129 138.716 34.6125C138.717 34.6121 138.717 34.6117 138.718 34.6113C138.718 34.611 138.719 34.6106 138.72 34.6102C138.72 34.6098 138.721 34.6094 138.722 34.6091C138.725 34.607 138.722 34.6088 138.725 34.6068C138.726 34.6066 138.729 34.6047 138.729 34.6045C138.73 34.6036 138.735 34.601 138.736 34.6C138.737 34.5997 138.737 34.5993 138.738 34.5989C138.739 34.5986 138.739 34.5982 138.74 34.5978C138.74 34.5974 138.741 34.5971 138.742 34.5967C138.742 34.5963 138.743 34.596 138.743 34.5956C138.77 34.5792 138.772 34.5775 138.797 34.5625C138.859 34.5237 138.919 34.4868 138.948 34.4689C138.952 34.4664 138.946 34.4703 138.95 34.4679C138.95 34.4677 138.95 34.4676 138.95 34.4674C138.951 34.4673 138.951 34.4671 138.951 34.4669C138.954 34.465 138.951 34.4671 138.954 34.4651C138.961 34.4608 138.949 34.4684 138.956 34.4642C138.956 34.464 138.956 34.4639 138.956 34.4637C138.957 34.4636 138.957 34.4634 138.957 34.4633C138.957 34.4631 138.958 34.4626 138.958 34.4624C138.964 34.4591 138.955 34.4648 138.96 34.4616C138.962 34.4604 138.963 34.4593 138.965 34.4583C138.967 34.4573 138.966 34.4576 138.968 34.4567C138.975 34.4521 138.963 34.4598 138.97 34.4552C138.981 34.4483 138.977 34.4511 138.986 34.4455C138.991 34.4423 138.982 34.4481 138.987 34.445C138.987 34.4449 138.987 34.4448 138.987 34.4447C138.987 34.4447 138.987 34.4446 138.987 34.4445C138.989 34.4438 138.988 34.4444 138.989 34.4436C139 34.4369 138.981 34.4487 138.991 34.4421C138.992 34.4416 138.992 34.4418 138.992 34.4413C139.008 34.4315 138.978 34.4506 138.994 34.4407C138.994 34.4401 138.994 34.4401 138.995 34.4396C138.998 34.4377 138.993 34.4413 138.996 34.4394C138.996 34.4393 138.996 34.4393 138.996 34.4393C138.996 34.4392 138.996 34.4392 138.996 34.4392C138.996 34.4389 138.996 34.439 138.997 34.4388C138.997 34.4386 138.998 34.4382 138.998 34.4382C138.998 34.4381 138.998 34.4381 138.998 34.4381C138.998 34.4381 138.998 34.4381 138.998 34.438C138.998 34.438 138.998 34.4379 138.998 34.4379C138.998 34.4379 138.998 34.4379 138.998 34.4379C138.998 34.4379 138.998 34.4379 138.998 34.4379C138.998 34.4378 138.998 34.4378 138.998 34.4378C138.998 34.4378 138.998 34.4378 138.998 34.4378C138.998 34.4377 138.998 34.4377 138.998 34.4377C138.998 34.4377 138.998 34.4377 138.998 34.4377C138.998 34.4377 138.998 34.4377 138.998 34.4377C138.998 34.4377 138.998 34.4377 138.998 34.4377C138.998 34.4377 138.998 34.4377 138.998 34.4377C138.998 34.4377 138.998 34.4377 138.998 34.4377C138.998 34.4377 138.998 34.4377 138.872 34.2336ZM137.942 34.527C137.447 34.8242 136.77 35.1384 135.906 35.4686L136.078 35.917C136.955 35.5816 137.66 35.2558 138.189 34.9386L137.942 34.527ZM135.906 35.4686C135.067 35.7895 134.124 35.952 133.074 35.952V36.432C134.174 36.432 135.176 36.2617 136.078 35.917L135.906 35.4686ZM133.311 36.1555C133.209 35.4942 133.12 34.7942 133.044 34.0553L132.566 34.1047C132.643 34.8506 132.733 35.5586 132.836 36.2285L133.311 36.1555ZM133.044 34.0561C132.968 33.2994 132.93 32.2971 132.93 31.0464H132.45C132.45 32.3045 132.488 33.3246 132.566 34.1039L133.044 34.0561ZM132.461 30.9748C132.211 31.7744 131.848 32.5766 131.37 33.3815L131.782 33.6265C132.277 32.793 132.657 31.9568 132.919 31.118L132.461 30.9748ZM131.367 33.3863C130.925 34.1718 130.311 34.8362 129.52 35.3798L129.792 35.7754C130.64 35.1926 131.305 34.4746 131.785 33.6217L131.367 33.3863ZM129.521 35.3789C128.778 35.8824 127.805 36.144 126.584 36.144V36.624C127.872 36.624 128.947 36.348 129.791 35.7763L129.521 35.3789ZM126.584 36.144C124.654 36.144 123.256 35.6307 122.344 34.6465L121.992 34.9727C123.025 36.0877 124.572 36.624 126.584 36.624V36.144ZM122.346 34.6486C121.426 33.6313 120.949 32.1733 120.949 30.24H120.469C120.469 32.2491 120.965 33.8375 121.99 34.9706L122.346 34.6486ZM120.949 30.24V26.5152H120.469V30.24H120.949ZM120.949 26.5152C120.949 24.6441 120.91 23.153 120.833 22.0441L120.354 22.0775C120.431 23.1702 120.469 24.6487 120.469 26.5152H120.949ZM120.833 22.0496C120.782 20.9394 120.626 20.0815 120.35 19.5L119.916 19.7064C120.151 20.2001 120.303 20.9805 120.354 22.072L120.833 22.0496ZM120.35 19.5C120.068 18.909 119.635 18.5119 119.05 18.3365L118.912 18.7963C119.351 18.9281 119.686 19.2222 119.916 19.7064L120.35 19.5ZM119.064 18.3412C118.538 18.1476 117.814 18.0576 116.907 18.0576V18.5376C117.793 18.5376 118.451 18.6268 118.898 18.7916L119.064 18.3412ZM117.143 18.2547L117.067 17.8323L116.594 17.9181L116.671 18.3405L117.143 18.2547ZM116.831 17.8752C116.859 18.1135 116.859 18.1135 116.859 18.1135C116.859 18.1135 116.859 18.1135 116.859 18.1135C116.859 18.1135 116.859 18.1135 116.859 18.1135C116.859 18.1135 116.859 18.1135 116.859 18.1135C116.859 18.1135 116.859 18.1135 116.859 18.1135C116.859 18.1135 116.859 18.1135 116.859 18.1135C116.86 18.1134 116.859 18.1135 116.859 18.1134C116.86 18.1134 116.86 18.1134 116.86 18.1134C116.86 18.1134 116.86 18.1134 116.86 18.1134C116.86 18.1134 116.86 18.1134 116.86 18.1134C116.86 18.1133 116.86 18.1134 116.861 18.1133C116.861 18.1133 116.861 18.1133 116.861 18.1133C116.861 18.1133 116.861 18.1133 116.861 18.1133C116.861 18.1132 116.861 18.1132 116.861 18.1132C116.862 18.1132 116.862 18.1131 116.863 18.113C116.867 18.1126 116.863 18.113 116.868 18.1125C116.88 18.111 116.861 18.1132 116.874 18.1117C116.876 18.1115 116.873 18.1118 116.875 18.1116C116.875 18.1116 116.876 18.1115 116.876 18.1115C116.89 18.1098 116.864 18.1128 116.878 18.1112C116.889 18.1099 116.869 18.1123 116.88 18.111C116.88 18.1109 116.881 18.1109 116.881 18.1109C116.881 18.1109 116.881 18.1108 116.881 18.1108C116.882 18.1108 116.882 18.1108 116.882 18.1107C116.882 18.1107 116.882 18.1107 116.883 18.1107C116.883 18.1107 116.883 18.1106 116.883 18.1106C116.883 18.1106 116.884 18.1106 116.884 18.1105C116.885 18.1104 116.884 18.1105 116.885 18.1104C116.89 18.1098 116.882 18.1107 116.887 18.1101C116.889 18.1099 116.889 18.1099 116.89 18.1098C116.891 18.1097 116.892 18.1095 116.893 18.1094C116.895 18.1092 116.915 18.1068 116.919 18.1063C116.971 18.1 117.007 18.0957 117.099 18.0847C117.107 18.0838 117.095 18.0851 117.103 18.0842C117.103 18.0842 117.104 18.0841 117.105 18.084C117.105 18.0839 117.106 18.0839 117.107 18.0838C117.107 18.0837 117.108 18.0836 117.109 18.0836C117.109 18.0835 117.11 18.0834 117.11 18.0833C117.112 18.0831 117.113 18.0831 117.114 18.0829C117.116 18.0826 117.116 18.0826 117.118 18.0824C117.119 18.0823 117.121 18.082 117.122 18.0819C117.125 18.0815 117.127 18.0814 117.13 18.081C117.137 18.0802 117.139 18.0799 117.146 18.079C117.15 18.0786 117.159 18.0775 117.163 18.077C117.189 18.0739 117.17 18.0761 117.198 18.0729C117.21 18.0714 117.221 18.07 117.234 18.0685C117.252 18.0663 117.254 18.0661 117.273 18.0639C117.291 18.0616 117.293 18.0614 117.313 18.059C117.318 18.0584 117.329 18.0571 117.334 18.0565C117.335 18.0564 117.354 18.0541 117.355 18.054C117.366 18.0526 117.366 18.0527 117.377 18.0514C117.4 18.0486 117.376 18.0514 117.399 18.0487C117.465 18.0408 117.519 18.0343 117.594 18.0253C117.613 18.0231 117.628 18.0212 117.648 18.0189C117.667 18.0166 117.656 18.0179 117.675 18.0156C117.685 18.0144 117.672 18.016 117.682 18.0148C117.685 18.0144 117.686 18.0142 117.689 18.0139C117.692 18.0135 117.699 18.0126 117.703 18.0122C117.704 18.0121 117.705 18.012 117.706 18.0118C117.708 18.0117 117.709 18.0115 117.71 18.0114C117.713 18.011 117.714 18.0109 117.717 18.0105C117.72 18.0102 117.728 18.0092 117.731 18.0088C117.739 18.0079 117.752 18.0063 117.76 18.0054C117.767 18.0046 117.783 18.0027 117.789 18.0019C117.796 18.0011 117.813 17.9991 117.819 17.9983L117.762 17.5217C117.743 17.524 117.721 17.5266 117.703 17.5288C117.702 17.5289 117.7 17.5291 117.699 17.5292C117.698 17.5294 117.697 17.5295 117.696 17.5297C117.686 17.5309 117.698 17.5293 117.688 17.5305C117.685 17.531 117.685 17.5309 117.681 17.5314C117.676 17.532 117.679 17.5316 117.674 17.5323C117.658 17.5341 117.675 17.5321 117.66 17.534C117.637 17.5366 117.668 17.533 117.646 17.5357C117.643 17.536 117.635 17.537 117.632 17.5373C117.622 17.5385 117.627 17.5379 117.618 17.539C117.617 17.5391 117.591 17.5422 117.59 17.5423C117.574 17.5443 117.553 17.5468 117.537 17.5487C117.472 17.5565 117.397 17.5655 117.342 17.5721C117.341 17.5723 117.338 17.5726 117.336 17.5728C117.331 17.5734 117.336 17.5728 117.331 17.5735C117.328 17.5738 117.323 17.5744 117.32 17.5748C117.319 17.5749 117.318 17.575 117.317 17.5751C117.316 17.5752 117.315 17.5753 117.314 17.5754C117.313 17.5755 117.312 17.5757 117.311 17.5758C117.311 17.5759 117.31 17.576 117.309 17.5761C117.301 17.577 117.305 17.5765 117.298 17.5774C117.283 17.5791 117.269 17.5808 117.256 17.5825C117.247 17.5835 117.223 17.5863 117.215 17.5873C117.211 17.5879 117.215 17.5873 117.21 17.5879C117.2 17.5892 117.216 17.5872 117.206 17.5885C117.197 17.5894 117.204 17.5887 117.196 17.5896C117.193 17.59 117.194 17.5899 117.191 17.5902C117.19 17.5903 117.19 17.5904 117.189 17.5905C117.188 17.5906 117.187 17.5907 117.186 17.5908C117.183 17.5912 117.181 17.5915 117.177 17.5919C117.173 17.5924 117.171 17.5926 117.168 17.593C117.166 17.5932 117.164 17.5934 117.163 17.5936C117.162 17.5937 117.161 17.5938 117.161 17.5939C117.16 17.5939 117.159 17.594 117.158 17.5941C117.146 17.5956 117.152 17.5949 117.14 17.5963C117.131 17.5974 117.14 17.5963 117.131 17.5974C117.131 17.5974 117.127 17.5979 117.127 17.5979C117.118 17.5989 117.132 17.5973 117.123 17.5984C117.112 17.5997 117.116 17.5992 117.106 17.6005C117.094 17.6018 117.1 17.6011 117.089 17.6025C117.086 17.6029 117.076 17.604 117.073 17.6044C117.064 17.6054 117.05 17.6072 117.042 17.6081C116.975 17.6162 116.889 17.6264 116.862 17.6297C116.856 17.6304 116.853 17.6308 116.848 17.6314C116.835 17.633 116.848 17.6314 116.836 17.6329C116.821 17.6346 116.829 17.6336 116.817 17.6351C116.815 17.6354 116.812 17.6357 116.81 17.6359C116.801 17.637 116.814 17.6354 116.806 17.6365C116.802 17.6369 116.806 17.6364 116.803 17.6368C116.803 17.6368 116.803 17.6368 116.803 17.6368C116.803 17.6368 116.803 17.6368 116.803 17.6368C116.802 17.6368 116.802 17.6368 116.802 17.6368C116.802 17.6369 116.802 17.6369 116.802 17.6369C116.802 17.6369 116.802 17.6369 116.802 17.6369C116.802 17.6369 116.802 17.6369 116.802 17.6369C116.802 17.6369 116.802 17.6369 116.802 17.6369C116.802 17.6369 116.802 17.6369 116.802 17.6369C116.802 17.6369 116.802 17.6369 116.802 17.6369C116.802 17.6369 116.802 17.6369 116.802 17.6369C116.802 17.6369 116.802 17.6369 116.802 17.6369C116.802 17.6369 116.802 17.6369 116.831 17.8752ZM117.818 17.9984C118.477 17.9224 119.303 17.8587 120.299 17.8077L120.274 17.3283C119.273 17.3797 118.435 17.444 117.763 17.5216L117.818 17.9984ZM120.305 17.8073C121.297 17.731 122.327 17.6928 123.397 17.6928V17.2128C122.316 17.2128 121.273 17.2514 120.268 17.3287L120.305 17.8073ZM123.157 17.4528V29.856H123.637V17.4528H123.157ZM123.157 29.856C123.157 31.5158 123.416 32.8645 123.953 33.8846L124.377 33.661C123.89 32.7355 123.637 31.473 123.637 29.856H123.157ZM123.954 33.8869C124.521 34.9359 125.58 35.4336 127.045 35.4336V34.9536C125.694 34.9536 124.833 34.5041 124.376 33.6587L123.954 33.8869ZM127.045 35.4336C128.172 35.4336 129.127 35.0966 129.893 34.4126L129.573 34.0546C128.906 34.6506 128.069 34.9536 127.045 34.9536V35.4336ZM129.893 34.4126C130.637 33.7477 131.232 32.9127 131.68 31.9124L131.242 31.7164C130.819 32.6617 130.262 33.4394 129.573 34.0546L129.893 34.4126ZM131.68 31.9124C132.124 30.9205 132.437 29.8768 132.619 28.7819L132.146 28.7029C131.97 29.7584 131.668 30.7627 131.242 31.7164L131.68 31.9124ZM132.618 28.7873C132.825 27.7009 132.93 26.7127 132.93 25.824H132.45C132.45 26.6761 132.349 27.6335 132.147 28.6975L132.618 28.7873ZM149.946 23.52L149.735 23.6344L149.741 23.6435L149.946 23.52ZM151.214 25.632L151.008 25.7555L151.197 26.071L151.409 25.7706L151.214 25.632ZM152.327 24.0576L152.133 23.9161L152.131 23.919L152.327 24.0576ZM154.132 21.2928L153.925 21.1719L153.924 21.1737L154.132 21.2928ZM152.98 18.2976L152.743 18.3371L152.777 18.5376H152.98V18.2976ZM152.903 17.8368V17.5968H152.62L152.666 17.8763L152.903 17.8368ZM159.969 17.8368L160.205 17.8763L160.252 17.5968H159.969V17.8368ZM159.892 18.2976V18.5376H160.095L160.129 18.3371L159.892 18.2976ZM158.01 18.5664L158.086 18.7942L158.093 18.7916L158.01 18.5664ZM156.705 19.488L156.88 19.6526L156.884 19.6474L156.705 19.488ZM155.246 21.3696L155.048 21.2336V21.2336L155.246 21.3696ZM153.018 24.5568L153.212 24.6982L153.214 24.6952L153.018 24.5568ZM151.674 26.4L151.48 26.2586L151.386 26.3879L151.469 26.5246L151.674 26.4ZM154.17 30.5088L154.376 30.3848L154.375 30.3842L154.17 30.5088ZM156.436 33.8112L156.618 33.655L156.436 33.8112ZM158.202 35.232L158.111 35.4543L158.12 35.4576L158.202 35.232ZM160.084 35.5392L160.321 35.4997L160.287 35.2992H160.084V35.5392ZM160.161 36V36.24H160.444L160.397 35.9605L160.161 36ZM151.098 36L150.862 35.9605L150.815 36.24H151.098V36ZM151.175 35.5392V35.2992H150.972L150.938 35.4997L151.175 35.5392ZM152.673 35.3856L152.597 35.1578L152.591 35.16L152.673 35.3856ZM152.596 33.12L152.385 33.2338L152.387 33.2373L152.596 33.12ZM151.175 30.7008L150.971 30.8274L150.971 30.8275L151.175 30.7008ZM149.793 28.4736L149.997 28.347L149.806 28.0392L149.597 28.3352L149.793 28.4736ZM148.871 29.7792L149.065 29.9207L149.067 29.9176L148.871 29.7792ZM147.028 32.5824L146.821 32.4615L146.82 32.4633L147.028 32.5824ZM146.644 35.3088L146.506 35.5054L146.513 35.5103L146.52 35.5146L146.644 35.3088ZM148.065 35.5392L148.301 35.4997L148.268 35.2992H148.065V35.5392ZM148.142 36V36.24H148.425L148.378 35.9605L148.142 36ZM141.038 36L140.801 35.9605L140.754 36.24H141.038V36ZM141.114 35.5392V35.2992H140.911L140.878 35.4997L141.114 35.5392ZM142.996 35.3088L143.068 35.5379L143.079 35.534L142.996 35.3088ZM144.378 34.3872L144.548 34.557L144.553 34.552L144.378 34.3872ZM145.914 32.4672L145.719 32.3271L145.914 32.4672ZM148.18 29.28L147.985 29.1405L147.984 29.1416L148.18 29.28ZM149.332 27.6672L149.527 27.8067L149.619 27.6785L149.538 27.5434L149.332 27.6672ZM146.951 23.712L147.157 23.5882L147.156 23.587L146.951 23.712ZM144.647 20.2944L144.454 20.4375L144.46 20.4443L144.647 20.2944ZM143.034 18.72L142.914 18.9279L142.923 18.9324L143.034 18.72ZM141.345 18.2976L141.108 18.3371L141.141 18.5376H141.345V18.2976ZM141.268 17.8368V17.5968H140.985L141.031 17.8763L141.268 17.8368ZM149.562 17.8368L149.799 17.8763L149.846 17.5968H149.562V17.8368ZM149.486 18.2976V18.5376H149.689L149.722 18.3371L149.486 18.2976ZM148.026 18.4512L147.95 18.2234L147.944 18.2256L148.026 18.4512ZM147.95 20.064L147.733 20.1667L147.736 20.1738L147.74 20.1806L147.95 20.064ZM148.871 21.6768L148.664 21.7978L148.668 21.804L148.871 21.6768ZM149.741 23.6435L151.008 25.7555L151.419 25.5085L150.152 23.3965L149.741 23.6435ZM151.409 25.7706L152.523 24.1962L152.131 23.919L151.018 25.4934L151.409 25.7706ZM152.521 24.1991C153.217 23.2456 153.823 22.3166 154.34 21.4119L153.924 21.1737C153.416 22.061 152.82 22.9752 152.133 23.9161L152.521 24.1991ZM154.339 21.4137C154.611 20.9473 154.819 20.5396 154.959 20.1923C155.098 19.8491 155.178 19.5465 155.178 19.296H154.698C154.698 19.4551 154.644 19.6901 154.514 20.0125C154.386 20.3308 154.19 20.7167 153.925 21.1719L154.339 21.4137ZM155.178 19.296C155.178 19.0885 155.127 18.8961 155.017 18.7279C154.908 18.5609 154.75 18.4313 154.558 18.3334C154.181 18.1411 153.645 18.0576 152.98 18.0576V18.5376C153.62 18.5376 154.064 18.6205 154.34 18.761C154.474 18.8295 154.561 18.9079 154.615 18.9905C154.668 19.0719 154.698 19.1707 154.698 19.296H155.178ZM153.217 18.2581L153.14 17.7973L152.666 17.8763L152.743 18.3371L153.217 18.2581ZM152.903 18.0768H159.969V17.5968H152.903V18.0768ZM159.732 17.7973L159.655 18.2581L160.129 18.3371L160.205 17.8763L159.732 17.7973ZM159.892 18.0576C159.108 18.0576 158.45 18.1487 157.927 18.3412L158.093 18.7916C158.544 18.6257 159.14 18.5376 159.892 18.5376V18.0576ZM157.934 18.3387C157.424 18.5087 156.955 18.8447 156.525 19.3286L156.884 19.6474C157.273 19.2097 157.675 18.9313 158.086 18.7941L157.934 18.3387ZM156.53 19.3235C156.108 19.7715 155.614 20.41 155.048 21.2336L155.443 21.5056C156.003 20.6908 156.482 20.0749 156.879 19.6525L156.53 19.3235ZM155.048 21.2336C154.485 22.0517 153.744 23.1132 152.822 24.4184L153.214 24.6952C154.136 23.3892 154.879 22.3259 155.443 21.5056L155.048 21.2336ZM152.824 24.4154L151.48 26.2586L151.868 26.5414L153.212 24.6982L152.824 24.4154ZM151.469 26.5246L153.965 30.6334L154.375 30.3842L151.879 26.2754L151.469 26.5246ZM153.965 30.6328C154.863 32.1212 155.626 33.2354 156.254 33.9674L156.618 33.655C156.017 32.9534 155.27 31.866 154.376 30.3848L153.965 30.6328ZM156.254 33.9674C156.881 34.6987 157.499 35.2035 158.111 35.4541L158.293 35.0099C157.779 34.7997 157.22 34.3573 156.618 33.655L156.254 33.9674ZM158.12 35.4576C158.713 35.6733 159.369 35.7792 160.084 35.7792V35.2992C159.416 35.2992 158.818 35.2003 158.284 35.0065L158.12 35.4576ZM159.847 35.5787L159.924 36.0395L160.397 35.9605L160.321 35.4997L159.847 35.5787ZM160.161 35.76H151.098V36.24H160.161V35.76ZM151.335 36.0395L151.412 35.5787L150.938 35.4997L150.862 35.9605L151.335 36.0395ZM151.175 35.7792C151.892 35.7792 152.429 35.7295 152.755 35.6111L152.591 35.16C152.353 35.2465 151.892 35.2992 151.175 35.2992V35.7792ZM152.749 35.6133C152.94 35.5495 153.102 35.443 153.214 35.284C153.326 35.1256 153.374 34.9363 153.374 34.7328H152.894C152.894 34.8621 152.864 34.948 152.822 35.0072C152.781 35.0658 152.713 35.1193 152.597 35.1579L152.749 35.6133ZM153.374 34.7328C153.374 34.2374 153.172 33.6569 152.805 33.0027L152.387 33.2373C152.737 33.8631 152.894 34.3578 152.894 34.7328H153.374ZM152.807 33.0062C152.446 32.3347 151.969 31.5237 151.379 30.5741L150.971 30.8275C151.559 31.7723 152.029 32.5741 152.385 33.2338L152.807 33.0062ZM151.379 30.5742L149.997 28.347L149.589 28.6002L150.971 30.8274L151.379 30.5742ZM149.597 28.3352L148.675 29.6408L149.067 29.9176L149.989 28.612L149.597 28.3352ZM148.677 29.6377C147.982 30.5909 147.363 31.5321 146.821 32.4615L147.235 32.7033C147.768 31.7895 148.378 30.8619 149.065 29.9207L148.677 29.6377ZM146.82 32.4633C146.56 32.9172 146.362 33.3154 146.228 33.6564C146.096 33.9937 146.02 34.292 146.02 34.5408H146.5C146.5 34.38 146.552 34.1471 146.675 33.8316C146.798 33.5198 146.984 33.1436 147.236 32.7015L146.82 32.4633ZM146.02 34.5408C146.02 34.9459 146.181 35.278 146.506 35.5054L146.782 35.1122C146.594 34.9812 146.5 34.8013 146.5 34.5408H146.02ZM146.52 35.5146C146.686 35.6137 146.902 35.6778 147.153 35.7185C147.406 35.7596 147.711 35.7792 148.065 35.7792V35.2992C147.727 35.2992 147.449 35.2804 147.23 35.2447C147.007 35.2086 146.858 35.1575 146.767 35.103L146.52 35.5146ZM147.828 35.5787L147.905 36.0395L148.378 35.9605L148.301 35.4997L147.828 35.5787ZM148.142 35.76H141.038V36.24H148.142V35.76ZM141.274 36.0395L141.351 35.5787L140.878 35.4997L140.801 35.9605L141.274 36.0395ZM141.114 35.7792C141.896 35.7792 142.55 35.7014 143.068 35.5377L142.924 35.0799C142.469 35.2234 141.869 35.2992 141.114 35.2992V35.7792ZM143.079 35.534C143.603 35.3408 144.093 35.0121 144.548 34.5569L144.209 34.2175C143.793 34.6327 143.361 34.9184 142.913 35.0836L143.079 35.534ZM144.553 34.552C144.998 34.0803 145.517 33.4307 146.109 32.6073L145.719 32.3271C145.134 33.1421 144.629 33.7725 144.204 34.2224L144.553 34.552ZM146.109 32.6073C146.699 31.7873 147.454 30.7243 148.376 29.4184L147.984 29.1416C147.062 30.4469 146.308 31.5087 145.719 32.3271L146.109 32.6073ZM148.375 29.4195L149.527 27.8067L149.137 27.5277L147.985 29.1405L148.375 29.4195ZM149.538 27.5434L147.157 23.5882L146.745 23.8358L149.126 27.791L149.538 27.5434ZM147.156 23.587C146.233 22.0736 145.458 20.9243 144.835 20.1445L144.46 20.4443C145.065 21.2005 145.826 22.3296 146.746 23.837L147.156 23.587ZM144.84 20.1514C144.244 19.3484 143.68 18.7889 143.146 18.5076L142.923 18.9324C143.361 19.1631 143.873 19.6532 144.454 20.4374L144.84 20.1514ZM143.155 18.5123C142.627 18.2067 142.021 18.0576 141.345 18.0576V18.5376C141.948 18.5376 142.469 18.6701 142.914 18.9277L143.155 18.5123ZM141.581 18.2581L141.505 17.7973L141.031 17.8763L141.108 18.3371L141.581 18.2581ZM141.268 18.0768H149.562V17.5968H141.268V18.0768ZM149.326 17.7973L149.249 18.2581L149.722 18.3371L149.799 17.8763L149.326 17.7973ZM149.486 18.0576C148.815 18.0576 148.296 18.1082 147.95 18.2235L148.102 18.6789C148.371 18.5894 148.824 18.5376 149.486 18.5376V18.0576ZM147.944 18.2256C147.758 18.2933 147.607 18.4089 147.505 18.5757C147.405 18.739 147.364 18.9331 147.364 19.1424H147.844C147.844 18.9933 147.873 18.893 147.914 18.8259C147.953 18.7623 148.013 18.7115 148.108 18.6767L147.944 18.2256ZM147.364 19.1424C147.364 19.2553 147.409 19.402 147.466 19.5531C147.527 19.7156 147.616 19.9208 147.733 20.1667L148.166 19.9613C148.053 19.7208 147.969 19.5292 147.915 19.3845C147.888 19.3122 147.869 19.2546 147.858 19.2106C147.852 19.1887 147.848 19.1718 147.846 19.1593C147.844 19.1464 147.844 19.1414 147.844 19.1424H147.364ZM147.74 20.1806C147.997 20.6432 148.305 21.1823 148.664 21.7977L149.078 21.5559C148.721 20.9425 148.414 20.4064 148.159 19.9474L147.74 20.1806ZM148.668 21.804C149.049 22.4143 149.405 23.0244 149.735 23.6343L150.157 23.4057C149.822 22.7868 149.461 22.1681 149.075 21.5496L148.668 21.804Z" fill="white" mask="url(#path-2-outside-1_69_2208)"/>
</svg>
