<svg width="86" height="72" viewBox="0 0 86 72" fill="none" xmlns="http://www.w3.org/2000/svg">
<path d="M70.995 27.1038L68.5612 22.91C68.2725 22.3875 68.1075 21.7825 68.1075 21.1775V16.3238C68.1075 15.0863 67.4475 13.945 66.3887 13.34L62.1812 10.9063C61.6587 10.6038 61.2187 10.1775 60.93 9.65501L58.4962 5.44751C57.8637 4.38876 56.7362 3.72876 55.5125 3.72876H50.645C50.0537 3.72876 49.4487 3.56376 48.94 3.26126L44.7325 0.84126C43.6737 0.22251 42.34 0.22251 41.2812 0.84126L37.0737 3.26126C36.5512 3.56376 35.96 3.72876 35.3687 3.72876H30.5012C29.2775 3.72876 28.1362 4.38876 27.5175 5.44751L25.0837 9.65501C24.795 10.1775 24.355 10.6038 23.8325 10.9063L19.625 13.34C18.5662 13.9588 17.9062 15.0863 17.9062 16.3238V21.1775C17.9062 21.7963 17.7412 22.3875 17.4387 22.91L15.005 27.1038C14.3862 28.1625 14.3862 29.4963 15.005 30.555L17.4387 34.7488C17.7412 35.2713 17.9062 35.8763 17.9062 36.4813V37.4163C18.69 37.1275 19.5425 36.9625 20.4087 36.9625H26.115L24.7812 34.625C24.4787 34.1025 24.3137 33.4975 24.3137 32.9063V24.7388C24.3137 24.1338 24.4787 23.5425 24.7812 23.02L28.865 15.9388C29.1675 15.4163 29.6075 14.9763 30.13 14.6738L37.2112 10.59C37.72 10.2875 38.325 10.1225 38.93 10.1225H47.0975C47.6887 10.1225 48.2937 10.2875 48.8162 10.59L55.8975 14.6738C56.42 14.9763 56.86 15.4163 57.1625 15.9388L61.2462 23.02C61.5487 23.5425 61.7 24.1338 61.7 24.7388V32.9063C61.7 33.4975 61.5487 34.1025 61.2462 34.625L59.9125 36.9625H65.5912C66.485 36.9625 67.3375 37.1275 68.1212 37.43V36.4813C68.1212 35.8763 68.2862 35.2713 68.575 34.7488L71.0087 30.555C71.6412 29.4963 71.6412 28.1625 71.0087 27.1038H70.995Z" fill="#AA8453"/>
<path d="M57.7125 28.8225C57.7125 20.71 51.1262 14.1238 43 14.1238C34.8737 14.1238 28.3012 20.71 28.3012 28.8225C28.3012 31.8338 29.2087 34.6388 30.7762 36.9625H55.2375C56.805 34.625 57.7125 31.8338 57.7125 28.8225Z" fill="#AA8453"/>
<path d="M29.6762 65.1362C29.25 67.6662 27.9162 69.9762 25.9087 71.6125H1.79124C0.69124 71.6125 0.0174899 70.4162 0.58124 69.4812L4.32124 63.2662L0.58124 57.065C0.0174899 56.13 0.69124 54.9337 1.79124 54.9337H13.1075V57.835C13.1075 61.85 16.3937 65.1362 20.4087 65.1362H29.6762Z" fill="#AA8453"/>
<path d="M81.6787 63.28L85.4187 69.495C85.9825 70.43 85.3087 71.6263 84.2087 71.6263H60.105C58.0975 69.9763 56.75 67.68 56.3375 65.15H65.5912C69.6062 65.15 72.8925 61.8638 72.8925 57.8488V54.9475H84.2225C85.3225 54.9475 85.9962 56.1438 85.4325 57.0788L81.6925 63.28H81.6787Z" fill="#AA8453"/>
<path d="M67.5162 43.2601C67.1725 42.5451 66.4437 42.0638 65.5775 42.0638H20.4087C19.5837 42.0638 18.855 42.5313 18.4837 43.2326C18.305 43.5351 18.2087 43.8926 18.2087 44.2638V57.8488C18.2087 59.0726 19.1987 60.0488 20.4087 60.0488H65.5775C66.8012 60.0488 67.7775 59.0726 67.7775 57.8488V44.2638C67.7775 43.9063 67.695 43.5626 67.5162 43.2601ZM41.9137 45.7626L38.8337 56.6113C38.7787 56.8313 38.5725 56.9688 38.3525 56.9688H36.8812C36.6475 56.9688 36.455 56.8038 36.4 56.5838C36.4 56.5838 34.7912 49.9701 34.75 49.7501C34.695 49.9701 32.8662 56.5976 32.8662 56.5976C32.8112 56.8176 32.6187 56.9551 32.385 56.9551H30.9137C30.6937 56.9551 30.4875 56.7901 30.4325 56.5701L27.6825 45.7213C27.6412 45.5701 27.6825 45.4188 27.765 45.2813C27.8612 45.1713 28.0125 45.0888 28.1637 45.0888H29.6487C29.8825 45.0888 30.0887 45.2538 30.1437 45.4876L31.78 52.4863L33.6362 45.4738C33.6775 45.3226 33.7875 45.1988 33.925 45.1438C33.98 45.1163 34.035 45.1026 34.1175 45.1026H35.5887C35.8225 45.1026 36.0287 45.2676 36.07 45.4876L37.72 52.4038L39.5075 45.4876C39.5625 45.2676 39.7687 45.1026 40.0025 45.1026H41.4325C41.5975 45.1026 41.735 45.1713 41.845 45.3088C41.9275 45.4188 41.955 45.5976 41.9137 45.7488V45.7626ZM46.2037 56.4876C46.2037 56.7626 45.9837 56.9826 45.695 56.9826H44.2925C44.0175 56.9826 43.7975 56.7626 43.7975 56.4876V45.6388C43.7975 45.3501 44.0175 45.1301 44.2925 45.1301H45.695C45.9837 45.1301 46.2037 45.3501 46.2037 45.6388V56.4876ZM58.29 56.4876C58.29 56.7626 58.07 56.9826 57.795 56.9826H56.3787C56.2 56.9826 56.0487 56.9001 55.9387 56.7488L51.47 49.5163V56.4738C51.47 56.7488 51.2362 56.9688 50.9612 56.9688H49.6412C49.3662 56.9688 49.1462 56.7488 49.1462 56.4738V45.6251C49.1462 45.3363 49.3662 45.1163 49.6412 45.1163H51.1812C51.3462 45.1163 51.4975 45.1988 51.6075 45.3501L51.6487 45.4051L55.98 52.3213V45.6251C55.98 45.3363 56.2 45.1163 56.475 45.1163H57.795C58.07 45.1163 58.29 45.3363 58.29 45.6251V56.4738V56.4876Z" fill="#AA8453"/>
</svg>
